{
.appVersion = "3133";
classes = (
{

glyphs = (
{
glyphname = exclam;
layers = (
{
layerId = "C788331E-5670-44D3-9D66-EAA382172B0D";
paths = (
{
closed = 1;
nodes = (
"20 166 OFFCURVE",
"74 220 OFFCURVE",
"140 220 CURVE SMOOTH",
"206 220 OFFCURVE",
"260 166 OFFCURVE",
"260 100 CURVE SMOOTH",
"260 34 OFFCURVE",
"206 -20 OFFCURVE",
"140 -20 CURVE SMOOTH",
"74 -20 OFFCURVE",
"20 34 OFFCURVE",
"20 100 CURVE SMOOTH"
);
},
{
closed = 1;
nodes = (
"447 967 OFFCURVE",
"344 716 OFFCURVE",
"272 434 CURVE SMOOTH",
"267 415 OFFCURVE",
"264 410 OFFCURVE",
"239 410 CURVE SMOOTH",
"206 410 LINE SMOOTH",
"188 410 OFFCURVE",
"184 412 OFFCURVE",
"188 428 CURVE SMOOTH",
"253 712 OFFCURVE",
"249 995 OFFCURVE",
"320 1350 CURVE SMOOTH",
"336 1430 OFFCURVE",
"362 1518 OFFCURVE",
"466 1518 CURVE SMOOTH",
"530 1518 OFFCURVE",
"570 1468 OFFCURVE",
"570 1404 CURVE SMOOTH",
"570 1368 OFFCURVE",
"560 1326 OFFCURVE",
"550 1294 CURVE SMOOTH"
);
}
);
vertWidth = 0;
width = 638;
},
{
layerId = "166B8CC3-B8B2-42DF-8AC5-58EF4CD93FB2";
paths = (
{
closed = 1;
nodes = (
"10 332 OFFCURVE",
"118 440 OFFCURVE",
"250 440 CURVE SMOOTH",
"382 440 OFFCURVE",
"490 332 OFFCURVE",
"490 200 CURVE SMOOTH",
"490 68 OFFCURVE",
"382 -40 OFFCURVE",
"250 -40 CURVE SMOOTH",
"118 -40 OFFCURVE",
"10 68 OFFCURVE",
"10 200 CURVE SMOOTH"
);
},
{
closed = 1;
nodes = (
"639 873 OFFCURVE",
"482 825 OFFCURVE",
"403 562 CURVE SMOOTH",
"394 532 OFFCURVE",
"383 530 OFFCURVE",
"343 530 CURVE SMOOTH",
"297 530 LINE SMOOTH",
"249 530 OFFCURVE",
"233 532 OFFCURVE",
"241 570 CURVE SMOOTH",
"293 833 OFFCURVE",
"181 953 OFFCURVE",
"250 1298 CURVE SMOOTH",
"278 1438 OFFCURVE",
"386 1518 OFFCURVE",
"526 1518 CURVE SMOOTH",
"690 1518 OFFCURVE",
"782 1416 OFFCURVE",
"782 1314 CURVE SMOOTH",
"782 1278 OFFCURVE",
"772 1227 OFFCURVE",
"760 1196 CURVE SMOOTH"
);
}
);
vertWidth = 0;
width = 756;
},
{
layerId = "6A50D5EA-2B4A-4D44-BCCC-14A16F5631EA";
paths = (
{
closed = 1;
nodes = (
"10 332 OFFCURVE",
"118 440 OFFCURVE",
"250 440 CURVE SMOOTH",
"382 440 OFFCURVE",
"490 332 OFFCURVE",
"490 200 CURVE SMOOTH",
"490 68 OFFCURVE",
"382 -40 OFFCURVE",
"250 -40 CURVE SMOOTH",
"118 -40 OFFCURVE",
"10 68 OFFCURVE",
"10 200 CURVE SMOOTH"
);
},
{
closed = 1;
nodes = (
"639 873 OFFCURVE",
"482 825 OFFCURVE",
"403 562 CURVE SMOOTH",
"394 532 OFFCURVE",
"383 530 OFFCURVE",
"343 530 CURVE SMOOTH",
"297 530 LINE SMOOTH",
"249 530 OFFCURVE",
"233 532 OFFCURVE",
"241 570 CURVE SMOOTH",
"293 833 OFFCURVE",
"181 953 OFFCURVE",
"250 1298 CURVE SMOOTH",
"278 1438 OFFCURVE",
"386 1518 OFFCURVE",
"526 1518 CURVE SMOOTH",
"690 1518 OFFCURVE",
"782 1416 OFFCURVE",
"782 1314 CURVE SMOOTH",
"782 1278 OFFCURVE",
"772 1227 OFFCURVE",
"760 1196 CURVE SMOOTH"
);
}
);
vertWidth = 0;
width = 756;
},
{
layerId = "5A070E73-1DB9-476B-9E26-8EFE8B60F44F";
paths = (
{
closed = 1;
nodes = (
"20 166 OFFCURVE",
"74 220 OFFCURVE",
"140 220 CURVE SMOOTH",
"206 220 OFFCURVE",
"260 166 OFFCURVE",
"260 100 CURVE SMOOTH",
"260 34 OFFCURVE",
"206 -20 OFFCURVE",
"140 -20 CURVE SMOOTH",
"74 -20 OFFCURVE",
"20 34 OFFCURVE",
"20 100 CURVE SMOOTH"
);
},
{
closed = 1;
nodes = (
"447 967 OFFCURVE",
"344 716 OFFCURVE",
"272 434 CURVE SMOOTH",
"267 415 OFFCURVE",
"264 410 OFFCURVE",
"239 410 CURVE SMOOTH",
"206 410 LINE SMOOTH",
"188 410 OFFCURVE",
"184 412 OFFCURVE",
"188 428 CURVE SMOOTH",
"253 712 OFFCURVE",
"249 995 OFFCURVE",
"320 1350 CURVE SMOOTH",
"336 1430 OFFCURVE",
"362 1518 OFFCURVE",
"466 1518 CURVE SMOOTH",
"530 1518 OFFCURVE",
"570 1468 OFFCURVE",
"570 1404 CURVE SMOOTH",
"570 1368 OFFCURVE",
"560 1326 OFFCURVE",
"550 1294 CURVE SMOOTH"
);
}
);
vertWidth = 0;
width = 638;
}
);
unicode = 0021;
},
{
glyphname = numbersign;
layers = (
{
layerId = "C788331E-5670-44D3-9D66-EAA382172B0D";
paths = (
{
closed = 1;
nodes = (
"670 1610 LINE SMOOTH",
"712 1610 OFFCURVE",
"712 1603 OFFCURVE",
"704 1573 CURVE SMOOTH",
"578 1121 LINE SMOOTH",
"569 1088 OFFCURVE",
"568 1080 OFFCURVE",
"614 1080 CURVE SMOOTH",
"876 1080 LINE SMOOTH",
"906 1080 OFFCURVE",
"912 1095 OFFCURVE",
"918 1117 CURVE SMOOTH",
"1046 1573 LINE SMOOTH",
"1055 1604 OFFCURVE",
"1058 1610 OFFCURVE",
"1098 1610 CURVE SMOOTH",
"1136 1610 LINE SMOOTH",
"1170 1610 OFFCURVE",
"1166 1596 OFFCURVE",
"1160 1573 CURVE SMOOTH",
"1031 1113 LINE SMOOTH",
"1023 1084 OFFCURVE",
"1017 1080 OFFCURVE",
"1056 1080 CURVE SMOOTH",
"1348 1080 LINE SMOOTH",
"1372 1080 OFFCURVE",
"1380 1075 OFFCURVE",
"1380 1049 CURVE SMOOTH",
"1380 997 LINE SMOOTH",
"1380 976 OFFCURVE",
"1374 970 OFFCURVE",
"1352 970 CURVE SMOOTH",
"1042 970 LINE SMOOTH",
"997 970 OFFCURVE",
"990 963 OFFCURVE",
"980 929 CURVE SMOOTH",
"888 599 LINE SMOOTH",
"878 563 OFFCURVE",
"882 560 OFFCURVE",
"930 560 CURVE SMOOTH",
"1194 560 LINE SMOOTH",
"1228 560 OFFCURVE",
"1240 558 OFFCURVE",
"1240 521 CURVE SMOOTH",
"1240 491 LINE SMOOTH",
"1240 452 OFFCURVE",
"1232 450 OFFCURVE",
"1192 450 CURVE SMOOTH",
"878 450 LINE SMOOTH",
"847 450 OFFCURVE",
"846 449 OFFCURVE",
"839 425 CURVE SMOOTH",
"696 -87 LINE SMOOTH",
"692 -102 OFFCURVE",
"685 -110 OFFCURVE",
"664 -110 CURVE SMOOTH",
"620 -110 LINE SMOOTH",
"576 -110 OFFCURVE",
"578 -100 OFFCURVE",
"587 -69 CURVE SMOOTH",
"720 407 LINE SMOOTH",
"731 447 OFFCURVE",
"727 450 OFFCURVE",
"674 450 CURVE SMOOTH",
"444 450 LINE SMOOTH",
"394 450 OFFCURVE",
"390 450 OFFCURVE",
"379 411 CURVE SMOOTH",
"244 -73 LINE SMOOTH",
"235 -104 OFFCURVE",
"228 -110 OFFCURVE",
"188 -110 CURVE SMOOTH",
"157 -110 LINE SMOOTH",
"122 -110 OFFCURVE",
"122 -104 OFFCURVE",
"129 -79 CURVE SMOOTH",
"264 405 LINE SMOOTH",
"274 441 OFFCURVE",
"278 450 OFFCURVE",
"220 450 CURVE SMOOTH",
"-26 450 LINE SMOOTH",
"-54 450 OFFCURVE",
"-60 455 OFFCURVE",
"-60 485 CURVE SMOOTH",
"-60 527 LINE SMOOTH",
"-60 553 OFFCURVE",
"-57 560 OFFCURVE",
"-32 560 CURVE SMOOTH",
"250 560 LINE SMOOTH",
"293 560 OFFCURVE",
"307 563 OFFCURVE",
"318 601 CURVE SMOOTH",
"413 939 LINE SMOOTH",
"421 968 OFFCURVE",
"420 970 OFFCURVE",
"381 970 CURVE SMOOTH",
"112 970 LINE SMOOTH",
"85 970 OFFCURVE",
"80 976 OFFCURVE",
"80 1005 CURVE SMOOTH",
"80 1047 LINE SMOOTH",
"80 1072 OFFCURVE",
"82 1080 OFFCURVE",
"106 1080 CURVE SMOOTH",
"414 1080 LINE SMOOTH",
"454 1080 OFFCURVE",
"458 1102 OFFCURVE",
"466 1131 CURVE SMOOTH",
"593 1585 LINE SMOOTH",
"597 1601 OFFCURVE",
"604 1610 OFFCURVE",
"625 1610 CURVE SMOOTH"
);
},
{
closed = 1;
nodes = (
"568 970 LINE SMOOTH",
"530 970 OFFCURVE",
"533 962 OFFCURVE",
"525 933 CURVE SMOOTH",
"434 607 LINE SMOOTH",
"424 572 OFFCURVE",
"420 560 OFFCURVE",
"470 560 CURVE SMOOTH",
"700 560 LINE SMOOTH",
"751 560 OFFCURVE",
"763 561 OFFCURVE",
"774 601 CURVE SMOOTH",
"870 945 LINE SMOOTH",
"879 978 OFFCURVE",
"855 970 OFFCURVE",
"818 970 CURVE SMOOTH"
);
}
);
vertWidth = 0;
width = 1320;
},
{
layerId = "166B8CC3-B8B2-42DF-8AC5-58EF4CD93FB2";
paths = (
{
closed = 1;
nodes = (
"731 1610 LINE SMOOTH",
"778 1610 OFFCURVE",
"783 1605 OFFCURVE",
"772 1566 CURVE SMOOTH",
"657 1156 LINE SMOOTH",
"646 1117 OFFCURVE",
"646 1110 OFFCURVE",
"699 1110 CURVE SMOOTH",
"809 1110 LINE SMOOTH",
"855 1110 OFFCURVE",
"850 1122 OFFCURVE",
"859 1156 CURVE SMOOTH",
"976 1574 LINE SMOOTH",
"985 1606 OFFCURVE",
"993 1610 OFFCURVE",
"1035 1610 CURVE SMOOTH",
"1147 1610 LINE SMOOTH",
"1199 1610 OFFCURVE",
"1196 1601 OFFCURVE",
"1184 1559 CURVE SMOOTH",
"1071 1148 LINE SMOOTH",
"1063 1118 OFFCURVE",
"1062 1110 OFFCURVE",
"1105 1110 CURVE SMOOTH",
"1335 1110 LINE SMOOTH",
"1370 1110 OFFCURVE",
"1380 1107 OFFCURVE",
"1380 1070 CURVE SMOOTH",
"1380 944 LINE SMOOTH",
"1380 906 OFFCURVE",
"1376 900 OFFCURVE",
"1339 900 CURVE SMOOTH",
"1049 900 LINE SMOOTH",
"995 900 OFFCURVE",
"999 890 OFFCURVE",
"988 850 CURVE SMOOTH",
"942 684 LINE SMOOTH",
"934 654 OFFCURVE",
"931 630 OFFCURVE",
"977 630 CURVE SMOOTH",
"1191 630 LINE SMOOTH",
"1236 630 OFFCURVE",
"1240 622 OFFCURVE",
"1240 578 CURVE SMOOTH",
"1240 466 LINE SMOOTH",
"1240 430 OFFCURVE",
"1239 420 OFFCURVE",
"1203 420 CURVE SMOOTH",
"921 420 LINE SMOOTH",
"866 420 OFFCURVE",
"867 416 OFFCURVE",
"855 374 CURVE SMOOTH",
"730 -74 LINE SMOOTH",
"720 -108 OFFCURVE",
"709 -110 OFFCURVE",
"665 -110 CURVE SMOOTH",
"557 -110 LINE SMOOTH",
"514 -110 OFFCURVE",
"506 -110 OFFCURVE",
"515 -76 CURVE SMOOTH",
"643 380 LINE SMOOTH",
"653 417 OFFCURVE",
"649 420 OFFCURVE",
"599 420 CURVE SMOOTH",
"489 420 LINE SMOOTH",
"450 420 OFFCURVE",
"450 416 OFFCURVE",
"442 386 CURVE SMOOTH",
"316 -68 LINE SMOOTH",
"307 -101 OFFCURVE",
"300 -110 OFFCURVE",
"255 -110 CURVE SMOOTH",
"133 -110 LINE SMOOTH",
"84 -110 OFFCURVE",
"97 -84 OFFCURVE",
"106 -52 CURVE SMOOTH",
"227 380 LINE SMOOTH",
"236 414 OFFCURVE",
"225 420 OFFCURVE",
"179 420 CURVE SMOOTH",
"-13 420 LINE SMOOTH",
"-46 420 OFFCURVE",
"-60 422 OFFCURVE",
"-60 458 CURVE SMOOTH",
"-60 580 LINE SMOOTH",
"-60 618 OFFCURVE",
"-58 630 OFFCURVE",
"-17 630 CURVE SMOOTH",
"257 630 LINE SMOOTH",
"301 630 OFFCURVE",
"299 637 OFFCURVE",
"308 670 CURVE SMOOTH",
"360 858 LINE SMOOTH",
"369 892 OFFCURVE",
"371 900 OFFCURVE",
"323 900 CURVE SMOOTH",
"123 900 LINE SMOOTH",
"84 900 OFFCURVE",
"80 912 OFFCURVE",
"80 948 CURVE SMOOTH",
"80 1078 LINE SMOOTH",
"80 1109 OFFCURVE",
"97 1110 OFFCURVE",
"125 1110 CURVE SMOOTH",
"379 1110 LINE SMOOTH",
"433 1110 OFFCURVE",
"432 1115 OFFCURVE",
"443 1156 CURVE SMOOTH",
"564 1590 LINE SMOOTH",
"571 1614 OFFCURVE",
"581 1610 OFFCURVE",
"611 1610 CURVE SMOOTH"
);
},
{
closed = 1;
nodes = (
"615 900 LINE SMOOTH",
"586 900 OFFCURVE",
"585 899 OFFCURVE",
"579 876 CURVE SMOOTH",
"523 674 LINE SMOOTH",
"513 638 OFFCURVE",
"511 630 OFFCURVE",
"561 630 CURVE SMOOTH",
"665 630 LINE SMOOTH",
"713 630 OFFCURVE",
"714 633 OFFCURVE",
"724 670 CURVE SMOOTH",
"779 868 LINE SMOOTH",
"787 898 OFFCURVE",
"778 900 OFFCURVE",
"747 900 CURVE SMOOTH"
);
}
);
vertWidth = 0;
width = 1320;
},
{
layerId = "6A50D5EA-2B4A-4D44-BCCC-14A16F5631EA";
paths = (
{
closed = 1;
nodes = (
"731 1610 LINE SMOOTH",
"778 1610 OFFCURVE",
"783 1605 OFFCURVE",
"772 1566 CURVE SMOOTH",
"657 1156 LINE SMOOTH",
"646 1117 OFFCURVE",
"646 1110 OFFCURVE",
"699 1110 CURVE SMOOTH",
"809 1110 LINE SMOOTH",
"855 1110 OFFCURVE",
"850 1122 OFFCURVE",
"859 1156 CURVE SMOOTH",
"976 1574 LINE SMOOTH",
"985 1606 OFFCURVE",
"993 1610 OFFCURVE",
"1035 1610 CURVE SMOOTH",
"1147 1610 LINE SMOOTH",
"1199 1610 OFFCURVE",
"1196 1601 OFFCURVE",
"1184 1559 CURVE SMOOTH",
"1071 1148 LINE SMOOTH",
"1063 1118 OFFCURVE",
"1062 1110 OFFCURVE",
"1105 1110 CURVE SMOOTH",
"1335 1110 LINE SMOOTH",
"1370 1110 OFFCURVE",
"1380 1107 OFFCURVE",
"1380 1070 CURVE SMOOTH",
"1380 944 LINE SMOOTH",
"1380 906 OFFCURVE",
"1376 900 OFFCURVE",
"1339 900 CURVE SMOOTH",
"1049 900 LINE SMOOTH",
"995 900 OFFCURVE",
"999 890 OFFCURVE",
"988 850 CURVE SMOOTH",
"942 684 LINE SMOOTH",
"934 654 OFFCURVE",
"931 630 OFFCURVE",
"977 630 CURVE SMOOTH",
"1191 630 LINE SMOOTH",
"1236 630 OFFCURVE",
"1240 622 OFFCURVE",
"1240 578 CURVE SMOOTH",
"1240 466 LINE SMOOTH",
"1240 430 OFFCURVE",
"1239 420 OFFCURVE",
"1203 420 CURVE SMOOTH",
"921 420 LINE SMOOTH",
"866 420 OFFCURVE",
"867 416 OFFCURVE",
"855 374 CURVE SMOOTH",
"730 -74 LINE SMOOTH",
"720 -108 OFFCURVE",
"709 -110 OFFCURVE",
"665 -110 CURVE SMOOTH",
"557 -110 LINE SMOOTH",
"514 -110 OFFCURVE",
"506 -110 OFFCURVE",
"515 -76 CURVE SMOOTH",
"643 380 LINE SMOOTH",
"653 417 OFFCURVE",
"649 420 OFFCURVE",
"599 420 CURVE SMOOTH",
"489 420 LINE SMOOTH",
"450 420 OFFCURVE",
"450 416 OFFCURVE",
"442 386 CURVE SMOOTH",
"316 -68 LINE SMOOTH",
"307 -101 OFFCURVE",
"300 -110 OFFCURVE",
"255 -110 CURVE SMOOTH",
"133 -110 LINE SMOOTH",
"84 -110 OFFCURVE",
"97 -84 OFFCURVE",
"106 -52 CURVE SMOOTH",
"227 380 LINE SMOOTH",
"236 414 OFFCURVE",
"225 420 OFFCURVE",
"179 420 CURVE SMOOTH",
"-13 420 LINE SMOOTH",
"-46 420 OFFCURVE",
"-60 422 OFFCURVE",
"-60 458 CURVE SMOOTH",
"-60 580 LINE SMOOTH",
"-60 618 OFFCURVE",
"-58 630 OFFCURVE",
"-17 630 CURVE SMOOTH",
"257 630 LINE SMOOTH",
"301 630 OFFCURVE",
"299 637 OFFCURVE",
"308 670 CURVE SMOOTH",
"360 858 LINE SMOOTH",
"369 892 OFFCURVE",
"371 900 OFFCURVE",
"323 900 CURVE SMOOTH",
"123 900 LINE SMOOTH",
"84 900 OFFCURVE",
"80 912 OFFCURVE",
"80 948 CURVE SMOOTH",
"80 1078 LINE SMOOTH",
"80 1109 OFFCURVE",
"97 1110 OFFCURVE",
"125 1110 CURVE SMOOTH",
"379 1110 LINE SMOOTH",
"433 1110 OFFCURVE",
"432 1115 OFFCURVE",
"443 1156 CURVE SMOOTH",
"564 1590 LINE SMOOTH",
"571 1614 OFFCURVE",
"581 1610 OFFCURVE",
"611 1610 CURVE SMOOTH"
);
},
{
closed = 1;
nodes = (
"615 900 LINE SMOOTH",
"586 900 OFFCURVE",
"585 899 OFFCURVE",
"579 876 CURVE SMOOTH",
"523 674 LINE SMOOTH",
"513 638 OFFCURVE",
"511 630 OFFCURVE",
"561 630 CURVE SMOOTH",
"665 630 LINE SMOOTH",
"713 630 OFFCURVE",
"714 633 OFFCURVE",
"724 670 CURVE SMOOTH",
"779 868 LINE SMOOTH",
"787 898 OFFCURVE",
"778 900 OFFCURVE",
"747 900 CURVE SMOOTH"
);
}
);
vertWidth = 0;
width = 1320;
},
{
layerId = "5A070E73-1DB9-476B-9E26-8EFE8B60F44F";
paths = (
{
closed = 1;
nodes = (
"670 1610 LINE SMOOTH",
"712 1610 OFFCURVE",
"712 1603 OFFCURVE",
"704 1573 CURVE SMOOTH",
"578 1121 LINE SMOOTH",
"569 1088 OFFCURVE",
"568 1080 OFFCURVE",
"614 1080 CURVE SMOOTH",
"876 1080 LINE SMOOTH",
"906 1080 OFFCURVE",
"912 1095 OFFCURVE",
"918 1117 CURVE SMOOTH",
"1046 1573 LINE SMOOTH",
"1055 1604 OFFCURVE",
"1058 1610 OFFCURVE",
"1098 1610 CURVE SMOOTH",
"1136 1610 LINE SMOOTH",
"1170 1610 OFFCURVE",
"1166 1596 OFFCURVE",
"1160 1573 CURVE SMOOTH",
"1031 1113 LINE SMOOTH",
"1023 1084 OFFCURVE",
"1017 1080 OFFCURVE",
"1056 1080 CURVE SMOOTH",
"1348 1080 LINE SMOOTH",
"1372 1080 OFFCURVE",
"1380 1075 OFFCURVE",
"1380 1049 CURVE SMOOTH",
"1380 997 LINE SMOOTH",
"1380 976 OFFCURVE",
"1374 970 OFFCURVE",
"1352 970 CURVE SMOOTH",
"1042 970 LINE SMOOTH",
"997 970 OFFCURVE",
"990 963 OFFCURVE",
"980 929 CURVE SMOOTH",
"888 599 LINE SMOOTH",
"878 563 OFFCURVE",
"882 560 OFFCURVE",
"930 560 CURVE SMOOTH",
"1194 560 LINE SMOOTH",
"1228 560 OFFCURVE",
"1240 558 OFFCURVE",
"1240 521 CURVE SMOOTH",
"1240 491 LINE SMOOTH",
"1240 452 OFFCURVE",
"1232 450 OFFCURVE",
"1192 450 CURVE SMOOTH",
"878 450 LINE SMOOTH",
"847 450 OFFCURVE",
"846 449 OFFCURVE",
"839 425 CURVE SMOOTH",
"696 -87 LINE SMOOTH",
"692 -102 OFFCURVE",
"685 -110 OFFCURVE",
"664 -110 CURVE SMOOTH",
"620 -110 LINE SMOOTH",
"576 -110 OFFCURVE",
"578 -100 OFFCURVE",
"587 -69 CURVE SMOOTH",
"720 407 LINE SMOOTH",
"731 447 OFFCURVE",
"727 450 OFFCURVE",
"674 450 CURVE SMOOTH",
"444 450 LINE SMOOTH",
"394 450 OFFCURVE",
"390 450 OFFCURVE",
"379 411 CURVE SMOOTH",
"244 -73 LINE SMOOTH",
"235 -104 OFFCURVE",
"228 -110 OFFCURVE",
"188 -110 CURVE SMOOTH",
"157 -110 LINE SMOOTH",
"122 -110 OFFCURVE",
"122 -104 OFFCURVE",
"129 -79 CURVE SMOOTH",
"264 405 LINE SMOOTH",
"274 441 OFFCURVE",
"278 450 OFFCURVE",
"220 450 CURVE SMOOTH",
"-26 450 LINE SMOOTH",
"-54 450 OFFCURVE",
"-60 455 OFFCURVE",
"-60 485 CURVE SMOOTH",
"-60 527 LINE SMOOTH",
"-60 553 OFFCURVE",
"-57 560 OFFCURVE",
"-32 560 CURVE SMOOTH",
"250 560 LINE SMOOTH",
"293 560 OFFCURVE",
"307 563 OFFCURVE",
"318 601 CURVE SMOOTH",
"413 939 LINE SMOOTH",
"421 968 OFFCURVE",
"420 970 OFFCURVE",
"381 970 CURVE SMOOTH",
"112 970 LINE SMOOTH",
"85 970 OFFCURVE",
"80 976 OFFCURVE",
"80 1005 CURVE SMOOTH",
"80 1047 LINE SMOOTH",
"80 1072 OFFCURVE",
"82 1080 OFFCURVE",
"106 1080 CURVE SMOOTH",
"414 1080 LINE SMOOTH",
"454 1080 OFFCURVE",
"458 1102 OFFCURVE",
"466 1131 CURVE SMOOTH",
"593 1585 LINE SMOOTH",
"597 1601 OFFCURVE",
"604 1610 OFFCURVE",
"625 1610 CURVE SMOOTH"
);
},
{
closed = 1;
nodes = (
"568 970 LINE SMOOTH",
"530 970 OFFCURVE",
"533 962 OFFCURVE",
"525 933 CURVE SMOOTH",
"434 607 LINE SMOOTH",
"424 572 OFFCURVE",
"420 560 OFFCURVE",
"470 560 CURVE SMOOTH",
"700 560 LINE SMOOTH",
"751 560 OFFCURVE",
"763 561 OFFCURVE",
"774 601 CURVE SMOOTH",
"870 945 LINE SMOOTH",
"879 978 OFFCURVE",
"855 970 OFFCURVE",
"818 970 CURVE SMOOTH"
);
}
);
vertWidth = 0;
width = 1320;
}
);
unicode = 0023;
},
{
glyphname = dollar;
layers = (
{
layerId = "C788331E-5670-44D3-9D66-EAA382172B0D";
paths = (
{
closed = 1;
nodes = (
"1026 1214 OFFCURVE",
"1090 1224 OFFCURVE",
"1090 1270 CURVE SMOOTH",
"1090 1317 OFFCURVE",
"1049 1385 OFFCURVE",
"934 1409 CURVE SMOOTH",
"914 1413 OFFCURVE",
"916 1407 OFFCURVE",
"911 1390 CURVE SMOOTH",
"778 920 LINE SMOOTH",
"760 857 OFFCURVE",
"763 857 OFFCURVE",
"818 831 CURVE SMOOTH",
"982 752 OFFCURVE",
"1140 651 OFFCURVE",
"1140 410 CURVE SMOOTH",
"1140 131 OFFCURVE",
"901 -11 OFFCURVE",
"544 -19 CURVE SMOOTH",
"514 -20 OFFCURVE",
"513 -20 OFFCURVE",
"506 -44 CURVE SMOOTH",
"475 -152 LINE SMOOTH",
"470 -171 OFFCURVE",
"466 -170 OFFCURVE",
"442 -170 CURVE SMOOTH",
"377 -170 LINE SMOOTH",
"347 -170 OFFCURVE",
"351 -168 OFFCURVE",
"357 -146 CURVE SMOOTH",
"389 -31 LINE SMOOTH",
"395 -10 OFFCURVE",
"396 -10 OFFCURVE",
"373 -6 CURVE SMOOTH",
"108 41 OFFCURVE",
"12 200 OFFCURVE",
"12 352 CURVE SMOOTH",
"12 448 OFFCURVE",
"82 504 OFFCURVE",
"140 504 CURVE SMOOTH",
"194 504 OFFCURVE",
"254 462 OFFCURVE",
"254 388 CURVE SMOOTH",
"254 316 OFFCURVE",
"190 306 OFFCURVE",
"190 260 CURVE SMOOTH",
"190 215 OFFCURVE",
"227 134 OFFCURVE",
"379 100 CURVE SMOOTH",
"409 93 OFFCURVE",
"422 85 OFFCURVE",
"431 116 CURVE SMOOTH",
"588 671 LINE SMOOTH",
"598 708 OFFCURVE",
"592 707 OFFCURVE",
"561 722 CURVE SMOOTH",
"413 795 OFFCURVE",
"280 888 OFFCURVE",
"280 1100 CURVE SMOOTH",
"280 1333 OFFCURVE",
"522 1506 OFFCURVE",
"796 1519 CURVE SMOOTH",
"826 1520 OFFCURVE",
"827 1520 OFFCURVE",
"834 1544 CURVE SMOOTH",
"865 1651 LINE SMOOTH",
"870 1668 OFFCURVE",
"869 1670 OFFCURVE",
"891 1670 CURVE SMOOTH",
"960 1670 LINE SMOOTH",
"988 1670 OFFCURVE",
"987 1660 OFFCURVE",
"982 1641 CURVE SMOOTH",
"950 1530 LINE SMOOTH",
"943 1504 OFFCURVE",
"953 1508 OFFCURVE",
"978 1502 CURVE SMOOTH",
"1149 1460 OFFCURVE",
"1268 1345 OFFCURVE",
"1268 1158 CURVE SMOOTH",
"1268 1062 OFFCURVE",
"1198 1026 OFFCURVE",
"1140 1026 CURVE SMOOTH",
"1086 1026 OFFCURVE",
"1026 1068 OFFCURVE",
"1026 1142 CURVE SMOOTH"
);
},
{
closed = 1;
nodes = (
"460 1039 OFFCURVE",
"532 975 OFFCURVE",
"630 922 CURVE SMOOTH",
"658 907 OFFCURVE",
"656 912 OFFCURVE",
"665 944 CURVE SMOOTH",
"791 1392 LINE SMOOTH",
"797 1414 OFFCURVE",
"802 1418 OFFCURVE",
"774 1415 CURVE SMOOTH",
"594 1398 OFFCURVE",
"460 1309 OFFCURVE",
"460 1150 CURVE SMOOTH"
);
},
{
closed = 1;
nodes = (
"960 493 OFFCURVE",
"866 571 OFFCURVE",
"747 633 CURVE SMOOTH",
"704 655 OFFCURVE",
"703 656 OFFCURVE",
"689 606 CURVE SMOOTH",
"548 106 LINE SMOOTH",
"541 81 OFFCURVE",
"546 84 OFFCURVE",
"576 85 CURVE SMOOTH",
"825 95 OFFCURVE",
"960 208 OFFCURVE",
"960 340 CURVE SMOOTH"
);
}
);
vertWidth = 0;
width = 1320;
},
{
layerId = "166B8CC3-B8B2-42DF-8AC5-58EF4CD93FB2";
paths = (
{
closed = 1;
nodes = (
"1034 1194 OFFCURVE",
"1118 1204 OFFCURVE",
"1118 1250 CURVE SMOOTH",
"1118 1282 OFFCURVE",
"1108 1303 OFFCURVE",
"1067 1315 CURVE SMOOTH",
"1028 1326 OFFCURVE",
"997 1314 OFFCURVE",
"985 1271 CURVE SMOOTH",
"919 1035 LINE SMOOTH",
"903 980 OFFCURVE",
"894 974 OFFCURVE",
"951 957 CURVE SMOOTH",
"1162 896 OFFCURVE",
"1404 806 OFFCURVE",
"1404 490 CURVE SMOOTH",
"1404 208 OFFCURVE",
"1012 -11 OFFCURVE",
"665 -37 CURVE SMOOTH",
"622 -40 OFFCURVE",
"615 -37 OFFCURVE",
"605 -73 CURVE SMOOTH",
"588 -135 LINE SMOOTH",
"580 -163 OFFCURVE",
"573 -170 OFFCURVE",
"535 -170 CURVE SMOOTH",
"403 -170 LINE SMOOTH",
"361 -170 OFFCURVE",
"359 -163 OFFCURVE",
"369 -129 CURVE SMOOTH",
"389 -59 LINE SMOOTH",
"400 -20 OFFCURVE",
"396 -24 OFFCURVE",
"357 -15 CURVE SMOOTH",
"69 53 OFFCURVE",
"0 246 OFFCURVE",
"0 392 CURVE SMOOTH",
"0 528 OFFCURVE",
"80 634 OFFCURVE",
"218 634 CURVE SMOOTH",
"352 634 OFFCURVE",
"422 562 OFFCURVE",
"422 448 CURVE SMOOTH",
"422 316 OFFCURVE",
"338 340 OFFCURVE",
"338 280 CURVE SMOOTH",
"338 243 OFFCURVE",
"359 210 OFFCURVE",
"427 191 CURVE SMOOTH",
"457 183 OFFCURVE",
"459 186 OFFCURVE",
"467 215 CURVE SMOOTH",
"562 554 LINE SMOOTH",
"573 592 OFFCURVE",
"545 601 OFFCURVE",
"511 612 CURVE SMOOTH",
"331 669 OFFCURVE",
"170 758 OFFCURVE",
"170 1016 CURVE SMOOTH",
"170 1314 OFFCURVE",
"498 1493 OFFCURVE",
"769 1532 CURVE SMOOTH",
"828 1541 OFFCURVE",
"839 1533 OFFCURVE",
"854 1585 CURVE SMOOTH",
"868 1635 LINE SMOOTH",
"876 1664 OFFCURVE",
"889 1670 OFFCURVE",
"925 1670 CURVE SMOOTH",
"1035 1670 LINE SMOOTH",
"1088 1670 OFFCURVE",
"1099 1668 OFFCURVE",
"1086 1623 CURVE SMOOTH",
"1070 1571 LINE SMOOTH",
"1055 1516 OFFCURVE",
"1065 1524 OFFCURVE",
"1119 1510 CURVE SMOOTH",
"1307 1462 OFFCURVE",
"1476 1354 OFFCURVE",
"1476 1158 CURVE SMOOTH",
"1476 1002 OFFCURVE",
"1376 916 OFFCURVE",
"1258 916 CURVE SMOOTH",
"1144 916 OFFCURVE",
"1034 968 OFFCURVE",
"1034 1102 CURVE SMOOTH"
);
},
{
closed = 1;
nodes = (
"644 1118 OFFCURVE",
"651 1099 OFFCURVE",
"662 1083 CURVE SMOOTH",
"684 1052 OFFCURVE",
"699 1036 OFFCURVE",
"712 1083 CURVE SMOOTH",
"764 1267 LINE SMOOTH",
"776 1310 OFFCURVE",
"779 1318 OFFCURVE",
"737 1297 CURVE SMOOTH",
"674 1266 OFFCURVE",
"644 1212 OFFCURVE",
"644 1140 CURVE SMOOTH"
);
},
{
closed = 1;
nodes = (
"924 441 OFFCURVE",
"889 480 OFFCURVE",
"834 509 CURVE SMOOTH",
"780 538 OFFCURVE",
"776 532 OFFCURVE",
"759 471 CURVE SMOOTH",
"691 229 LINE SMOOTH",
"675 171 OFFCURVE",
"685 174 OFFCURVE",
"745 188 CURVE SMOOTH",
"862 215 OFFCURVE",
"924 278 OFFCURVE",
"924 380 CURVE SMOOTH"
);
}
);
vertWidth = 0;
width = 1506;
},
{
layerId = "6A50D5EA-2B4A-4D44-BCCC-14A16F5631EA";
paths = (
{
closed = 1;
nodes = (
"1034 1194 OFFCURVE",
"1118 1204 OFFCURVE",
"1118 1250 CURVE SMOOTH",
"1118 1282 OFFCURVE",
"1108 1303 OFFCURVE",
"1067 1315 CURVE SMOOTH",
"1028 1326 OFFCURVE",
"997 1314 OFFCURVE",
"985 1271 CURVE SMOOTH",
"919 1035 LINE SMOOTH",
"903 980 OFFCURVE",
"894 974 OFFCURVE",
"951 957 CURVE SMOOTH",
"1162 896 OFFCURVE",
"1404 806 OFFCURVE",
"1404 490 CURVE SMOOTH",
"1404 208 OFFCURVE",
"1012 -11 OFFCURVE",
"665 -37 CURVE SMOOTH",
"622 -40 OFFCURVE",
"615 -37 OFFCURVE",
"605 -73 CURVE SMOOTH",
"588 -135 LINE SMOOTH",
"580 -163 OFFCURVE",
"573 -170 OFFCURVE",
"535 -170 CURVE SMOOTH",
"403 -170 LINE SMOOTH",
"361 -170 OFFCURVE",
"359 -163 OFFCURVE",
"369 -129 CURVE SMOOTH",
"389 -59 LINE SMOOTH",
"400 -20 OFFCURVE",
"396 -24 OFFCURVE",
"357 -15 CURVE SMOOTH",
"69 53 OFFCURVE",
"0 246 OFFCURVE",
"0 392 CURVE SMOOTH",
"0 528 OFFCURVE",
"80 634 OFFCURVE",
"218 634 CURVE SMOOTH",
"352 634 OFFCURVE",
"422 562 OFFCURVE",
"422 448 CURVE SMOOTH",
"422 316 OFFCURVE",
"338 340 OFFCURVE",
"338 280 CURVE SMOOTH",
"338 243 OFFCURVE",
"359 210 OFFCURVE",
"427 191 CURVE SMOOTH",
"457 183 OFFCURVE",
"459 186 OFFCURVE",
"467 215 CURVE SMOOTH",
"562 554 LINE SMOOTH",
"573 592 OFFCURVE",
"545 601 OFFCURVE",
"511 612 CURVE SMOOTH",
"331 669 OFFCURVE",
"170 758 OFFCURVE",
"170 1016 CURVE SMOOTH",
"170 1314 OFFCURVE",
"498 1493 OFFCURVE",
"769 1532 CURVE SMOOTH",
"828 1541 OFFCURVE",
"839 1533 OFFCURVE",
"854 1585 CURVE SMOOTH",
"868 1635 LINE SMOOTH",
"876 1664 OFFCURVE",
"889 1670 OFFCURVE",
"925 1670 CURVE SMOOTH",
"1035 1670 LINE SMOOTH",
"1088 1670 OFFCURVE",
"1099 1668 OFFCURVE",
"1086 1623 CURVE SMOOTH",
"1070 1571 LINE SMOOTH",
"1055 1516 OFFCURVE",
"1065 1524 OFFCURVE",
"1119 1510 CURVE SMOOTH",
"1307 1462 OFFCURVE",
"1476 1354 OFFCURVE",
"1476 1158 CURVE SMOOTH",
"1476 1002 OFFCURVE",
"1376 916 OFFCURVE",
"1258 916 CURVE SMOOTH",
"1144 916 OFFCURVE",
"1034 968 OFFCURVE",
"1034 1102 CURVE SMOOTH"
);
},
{
closed = 1;
nodes = (
"644 1118 OFFCURVE",
"651 1099 OFFCURVE",
"662 1083 CURVE SMOOTH",
"684 1052 OFFCURVE",
"699 1036 OFFCURVE",
"712 1083 CURVE SMOOTH",
"764 1267 LINE SMOOTH",
"776 1310 OFFCURVE",
"779 1318 OFFCURVE",
"737 1297 CURVE SMOOTH",
"674 1266 OFFCURVE",
"644 1212 OFFCURVE",
"644 1140 CURVE SMOOTH"
);
},
{
closed = 1;
nodes = (
"924 441 OFFCURVE",
"889 480 OFFCURVE",
"834 509 CURVE SMOOTH",
"780 538 OFFCURVE",
"776 532 OFFCURVE",
"759 471 CURVE SMOOTH",
"691 229 LINE SMOOTH",
"675 171 OFFCURVE",
"685 174 OFFCURVE",
"745 188 CURVE SMOOTH",
"862 215 OFFCURVE",
"924 278 OFFCURVE",
"924 380 CURVE SMOOTH"
);
}
);
vertWidth = 0;
width = 1506;
},
{
layerId = "5A070E73-1DB9-476B-9E26-8EFE8B60F44F";
paths = (
{
closed = 1;
nodes = (
"1026 1214 OFFCURVE",
"1090 1224 OFFCURVE",
"1090 1270 CURVE SMOOTH",
"1090 1317 OFFCURVE",
"1049 1385 OFFCURVE",
"934 1409 CURVE SMOOTH",
"914 1413 OFFCURVE",
"916 1407 OFFCURVE",
"911 1390 CURVE SMOOTH",
"778 920 LINE SMOOTH",
"760 857 OFFCURVE",
"763 857 OFFCURVE",
"818 831 CURVE SMOOTH",
"982 752 OFFCURVE",
"1140 651 OFFCURVE",
"1140 410 CURVE SMOOTH",
"1140 131 OFFCURVE",
"901 -11 OFFCURVE",
"544 -19 CURVE SMOOTH",
"514 -20 OFFCURVE",
"513 -20 OFFCURVE",
"506 -44 CURVE SMOOTH",
"475 -152 LINE SMOOTH",
"470 -171 OFFCURVE",
"466 -170 OFFCURVE",
"442 -170 CURVE SMOOTH",
"377 -170 LINE SMOOTH",
"347 -170 OFFCURVE",
"351 -168 OFFCURVE",
"357 -146 CURVE SMOOTH",
"389 -31 LINE SMOOTH",
"395 -10 OFFCURVE",
"396 -10 OFFCURVE",
"373 -6 CURVE SMOOTH",
"108 41 OFFCURVE",
"12 200 OFFCURVE",
"12 352 CURVE SMOOTH",
"12 448 OFFCURVE",
"82 504 OFFCURVE",
"140 504 CURVE SMOOTH",
"194 504 OFFCURVE",
"254 462 OFFCURVE",
"254 388 CURVE SMOOTH",
"254 316 OFFCURVE",
"190 306 OFFCURVE",
"190 260 CURVE SMOOTH",
"190 215 OFFCURVE",
"227 134 OFFCURVE",
"379 100 CURVE SMOOTH",
"409 93 OFFCURVE",
"422 85 OFFCURVE",
"431 116 CURVE SMOOTH",
"588 671 LINE SMOOTH",
"598 708 OFFCURVE",
"592 707 OFFCURVE",
"561 722 CURVE SMOOTH",
"413 795 OFFCURVE",
"280 888 OFFCURVE",
"280 1100 CURVE SMOOTH",
"280 1333 OFFCURVE",
"522 1506 OFFCURVE",
"796 1519 CURVE SMOOTH",
"826 1520 OFFCURVE",
"827 1520 OFFCURVE",
"834 1544 CURVE SMOOTH",
"865 1651 LINE SMOOTH",
"870 1668 OFFCURVE",
"869 1670 OFFCURVE",
"891 1670 CURVE SMOOTH",
"960 1670 LINE SMOOTH",
"988 1670 OFFCURVE",
"987 1660 OFFCURVE",
"982 1641 CURVE SMOOTH",
"950 1530 LINE SMOOTH",
"943 1504 OFFCURVE",
"953 1508 OFFCURVE",
"978 1502 CURVE SMOOTH",
"1149 1460 OFFCURVE",
"1268 1345 OFFCURVE",
"1268 1158 CURVE SMOOTH",
"1268 1062 OFFCURVE",
"1198 1026 OFFCURVE",
"1140 1026 CURVE SMOOTH",
"1086 1026 OFFCURVE",
"1026 1068 OFFCURVE",
"1026 1142 CURVE SMOOTH"
);
},
{
closed = 1;
nodes = (
"460 1039 OFFCURVE",
"532 975 OFFCURVE",
"630 922 CURVE SMOOTH",
"658 907 OFFCURVE",
"656 912 OFFCURVE",
"665 944 CURVE SMOOTH",
"791 1392 LINE SMOOTH",
"797 1414 OFFCURVE",
"802 1418 OFFCURVE",
"774 1415 CURVE SMOOTH",
"594 1398 OFFCURVE",
"460 1309 OFFCURVE",
"460 1150 CURVE SMOOTH"
);
},
{
closed = 1;
nodes = (
"960 493 OFFCURVE",
"866 571 OFFCURVE",
"747 633 CURVE SMOOTH",
"704 655 OFFCURVE",
"703 656 OFFCURVE",
"689 606 CURVE SMOOTH",
"548 106 LINE SMOOTH",
"541 81 OFFCURVE",
"546 84 OFFCURVE",
"576 85 CURVE SMOOTH",
"825 95 OFFCURVE",
"960 208 OFFCURVE",
"960 340 CURVE SMOOTH"
);
}
);
vertWidth = 0;
width = 1320;
}
);
unicode = 0024;
},
{
glyphname = percent;
layers = (
{
layerId = "C788331E-5670-44D3-9D66-EAA382172B0D";
paths = (
{
closed = 1;
nodes = (
"201 1366 OFFCURVE",
"387 1520 OFFCURVE",
"613 1520 CURVE SMOOTH",
"839 1520 OFFCURVE",
"1001 1366 OFFCURVE",
"940 1080 CURVE SMOOTH",
"879 794 OFFCURVE",
"642 640 OFFCURVE",
"456 640 CURVE SMOOTH",
"230 640 OFFCURVE",
"79 794 OFFCURVE",
"140 1080 CURVE SMOOTH"
);
},
{
closed = 1;
nodes = (
"317 876 OFFCURVE",
"319 740 OFFCURVE",
"467 740 CURVE SMOOTH",
"615 740 OFFCURVE",
"677 876 OFFCURVE",
"720 1080 CURVE SMOOTH",
"763 1284 OFFCURVE",
"760 1420 OFFCURVE",
"612 1420 CURVE SMOOTH",
"464 1420 OFFCURVE",
"403 1284 OFFCURVE",
"360 1080 CURVE SMOOTH"
);
},
{
closed = 1;
nodes = (
"1646 1500 LINE SMOOTH",
"1681 1500 OFFCURVE",
"1677 1490 OFFCURVE",
"1658 1468 CURVE SMOOTH",
"471 28 LINE SMOOTH",
"454 7 OFFCURVE",
"442 0 OFFCURVE",
"407 0 CURVE SMOOTH",
"354 0 LINE SMOOTH",
"315 0 OFFCURVE",
"329 23 OFFCURVE",
"344 41 CURVE SMOOTH",
"1542 1478 LINE SMOOTH",
"1553 1492 OFFCURVE",
"1566 1500 OFFCURVE",
"1589 1500 CURVE SMOOTH"
);
},
{
closed = 1;
nodes = (
"1120 706 OFFCURVE",
"1307 860 OFFCURVE",
"1533 860 CURVE SMOOTH",
"1759 860 OFFCURVE",
"1920 706 OFFCURVE",
"1859 420 CURVE SMOOTH",
"1798 134 OFFCURVE",
"1572 -20 OFFCURVE",
"1386 -20 CURVE SMOOTH",
"1160 -20 OFFCURVE",
"998 134 OFFCURVE",
"1059 420 CURVE SMOOTH"
);
},
{
closed = 1;
nodes = (
"1236 216 OFFCURVE",
"1239 80 OFFCURVE",
"1387 80 CURVE SMOOTH",
"1535 80 OFFCURVE",
"1596 216 OFFCURVE",
"1639 420 CURVE SMOOTH",
"1682 624 OFFCURVE",
"1680 760 OFFCURVE",
"1532 760 CURVE SMOOTH",
"1384 760 OFFCURVE",
"1322 624 OFFCURVE",
"1279 420 CURVE SMOOTH"
);
}
);
vertWidth = 0;
width = 2000;
},
{
layerId = "166B8CC3-B8B2-42DF-8AC5-58EF4CD93FB2";
paths = (
{
closed = 1;
nodes = (
"181 1366 OFFCURVE",
"397 1540 OFFCURVE",
"683 1540 CURVE SMOOTH",
"909 1540 OFFCURVE",
"1141 1366 OFFCURVE",
"1080 1080 CURVE SMOOTH",
"1019 794 OFFCURVE",
"742 620 OFFCURVE",
"496 620 CURVE SMOOTH",
"270 620 OFFCURVE",
"59 794 OFFCURVE",
"120 1080 CURVE SMOOTH"
);
},
{
closed = 1;
nodes = (
"467 876 OFFCURVE",
"479 790 OFFCURVE",
"547 790 CURVE SMOOTH",
"615 790 OFFCURVE",
"647 876 OFFCURVE",
"690 1080 CURVE SMOOTH",
"733 1284 OFFCURVE",
"730 1370 OFFCURVE",
"662 1370 CURVE SMOOTH",
"594 1370 OFFCURVE",
"553 1284 OFFCURVE",
"510 1080 CURVE SMOOTH"
);
},
{
closed = 1;
nodes = (
"1816 1496 LINE SMOOTH",
"1851 1496 OFFCURVE",
"1846 1486 OFFCURVE",
"1828 1464 CURVE SMOOTH",
"621 24 LINE SMOOTH",
"604 3 OFFCURVE",
"592 -4 OFFCURVE",
"557 -4 CURVE SMOOTH",
"404 -4 LINE SMOOTH",
"365 -4 OFFCURVE",
"379 19 OFFCURVE",
"394 37 CURVE SMOOTH",
"1612 1474 LINE SMOOTH",
"1623 1488 OFFCURVE",
"1636 1496 OFFCURVE",
"1659 1496 CURVE SMOOTH"
);
},
{
closed = 1;
nodes = (
"1200 706 OFFCURVE",
"1427 880 OFFCURVE",
"1703 880 CURVE SMOOTH",
"1929 880 OFFCURVE",
"2160 706 OFFCURVE",
"2099 420 CURVE SMOOTH",
"2038 134 OFFCURVE",
"1762 -40 OFFCURVE",
"1536 -40 CURVE SMOOTH",
"1310 -40 OFFCURVE",
"1078 134 OFFCURVE",
"1139 420 CURVE SMOOTH"
);
},
{
closed = 1;
nodes = (
"1486 216 OFFCURVE",
"1509 130 OFFCURVE",
"1577 130 CURVE SMOOTH",
"1645 130 OFFCURVE",
"1666 216 OFFCURVE",
"1709 420 CURVE SMOOTH",
"1752 624 OFFCURVE",
"1740 710 OFFCURVE",
"1672 710 CURVE SMOOTH",
"1604 710 OFFCURVE",
"1572 624 OFFCURVE",
"1529 420 CURVE SMOOTH"
);
}
);
vertWidth = 0;
width = 2260;
},
{
layerId = "6A50D5EA-2B4A-4D44-BCCC-14A16F5631EA";
paths = (
{
closed = 1;
nodes = (
"242 1366 OFFCURVE",
"383 1530 OFFCURVE",
"679 1530 CURVE SMOOTH",
"975 1530 OFFCURVE",
"1042 1366 OFFCURVE",
"979 1080 CURVE SMOOTH",
"916 794 OFFCURVE",
"736 630 OFFCURVE",
"480 630 CURVE SMOOTH",
"184 630 OFFCURVE",
"116 794 OFFCURVE",
"179 1080 CURVE SMOOTH"
);
},
{
closed = 1;
nodes = (
"495 836 OFFCURVE",
"492 810 OFFCURVE",
"520 810 CURVE SMOOTH",
"548 810 OFFCURVE",
"555 836 OFFCURVE",
"609 1080 CURVE SMOOTH",
"663 1324 OFFCURVE",
"667 1350 OFFCURVE",
"639 1350 CURVE SMOOTH",
"611 1350 OFFCURVE",
"603 1324 OFFCURVE",
"549 1080 CURVE SMOOTH"
);
},
{
closed = 1;
nodes = (
"1606 1500 LINE SMOOTH",
"1670 1500 OFFCURVE",
"1678 1490 OFFCURVE",
"1647 1450 CURVE SMOOTH",
"559 24 LINE SMOOTH",
"539 -2 OFFCURVE",
"509 0 OFFCURVE",
"467 0 CURVE SMOOTH",
"417 0 LINE SMOOTH",
"337 0 OFFCURVE",
"332 18 OFFCURVE",
"363 58 CURVE SMOOTH",
"1440 1462 LINE SMOOTH",
"1461 1490 OFFCURVE",
"1487 1500 OFFCURVE",
"1534 1500 CURVE SMOOTH"
);
},
{
closed = 1;
nodes = (
"1116 706 OFFCURVE",
"1257 870 OFFCURVE",
"1553 870 CURVE SMOOTH",
"1849 870 OFFCURVE",
"1916 706 OFFCURVE",
"1853 420 CURVE SMOOTH",
"1790 134 OFFCURVE",
"1609 -30 OFFCURVE",
"1353 -30 CURVE SMOOTH",
"1057 -30 OFFCURVE",
"990 134 OFFCURVE",
"1053 420 CURVE SMOOTH"
);
},
{
closed = 1;
nodes = (
"1369 176 OFFCURVE",
"1365 150 OFFCURVE",
"1393 150 CURVE SMOOTH",
"1421 150 OFFCURVE",
"1429 176 OFFCURVE",
"1483 420 CURVE SMOOTH",
"1537 664 OFFCURVE",
"1541 690 OFFCURVE",
"1513 690 CURVE SMOOTH",
"1485 690 OFFCURVE",
"1477 664 OFFCURVE",
"1423 420 CURVE SMOOTH"
);
}
);
vertWidth = 0;
width = 1960;
},
{
layerId = "5A070E73-1DB9-476B-9E26-8EFE8B60F44F";
paths = (
{
closed = 1;
nodes = (
"242 1366 OFFCURVE",
"381 1520 OFFCURVE",
"577 1520 CURVE SMOOTH",
"773 1520 OFFCURVE",
"842 1366 OFFCURVE",
"779 1080 CURVE SMOOTH",
"716 794 OFFCURVE",
"538 640 OFFCURVE",
"382 640 CURVE SMOOTH",
"186 640 OFFCURVE",
"116 794 OFFCURVE",
"179 1080 CURVE SMOOTH"
);
},
{
closed = 1;
nodes = (
"323 826 OFFCURVE",
"336 740 OFFCURVE",
"404 740 CURVE SMOOTH",
"472 740 OFFCURVE",
"523 826 OFFCURVE",
"579 1080 CURVE SMOOTH",
"635 1334 OFFCURVE",
"623 1420 OFFCURVE",
"555 1420 CURVE SMOOTH",
"487 1420 OFFCURVE",
"435 1334 OFFCURVE",
"379 1080 CURVE SMOOTH"
);
},
{
closed = 1;
nodes = (
"1355 1500 LINE SMOOTH",
"1390 1500 OFFCURVE",
"1385 1490 OFFCURVE",
"1366 1468 CURVE SMOOTH",
"316 28 LINE SMOOTH",
"298 7 OFFCURVE",
"287 0 OFFCURVE",
"252 0 CURVE SMOOTH",
"209 0 LINE SMOOTH",
"170 0 OFFCURVE",
"184 23 OFFCURVE",
"199 41 CURVE SMOOTH",
"1261 1478 LINE SMOOTH",
"1272 1492 OFFCURVE",
"1285 1500 OFFCURVE",
"1308 1500 CURVE SMOOTH"
);
},
{
closed = 1;
nodes = (
"851 706 OFFCURVE",
"990 860 OFFCURVE",
"1186 860 CURVE SMOOTH",
"1382 860 OFFCURVE",
"1451 706 OFFCURVE",
"1388 420 CURVE SMOOTH",
"1325 134 OFFCURVE",
"1147 -20 OFFCURVE",
"991 -20 CURVE SMOOTH",
"795 -20 OFFCURVE",
"725 134 OFFCURVE",
"788 420 CURVE SMOOTH"
);
},
{
closed = 1;
nodes = (
"932 166 OFFCURVE",
"945 80 OFFCURVE",
"1013 80 CURVE SMOOTH",
"1081 80 OFFCURVE",
"1132 166 OFFCURVE",
"1188 420 CURVE SMOOTH",
"1244 674 OFFCURVE",
"1231 760 OFFCURVE",
"1163 760 CURVE SMOOTH",
"1095 760 OFFCURVE",
"1044 674 OFFCURVE",
"988 420 CURVE SMOOTH"
);
}
);
vertWidth = 0;
width = 1495;
}
);
unicode = 0025;
},
{
glyphname = ampersand;
layers = (
{
layerId = "C788331E-5670-44D3-9D66-EAA382172B0D";
paths = (
{
closed = 1;
nodes = (
"1286 728 OFFCURVE",
"1248 776 OFFCURVE",
"1248 852 CURVE SMOOTH",
"1248 912 OFFCURVE",
"1300 978 OFFCURVE",
"1398 978 CURVE SMOOTH",
"1534 978 OFFCURVE",
"1580 892 OFFCURVE",
"1580 770 CURVE SMOOTH",
"1580 607 OFFCURVE",
"1379 365 OFFCURVE",
"1103 192 CURVE SMOOTH",
"1079 177 OFFCURVE",
"1078 175 OFFCURVE",
"1090 147 CURVE SMOOTH",
"1113 93 OFFCURVE",
"1141 64 OFFCURVE",
"1206 64 CURVE SMOOTH",
"1264 64 OFFCURVE",
"1301 96 OFFCURVE",
"1339 158 CURVE SMOOTH",
"1345 169 OFFCURVE",
"1345 170 OFFCURVE",
"1358 165 CURVE SMOOTH",
"1402 147 LINE SMOOTH",
"1424 138 OFFCURVE",
"1418 132 OFFCURVE",
"1408 111 CURVE SMOOTH",
"1369 29 OFFCURVE",
"1281 -60 OFFCURVE",
"1122 -60 CURVE SMOOTH",
"1024 -60 OFFCURVE",
"956 -12 OFFCURVE",
"906 60 CURVE SMOOTH",
"893 79 OFFCURVE",
"894 82 OFFCURVE",
"870 72 CURVE SMOOTH",
"732 15 OFFCURVE",
"584 -20 OFFCURVE",
"440 -20 CURVE SMOOTH",
"154 -20 OFFCURVE",
"2 114 OFFCURVE",
"2 320 CURVE SMOOTH",
"2 628 OFFCURVE",
"258 760 OFFCURVE",
"523 868 CURVE SMOOTH",
"573 888 OFFCURVE",
"570 890 OFFCURVE",
"550 940 CURVE SMOOTH",
"516 1024 OFFCURVE",
"498 1096 OFFCURVE",
"498 1166 CURVE SMOOTH",
"498 1346 OFFCURVE",
"688 1520 OFFCURVE",
"980 1520 CURVE SMOOTH",
"1154 1520 OFFCURVE",
"1292 1470 OFFCURVE",
"1292 1310 CURVE SMOOTH",
"1292 1101 OFFCURVE",
"1102 999 OFFCURVE",
"882 909 CURVE SMOOTH",
"810 880 OFFCURVE",
"809 880 OFFCURVE",
"837 806 CURVE SMOOTH",
"1029 308 LINE SMOOTH",
"1042 273 OFFCURVE",
"1042 271 OFFCURVE",
"1072 290 CURVE SMOOTH",
"1302 434 OFFCURVE",
"1462 627 OFFCURVE",
"1462 718 CURVE SMOOTH",
"1462 750 OFFCURVE",
"1458 760 OFFCURVE",
"1442 760 CURVE SMOOTH",
"1418 760 OFFCURVE",
"1424 728 OFFCURVE",
"1356 728 CURVE SMOOTH"
);
},
{
closed = 1;
nodes = (
"222 216 OFFCURVE",
"302 110 OFFCURVE",
"510 110 CURVE SMOOTH",
"615 110 OFFCURVE",
"718 131 OFFCURVE",
"817 166 CURVE SMOOTH",
"847 177 OFFCURVE",
"845 178 OFFCURVE",
"834 207 CURVE SMOOTH",
"623 752 LINE SMOOTH",
"601 808 OFFCURVE",
"589 790 OFFCURVE",
"540 766 CURVE SMOOTH",
"362 678 OFFCURVE",
"222 562 OFFCURVE",
"222 360 CURVE SMOOTH"
);
},
{
closed = 1;
nodes = (
"1104 1394 OFFCURVE",
"1064 1440 OFFCURVE",
"978 1440 CURVE SMOOTH",
"804 1440 OFFCURVE",
"708 1346 OFFCURVE",
"708 1240 CURVE SMOOTH",
"708 1182 OFFCURVE",
"725 1110 OFFCURVE",
"761 1008 CURVE SMOOTH",
"777 964 OFFCURVE",
"783 972 OFFCURVE",
"822 991 CURVE SMOOTH",
"983 1068 OFFCURVE",
"1104 1161 OFFCURVE",
"1104 1320 CURVE SMOOTH"
);
}
);
vertWidth = 0;
width = 1740;
},
{
layerId = "166B8CC3-B8B2-42DF-8AC5-58EF4CD93FB2";
paths = (
{
closed = 1;
nodes = (
"1276 648 OFFCURVE",
"1228 716 OFFCURVE",
"1228 812 CURVE SMOOTH",
"1228 952 OFFCURVE",
"1380 1018 OFFCURVE",
"1518 1018 CURVE SMOOTH",
"1694 1018 OFFCURVE",
"1780 912 OFFCURVE",
"1780 750 CURVE SMOOTH",
"1780 592 OFFCURVE",
"1602 400 OFFCURVE",
"1351 246 CURVE SMOOTH",
"1311 222 OFFCURVE",
"1283 203 OFFCURVE",
"1349 187 CURVE SMOOTH",
"1365 183 OFFCURVE",
"1385 182 OFFCURVE",
"1408 182 CURVE SMOOTH",
"1440 182 OFFCURVE",
"1480 202 OFFCURVE",
"1515 242 CURVE SMOOTH",
"1542 273 OFFCURVE",
"1539 294 OFFCURVE",
"1577 266 CURVE SMOOTH",
"1689 183 LINE SMOOTH",
"1718 161 OFFCURVE",
"1722 160 OFFCURVE",
"1699 129 CURVE SMOOTH",
"1605 1 OFFCURVE",
"1446 -70 OFFCURVE",
"1262 -70 CURVE SMOOTH",
"1165 -70 OFFCURVE",
"1057 -49 OFFCURVE",
"972 24 CURVE SMOOTH",
"933 58 OFFCURVE",
"921 47 OFFCURVE",
"864 31 CURVE SMOOTH",
"729 -8 OFFCURVE",
"591 -30 OFFCURVE",
"460 -30 CURVE SMOOTH",
"174 -30 OFFCURVE",
"2 114 OFFCURVE",
"2 320 CURVE SMOOTH",
"2 607 OFFCURVE",
"207 733 OFFCURVE",
"438 827 CURVE SMOOTH",
"492 849 OFFCURVE",
"502 845 OFFCURVE",
"474 896 CURVE SMOOTH",
"430 977 OFFCURVE",
"398 1078 OFFCURVE",
"398 1166 CURVE SMOOTH",
"398 1406 OFFCURVE",
"708 1540 OFFCURVE",
"1080 1540 CURVE SMOOTH",
"1334 1540 OFFCURVE",
"1512 1458 OFFCURVE",
"1512 1310 CURVE SMOOTH",
"1512 1077 OFFCURVE",
"1280 986 OFFCURVE",
"1034 894 CURVE SMOOTH",
"968 869 OFFCURVE",
"961 872 OFFCURVE",
"993 810 CURVE SMOOTH",
"1176 452 LINE SMOOTH",
"1204 397 OFFCURVE",
"1204 391 OFFCURVE",
"1255 426 CURVE SMOOTH",
"1390 520 OFFCURVE",
"1470 615 OFFCURVE",
"1470 642 CURVE SMOOTH",
"1470 654 OFFCURVE",
"1468 660 OFFCURVE",
"1458 660 CURVE SMOOTH",
"1440 660 OFFCURVE",
"1434 648 OFFCURVE",
"1366 648 CURVE SMOOTH"
);
},
{
closed = 1;
nodes = (
"462 256 OFFCURVE",
"522 220 OFFCURVE",
"630 220 CURVE SMOOTH",
"682 220 OFFCURVE",
"733 224 OFFCURVE",
"782 232 CURVE SMOOTH",
"842 241 OFFCURVE",
"827 250 OFFCURVE",
"804 292 CURVE SMOOTH",
"623 623 LINE SMOOTH",
"591 681 OFFCURVE",
"585 671 OFFCURVE",
"545 622 CURVE SMOOTH",
"493 558 OFFCURVE",
"462 480 OFFCURVE",
"462 380 CURVE SMOOTH"
);
},
{
closed = 1;
nodes = (
"1084 1344 OFFCURVE",
"1072 1380 OFFCURVE",
"1026 1380 CURVE SMOOTH",
"952 1380 OFFCURVE",
"848 1326 OFFCURVE",
"848 1220 CURVE SMOOTH",
"848 1175 OFFCURVE",
"858 1130 OFFCURVE",
"879 1067 CURVE SMOOTH",
"895 1019 OFFCURVE",
"897 1015 OFFCURVE",
"937 1044 CURVE SMOOTH",
"1026 1108 OFFCURVE",
"1084 1190 OFFCURVE",
"1084 1310 CURVE SMOOTH"
);
}
);
vertWidth = 0;
width = 1840;
},
{
layerId = "6A50D5EA-2B4A-4D44-BCCC-14A16F5631EA";
paths = (
{
closed = 1;
nodes = (
"1276 648 OFFCURVE",
"1228 716 OFFCURVE",
"1228 812 CURVE SMOOTH",
"1228 952 OFFCURVE",
"1380 1018 OFFCURVE",
"1518 1018 CURVE SMOOTH",
"1694 1018 OFFCURVE",
"1780 912 OFFCURVE",
"1780 750 CURVE SMOOTH",
"1780 592 OFFCURVE",
"1602 400 OFFCURVE",
"1351 246 CURVE SMOOTH",
"1311 222 OFFCURVE",
"1283 203 OFFCURVE",
"1349 187 CURVE SMOOTH",
"1365 183 OFFCURVE",
"1385 182 OFFCURVE",
"1408 182 CURVE SMOOTH",
"1440 182 OFFCURVE",
"1480 202 OFFCURVE",
"1515 242 CURVE SMOOTH",
"1542 273 OFFCURVE",
"1539 294 OFFCURVE",
"1577 266 CURVE SMOOTH",
"1689 183 LINE SMOOTH",
"1718 161 OFFCURVE",
"1722 160 OFFCURVE",
"1699 129 CURVE SMOOTH",
"1605 1 OFFCURVE",
"1446 -70 OFFCURVE",
"1262 -70 CURVE SMOOTH",
"1165 -70 OFFCURVE",
"1057 -49 OFFCURVE",
"972 24 CURVE SMOOTH",
"933 58 OFFCURVE",
"921 47 OFFCURVE",
"864 31 CURVE SMOOTH",
"729 -8 OFFCURVE",
"591 -30 OFFCURVE",
"460 -30 CURVE SMOOTH",
"174 -30 OFFCURVE",
"2 114 OFFCURVE",
"2 320 CURVE SMOOTH",
"2 607 OFFCURVE",
"207 733 OFFCURVE",
"438 827 CURVE SMOOTH",
"492 849 OFFCURVE",
"502 845 OFFCURVE",
"474 896 CURVE SMOOTH",
"430 977 OFFCURVE",
"398 1078 OFFCURVE",
"398 1166 CURVE SMOOTH",
"398 1406 OFFCURVE",
"708 1540 OFFCURVE",
"1080 1540 CURVE SMOOTH",
"1334 1540 OFFCURVE",
"1512 1458 OFFCURVE",
"1512 1310 CURVE SMOOTH",
"1512 1077 OFFCURVE",
"1280 986 OFFCURVE",
"1034 894 CURVE SMOOTH",
"968 869 OFFCURVE",
"961 872 OFFCURVE",
"993 810 CURVE SMOOTH",
"1176 452 LINE SMOOTH",
"1204 397 OFFCURVE",
"1204 391 OFFCURVE",
"1255 426 CURVE SMOOTH",
"1390 520 OFFCURVE",
"1470 615 OFFCURVE",
"1470 642 CURVE SMOOTH",
"1470 654 OFFCURVE",
"1468 660 OFFCURVE",
"1458 660 CURVE SMOOTH",
"1440 660 OFFCURVE",
"1434 648 OFFCURVE",
"1366 648 CURVE SMOOTH"
);
},
{
closed = 1;
nodes = (
"462 256 OFFCURVE",
"522 220 OFFCURVE",
"630 220 CURVE SMOOTH",
"682 220 OFFCURVE",
"733 224 OFFCURVE",
"782 232 CURVE SMOOTH",
"842 241 OFFCURVE",
"827 250 OFFCURVE",
"804 292 CURVE SMOOTH",
"623 623 LINE SMOOTH",
"591 681 OFFCURVE",
"585 671 OFFCURVE",
"545 622 CURVE SMOOTH",
"493 558 OFFCURVE",
"462 480 OFFCURVE",
"462 380 CURVE SMOOTH"
);
},
{
closed = 1;
nodes = (
"1084 1344 OFFCURVE",
"1072 1380 OFFCURVE",
"1026 1380 CURVE SMOOTH",
"952 1380 OFFCURVE",
"848 1326 OFFCURVE",
"848 1220 CURVE SMOOTH",
"848 1175 OFFCURVE",
"858 1130 OFFCURVE",
"879 1067 CURVE SMOOTH",
"895 1019 OFFCURVE",
"897 1015 OFFCURVE",
"937 1044 CURVE SMOOTH",
"1026 1108 OFFCURVE",
"1084 1190 OFFCURVE",
"1084 1310 CURVE SMOOTH"
);
}
);
vertWidth = 0;
width = 1840;
},
{
layerId = "5A070E73-1DB9-476B-9E26-8EFE8B60F44F";
paths = (
{
closed = 1;
nodes = (
"1286 728 OFFCURVE",
"1248 776 OFFCURVE",
"1248 852 CURVE SMOOTH",
"1248 912 OFFCURVE",
"1300 978 OFFCURVE",
"1398 978 CURVE SMOOTH",
"1534 978 OFFCURVE",
"1580 892 OFFCURVE",
"1580 770 CURVE SMOOTH",
"1580 607 OFFCURVE",
"1379 365 OFFCURVE",
"1103 192 CURVE SMOOTH",
"1079 177 OFFCURVE",
"1078 175 OFFCURVE",
"1090 147 CURVE SMOOTH",
"1113 93 OFFCURVE",
"1141 64 OFFCURVE",
"1206 64 CURVE SMOOTH",
"1264 64 OFFCURVE",
"1301 96 OFFCURVE",
"1339 158 CURVE SMOOTH",
"1345 169 OFFCURVE",
"1345 170 OFFCURVE",
"1358 165 CURVE SMOOTH",
"1402 147 LINE SMOOTH",
"1424 138 OFFCURVE",
"1418 132 OFFCURVE",
"1408 111 CURVE SMOOTH",
"1369 29 OFFCURVE",
"1281 -60 OFFCURVE",
"1122 -60 CURVE SMOOTH",
"1024 -60 OFFCURVE",
"956 -12 OFFCURVE",
"906 60 CURVE SMOOTH",
"893 79 OFFCURVE",
"894 82 OFFCURVE",
"870 72 CURVE SMOOTH",
"732 15 OFFCURVE",
"584 -20 OFFCURVE",
"440 -20 CURVE SMOOTH",
"154 -20 OFFCURVE",
"2 114 OFFCURVE",
"2 320 CURVE SMOOTH",
"2 628 OFFCURVE",
"258 760 OFFCURVE",
"523 868 CURVE SMOOTH",
"573 888 OFFCURVE",
"570 890 OFFCURVE",
"550 940 CURVE SMOOTH",
"516 1024 OFFCURVE",
"498 1096 OFFCURVE",
"498 1166 CURVE SMOOTH",
"498 1346 OFFCURVE",
"688 1520 OFFCURVE",
"980 1520 CURVE SMOOTH",
"1154 1520 OFFCURVE",
"1292 1470 OFFCURVE",
"1292 1310 CURVE SMOOTH",
"1292 1101 OFFCURVE",
"1102 999 OFFCURVE",
"882 909 CURVE SMOOTH",
"810 880 OFFCURVE",
"809 880 OFFCURVE",
"837 806 CURVE SMOOTH",
"1029 308 LINE SMOOTH",
"1042 273 OFFCURVE",
"1042 271 OFFCURVE",
"1072 290 CURVE SMOOTH",
"1302 434 OFFCURVE",
"1462 627 OFFCURVE",
"1462 718 CURVE SMOOTH",
"1462 750 OFFCURVE",
"1458 760 OFFCURVE",
"1442 760 CURVE SMOOTH",
"1418 760 OFFCURVE",
"1424 728 OFFCURVE",
"1356 728 CURVE SMOOTH"
);
},
{
closed = 1;
nodes = (
"222 216 OFFCURVE",
"302 110 OFFCURVE",
"510 110 CURVE SMOOTH",
"615 110 OFFCURVE",
"718 131 OFFCURVE",
"817 166 CURVE SMOOTH",
"847 177 OFFCURVE",
"845 178 OFFCURVE",
"834 207 CURVE SMOOTH",
"623 752 LINE SMOOTH",
"601 808 OFFCURVE",
"589 790 OFFCURVE",
"540 766 CURVE SMOOTH",
"362 678 OFFCURVE",
"222 562 OFFCURVE",
"222 360 CURVE SMOOTH"
);
},
{
closed = 1;
nodes = (
"1104 1394 OFFCURVE",
"1064 1440 OFFCURVE",
"978 1440 CURVE SMOOTH",
"804 1440 OFFCURVE",
"708 1346 OFFCURVE",
"708 1240 CURVE SMOOTH",
"708 1182 OFFCURVE",
"725 1110 OFFCURVE",
"761 1008 CURVE SMOOTH",
"777 964 OFFCURVE",
"783 972 OFFCURVE",
"822 991 CURVE SMOOTH",
"983 1068 OFFCURVE",
"1104 1161 OFFCURVE",
"1104 1320 CURVE SMOOTH"
);
}
);
vertWidth = 0;
width = 1740;
}
);
unicode = 0026;
},
{
glyphname = quotesingle;
layers = (
{
layerId = "C788331E-5670-44D3-9D66-EAA382172B0D";
paths = (
{
closed = 1;
nodes = (
"384 1236 OFFCURVE",
"296 1111 OFFCURVE",
"270 996 CURVE SMOOTH",
"267 983 OFFCURVE",
"266 976 OFFCURVE",
"250 976 CURVE SMOOTH",
"208 976 LINE SMOOTH",
"190 976 OFFCURVE",
"191 982 OFFCURVE",
"193 996 CURVE SMOOTH",
"210 1108 OFFCURVE",
"209 1214 OFFCURVE",
"218 1358 CURVE SMOOTH",
"224 1456 OFFCURVE",
"276 1516 OFFCURVE",
"348 1516 CURVE SMOOTH",
"400 1516 OFFCURVE",
"432 1482 OFFCURVE",
"432 1428 CURVE SMOOTH",
"432 1412 OFFCURVE",
"430 1396 OFFCURVE",
"424 1378 CURVE SMOOTH"
);
}
);
vertWidth = 0;
width = 398;
},
{
layerId = "166B8CC3-B8B2-42DF-8AC5-58EF4CD93FB2";
paths = (
{
closed = 1;
nodes = (
"502 1151 OFFCURVE",
"401 1075 OFFCURVE",
"374 966 CURVE SMOOTH",
"367 939 OFFCURVE",
"371 936 OFFCURVE",
"336 936 CURVE SMOOTH",
"266 936 LINE SMOOTH",
"228 936 OFFCURVE",
"232 941 OFFCURVE",
"229 974 CURVE SMOOTH",
"212 1163 OFFCURVE",
"180 1220 OFFCURVE",
"180 1344 CURVE SMOOTH",
"180 1482 OFFCURVE",
"298 1556 OFFCURVE",
"430 1556 CURVE SMOOTH",
"522 1556 OFFCURVE",
"634 1498 OFFCURVE",
"634 1374 CURVE SMOOTH",
"634 1321 OFFCURVE",
"607 1276 OFFCURVE",
"570 1232 CURVE SMOOTH"
);
}
);
vertWidth = 0;
width = 614;
},
{
layerId = "6A50D5EA-2B4A-4D44-BCCC-14A16F5631EA";
paths = (
{
closed = 1;
nodes = (
"502 1151 OFFCURVE",
"401 1075 OFFCURVE",
"374 966 CURVE SMOOTH",
"367 939 OFFCURVE",
"371 936 OFFCURVE",
"336 936 CURVE SMOOTH",
"266 936 LINE SMOOTH",
"228 936 OFFCURVE",
"232 941 OFFCURVE",
"229 974 CURVE SMOOTH",
"212 1163 OFFCURVE",
"180 1220 OFFCURVE",
"180 1344 CURVE SMOOTH",
"180 1482 OFFCURVE",
"298 1556 OFFCURVE",
"430 1556 CURVE SMOOTH",
"522 1556 OFFCURVE",
"634 1498 OFFCURVE",
"634 1374 CURVE SMOOTH",
"634 1321 OFFCURVE",
"607 1276 OFFCURVE",
"570 1232 CURVE SMOOTH"
);
}
);
vertWidth = 0;
width = 614;
},
{
layerId = "5A070E73-1DB9-476B-9E26-8EFE8B60F44F";
paths = (
{
closed = 1;
nodes = (
"384 1236 OFFCURVE",
"296 1111 OFFCURVE",
"270 996 CURVE SMOOTH",
"267 983 OFFCURVE",
"266 976 OFFCURVE",
"250 976 CURVE SMOOTH",
"208 976 LINE SMOOTH",
"190 976 OFFCURVE",
"191 982 OFFCURVE",
"193 996 CURVE SMOOTH",
"210 1108 OFFCURVE",
"209 1214 OFFCURVE",
"218 1358 CURVE SMOOTH",
"224 1456 OFFCURVE",
"276 1516 OFFCURVE",
"348 1516 CURVE SMOOTH",
"400 1516 OFFCURVE",
"432 1482 OFFCURVE",
"432 1428 CURVE SMOOTH",
"432 1412 OFFCURVE",
"430 1396 OFFCURVE",
"424 1378 CURVE SMOOTH"
);
}
);
vertWidth = 0;
width = 398;
}
);
leftKerningGroup = kc0_4;
rightKerningGroup = kc0_6;
unicode = 0027;
},
{
glyphname = parenleft;
layers = (
{
layerId = "C788331E-5670-44D3-9D66-EAA382172B0D";
paths = (
{
closed = 1;
nodes = (
"605 -313 LINE SMOOTH",
"598 -348 OFFCURVE",
"589 -337 OFFCURVE",
"561 -326 CURVE SMOOTH",
"222 -193 OFFCURVE",
"60 117 OFFCURVE",
"60 470 CURVE SMOOTH",
"60 1001 OFFCURVE",
"426 1436 OFFCURVE",
"927 1588 CURVE SMOOTH",
"957 1597 OFFCURVE",
"968 1608 OFFCURVE",
"975 1573 CURVE SMOOTH",
"983 1535 LINE SMOOTH",
"988 1508 OFFCURVE",
"994 1502 OFFCURVE",
"969 1493 CURVE SMOOTH",
"554 1347 OFFCURVE",
"290 946 OFFCURVE",
"290 470 CURVE SMOOTH",
"290 177 OFFCURVE",
"348 -63 OFFCURVE",
"593 -223 CURVE SMOOTH",
"618 -239 OFFCURVE",
"620 -240 OFFCURVE",
"613 -275 CURVE SMOOTH"
);
}
);
vertWidth = 0;
width = 890;
},
{
layerId = "166B8CC3-B8B2-42DF-8AC5-58EF4CD93FB2";
paths = (
{
closed = 1;
nodes = (
"739 -302 LINE SMOOTH",
"718 -344 OFFCURVE",
"711 -338 OFFCURVE",
"665 -322 CURVE SMOOTH",
"294 -190 OFFCURVE",
"100 83 OFFCURVE",
"100 470 CURVE SMOOTH",
"100 1040 OFFCURVE",
"453 1438 OFFCURVE",
"993 1588 CURVE SMOOTH",
"1035 1600 OFFCURVE",
"1039 1602 OFFCURVE",
"1057 1566 CURVE SMOOTH",
"1109 1462 LINE SMOOTH",
"1124 1432 OFFCURVE",
"1105 1437 OFFCURVE",
"1075 1427 CURVE SMOOTH",
"755 1320 OFFCURVE",
"570 895 OFFCURVE",
"570 470 CURVE SMOOTH",
"570 179 OFFCURVE",
"608 -69 OFFCURVE",
"777 -168 CURVE SMOOTH",
"804 -184 OFFCURVE",
"797 -187 OFFCURVE",
"783 -214 CURVE SMOOTH"
);
}
);
vertWidth = 0;
width = 960;
},
{
layerId = "6A50D5EA-2B4A-4D44-BCCC-14A16F5631EA";
paths = (
{
closed = 1;
nodes = (
"739 -302 LINE SMOOTH",
"718 -344 OFFCURVE",
"711 -338 OFFCURVE",
"665 -322 CURVE SMOOTH",
"294 -190 OFFCURVE",
"100 83 OFFCURVE",
"100 470 CURVE SMOOTH",
"100 1040 OFFCURVE",
"453 1438 OFFCURVE",
"993 1588 CURVE SMOOTH",
"1035 1600 OFFCURVE",
"1039 1602 OFFCURVE",
"1057 1566 CURVE SMOOTH",
"1109 1462 LINE SMOOTH",
"1124 1432 OFFCURVE",
"1105 1437 OFFCURVE",
"1075 1427 CURVE SMOOTH",
"755 1320 OFFCURVE",
"570 895 OFFCURVE",
"570 470 CURVE SMOOTH",
"570 179 OFFCURVE",
"608 -69 OFFCURVE",
"777 -168 CURVE SMOOTH",
"804 -184 OFFCURVE",
"797 -187 OFFCURVE",
"783 -214 CURVE SMOOTH"
);
}
);
vertWidth = 0;
width = 960;
},
{
layerId = "5A070E73-1DB9-476B-9E26-8EFE8B60F44F";
paths = (
{
closed = 1;
nodes = (
"605 -313 LINE SMOOTH",
"598 -348 OFFCURVE",
"589 -337 OFFCURVE",
"561 -326 CURVE SMOOTH",
"222 -193 OFFCURVE",
"60 117 OFFCURVE",
"60 470 CURVE SMOOTH",
"60 1001 OFFCURVE",
"426 1436 OFFCURVE",
"927 1588 CURVE SMOOTH",
"957 1597 OFFCURVE",
"968 1608 OFFCURVE",
"975 1573 CURVE SMOOTH",
"983 1535 LINE SMOOTH",
"988 1508 OFFCURVE",
"994 1502 OFFCURVE",
"969 1493 CURVE SMOOTH",
"554 1347 OFFCURVE",
"290 946 OFFCURVE",
"290 470 CURVE SMOOTH",
"290 177 OFFCURVE",
"348 -63 OFFCURVE",
"593 -223 CURVE SMOOTH",
"618 -239 OFFCURVE",
"620 -240 OFFCURVE",
"613 -275 CURVE SMOOTH"
);
}
);
vertWidth = 0;
width = 890;
}
);
unicode = 0028;
},
{
glyphname = parenright;
layers = (
{
layerId = "C788331E-5670-44D3-9D66-EAA382172B0D";
paths = (
{
closed = 1;
nodes = (
"255 1577 LINE SMOOTH",
"262 1612 OFFCURVE",
"271 1601 OFFCURVE",
"299 1590 CURVE SMOOTH",
"638 1457 OFFCURVE",
"800 1147 OFFCURVE",
"800 794 CURVE SMOOTH",
"800 263 OFFCURVE",
"434 -172 OFFCURVE",
"-67 -324 CURVE SMOOTH",
"-97 -333 OFFCURVE",
"-108 -344 OFFCURVE",
"-115 -309 CURVE SMOOTH",
"-123 -271 LINE SMOOTH",
"-128 -244 OFFCURVE",
"-134 -238 OFFCURVE",
"-109 -229 CURVE SMOOTH",
"306 -83 OFFCURVE",
"570 318 OFFCURVE",
"570 794 CURVE SMOOTH",
"570 1087 OFFCURVE",
"512 1327 OFFCURVE",
"267 1487 CURVE SMOOTH",
"242 1503 OFFCURVE",
"240 1504 OFFCURVE",
"247 1539 CURVE SMOOTH"
);
}
);
vertWidth = 0;
width = 890;
},
{
layerId = "166B8CC3-B8B2-42DF-8AC5-58EF4CD93FB2";
paths = (
{
closed = 1;
nodes = (
"181 1566 LINE SMOOTH",
"202 1608 OFFCURVE",
"209 1602 OFFCURVE",
"255 1586 CURVE SMOOTH",
"626 1454 OFFCURVE",
"820 1181 OFFCURVE",
"820 794 CURVE SMOOTH",
"820 224 OFFCURVE",
"467 -174 OFFCURVE",
"-73 -324 CURVE SMOOTH",
"-115 -336 OFFCURVE",
"-119 -338 OFFCURVE",
"-137 -302 CURVE SMOOTH",
"-189 -198 LINE SMOOTH",
"-204 -168 OFFCURVE",
"-185 -173 OFFCURVE",
"-155 -163 CURVE SMOOTH",
"165 -56 OFFCURVE",
"350 369 OFFCURVE",
"350 794 CURVE SMOOTH",
"350 1085 OFFCURVE",
"312 1333 OFFCURVE",
"143 1432 CURVE SMOOTH",
"116 1448 OFFCURVE",
"123 1451 OFFCURVE",
"137 1478 CURVE SMOOTH"
);
}
);
vertWidth = 0;
width = 920;
},
{
layerId = "6A50D5EA-2B4A-4D44-BCCC-14A16F5631EA";
paths = (
{
closed = 1;
nodes = (
"181 1566 LINE SMOOTH",
"202 1608 OFFCURVE",
"209 1602 OFFCURVE",
"255 1586 CURVE SMOOTH",
"626 1454 OFFCURVE",
"820 1181 OFFCURVE",
"820 794 CURVE SMOOTH",
"820 224 OFFCURVE",
"467 -174 OFFCURVE",
"-73 -324 CURVE SMOOTH",
"-115 -336 OFFCURVE",
"-119 -338 OFFCURVE",
"-137 -302 CURVE SMOOTH",
"-189 -198 LINE SMOOTH",
"-204 -168 OFFCURVE",
"-185 -173 OFFCURVE",
"-155 -163 CURVE SMOOTH",
"165 -56 OFFCURVE",
"350 369 OFFCURVE",
"350 794 CURVE SMOOTH",
"350 1085 OFFCURVE",
"312 1333 OFFCURVE",
"143 1432 CURVE SMOOTH",
"116 1448 OFFCURVE",
"123 1451 OFFCURVE",
"137 1478 CURVE SMOOTH"
);
}
);
vertWidth = 0;
width = 920;
},
{
layerId = "5A070E73-1DB9-476B-9E26-8EFE8B60F44F";
paths = (
{
closed = 1;
nodes = (
"255 1577 LINE SMOOTH",
"262 1612 OFFCURVE",
"271 1601 OFFCURVE",
"299 1590 CURVE SMOOTH",
"638 1457 OFFCURVE",
"800 1147 OFFCURVE",
"800 794 CURVE SMOOTH",
"800 263 OFFCURVE",
"434 -172 OFFCURVE",
"-67 -324 CURVE SMOOTH",
"-97 -333 OFFCURVE",
"-108 -344 OFFCURVE",
"-115 -309 CURVE SMOOTH",
"-123 -271 LINE SMOOTH",
"-128 -244 OFFCURVE",
"-134 -238 OFFCURVE",
"-109 -229 CURVE SMOOTH",
"306 -83 OFFCURVE",
"570 318 OFFCURVE",
"570 794 CURVE SMOOTH",
"570 1087 OFFCURVE",
"512 1327 OFFCURVE",
"267 1487 CURVE SMOOTH",
"242 1503 OFFCURVE",
"240 1504 OFFCURVE",
"247 1539 CURVE SMOOTH"
);
}
);
vertWidth = 0;
width = 890;
}
);
unicode = 0029;
},
{
glyphname = asterisk;
layers = (
{
layerId = "C788331E-5670-44D3-9D66-EAA382172B0D";
paths = (
{
closed = 1;
nodes = (
"814 922 OFFCURVE",
"879 883 OFFCURVE",
"955 832 CURVE SMOOTH",
"1037 778 OFFCURVE",
"1063 702 OFFCURVE",
"1027 640 CURVE SMOOTH",
"987 570 OFFCURVE",
"910 598 OFFCURVE",
"869 643 CURVE SMOOTH",
"789 724 OFFCURVE",
"733 827 OFFCURVE",
"671 906 CURVE SMOOTH",
"644 941 OFFCURVE",
"632 971 OFFCURVE",
"627 900 CURVE SMOOTH",
"622 827 OFFCURVE",
"620 750 OFFCURVE",
"614 658 CURVE SMOOTH",
"608 560 OFFCURVE",
"556 500 OFFCURVE",
"484 500 CURVE SMOOTH",
"413 500 OFFCURVE",
"384 567 OFFCURVE",
"408 638 CURVE SMOOTH",
"438 746 OFFCURVE",
"496 844 OFFCURVE",
"534 935 CURVE SMOOTH",
"560 998 OFFCURVE",
"559 1001 OFFCURVE",
"501 972 CURVE SMOOTH",
"438 941 OFFCURVE",
"373 905 OFFCURVE",
"293 866 CURVE SMOOTH",
"205 822 OFFCURVE",
"127 838 OFFCURVE",
"91 900 CURVE SMOOTH",
"54 965 OFFCURVE",
"106 1021 OFFCURVE",
"173 1035 CURVE SMOOTH",
"282 1063 OFFCURVE",
"397 1062 OFFCURVE",
"495 1075 CURVE SMOOTH",
"570 1085 OFFCURVE",
"555 1091 OFFCURVE",
"508 1122 CURVE SMOOTH",
"450 1161 OFFCURVE",
"387 1199 OFFCURVE",
"313 1248 CURVE SMOOTH",
"231 1302 OFFCURVE",
"205 1378 OFFCURVE",
"241 1440 CURVE SMOOTH",
"281 1510 OFFCURVE",
"358 1482 OFFCURVE",
"399 1437 CURVE SMOOTH",
"482 1352 OFFCURVE",
"541 1245 OFFCURVE",
"605 1165 CURVE SMOOTH",
"625 1140 OFFCURVE",
"636 1111 OFFCURVE",
"640 1165 CURVE SMOOTH",
"646 1242 OFFCURVE",
"648 1323 OFFCURVE",
"654 1422 CURVE SMOOTH",
"660 1520 OFFCURVE",
"712 1580 OFFCURVE",
"784 1580 CURVE SMOOTH",
"855 1580 OFFCURVE",
"884 1513 OFFCURVE",
"860 1442 CURVE SMOOTH",
"828 1329 OFFCURVE",
"766 1227 OFFCURVE",
"729 1132 CURVE SMOOTH",
"711 1087 OFFCURVE",
"705 1078 OFFCURVE",
"750 1100 CURVE SMOOTH",
"818 1133 OFFCURVE",
"888 1171 OFFCURVE",
"975 1214 CURVE SMOOTH",
"1063 1258 OFFCURVE",
"1141 1242 OFFCURVE",
"1177 1180 CURVE SMOOTH",
"1214 1115 OFFCURVE",
"1162 1059 OFFCURVE",
"1095 1045 CURVE SMOOTH",
"984 1016 OFFCURVE",
"867 1019 OFFCURVE",
"768 1005 CURVE SMOOTH",
"702 996 OFFCURVE",
"710 991 OFFCURVE",
"754 962 CURVE SMOOTH"
);
}
);
vertWidth = 2310;
width = 1270;
},
{
layerId = "166B8CC3-B8B2-42DF-8AC5-58EF4CD93FB2";
paths = (
{
closed = 1;
nodes = (
"870 949 OFFCURVE",
"942 947 OFFCURVE",
"1024 896 CURVE SMOOTH",
"1143 822 OFFCURVE",
"1131 698 OFFCURVE",
"1085 618 CURVE SMOOTH",
"1049 556 OFFCURVE",
"953 505 OFFCURVE",
"863 557 CURVE SMOOTH",
"770 610 OFFCURVE",
"769 766 OFFCURVE",
"703 886 CURVE SMOOTH",
"677 934 OFFCURVE",
"653 963 OFFCURVE",
"671 880 CURVE SMOOTH",
"687 802 OFFCURVE",
"717 734 OFFCURVE",
"717 652 CURVE SMOOTH",
"717 514 OFFCURVE",
"599 460 OFFCURVE",
"507 460 CURVE SMOOTH",
"435 460 OFFCURVE",
"343 518 OFFCURVE",
"343 622 CURVE SMOOTH",
"343 730 OFFCURVE",
"481 810 OFFCURVE",
"551 931 CURVE SMOOTH",
"582 985 OFFCURVE",
"581 997 OFFCURVE",
"534 956 CURVE SMOOTH",
"471 901 OFFCURVE",
"426 839 OFFCURVE",
"352 796 CURVE SMOOTH",
"232 727 OFFCURVE",
"126 802 OFFCURVE",
"80 882 CURVE SMOOTH",
"44 944 OFFCURVE",
"49 1053 OFFCURVE",
"139 1105 CURVE SMOOTH",
"238 1162 OFFCURVE",
"384 1072 OFFCURVE",
"530 1080 CURVE SMOOTH",
"585 1083 OFFCURVE",
"568 1090 OFFCURVE",
"532 1103 CURVE SMOOTH",
"452 1131 OFFCURVE",
"380 1135 OFFCURVE",
"294 1184 CURVE SMOOTH",
"194 1241 OFFCURVE",
"186 1382 OFFCURVE",
"232 1462 CURVE SMOOTH",
"268 1524 OFFCURVE",
"365 1575 OFFCURVE",
"455 1523 CURVE SMOOTH",
"552 1467 OFFCURVE",
"549 1298 OFFCURVE",
"626 1176 CURVE SMOOTH",
"644 1147 OFFCURVE",
"661 1118 OFFCURVE",
"651 1178 CURVE SMOOTH",
"636 1266 OFFCURVE",
"601 1339 OFFCURVE",
"601 1428 CURVE SMOOTH",
"601 1566 OFFCURVE",
"719 1620 OFFCURVE",
"811 1620 CURVE SMOOTH",
"883 1620 OFFCURVE",
"975 1562 OFFCURVE",
"975 1458 CURVE SMOOTH",
"975 1354 OFFCURVE",
"847 1276 OFFCURVE",
"775 1163 CURVE SMOOTH",
"738 1105 OFFCURVE",
"730 1076 OFFCURVE",
"790 1129 CURVE SMOOTH",
"850 1183 OFFCURVE",
"895 1243 OFFCURVE",
"966 1284 CURVE SMOOTH",
"1086 1353 OFFCURVE",
"1191 1278 OFFCURVE",
"1237 1198 CURVE SMOOTH",
"1273 1136 OFFCURVE",
"1269 1027 OFFCURVE",
"1179 975 CURVE SMOOTH",
"1085 921 OFFCURVE",
"946 1001 OFFCURVE",
"807 1001 CURVE SMOOTH",
"742 1001 OFFCURVE",
"739 992 OFFCURVE",
"792 975 CURVE SMOOTH"
);
}
);
vertWidth = 2310;
width = 1318;
},
{
layerId = "6A50D5EA-2B4A-4D44-BCCC-14A16F5631EA";
paths = (
{
closed = 1;
nodes = (
"870 949 OFFCURVE",
"942 947 OFFCURVE",
"1024 896 CURVE SMOOTH",
"1143 822 OFFCURVE",
"1131 698 OFFCURVE",
"1085 618 CURVE SMOOTH",
"1049 556 OFFCURVE",
"953 505 OFFCURVE",
"863 557 CURVE SMOOTH",
"770 610 OFFCURVE",
"769 766 OFFCURVE",
"703 886 CURVE SMOOTH",
"677 934 OFFCURVE",
"653 963 OFFCURVE",
"671 880 CURVE SMOOTH",
"687 802 OFFCURVE",
"717 734 OFFCURVE",
"717 652 CURVE SMOOTH",
"717 514 OFFCURVE",
"599 460 OFFCURVE",
"507 460 CURVE SMOOTH",
"435 460 OFFCURVE",
"343 518 OFFCURVE",
"343 622 CURVE SMOOTH",
"343 730 OFFCURVE",
"481 810 OFFCURVE",
"551 931 CURVE SMOOTH",
"582 985 OFFCURVE",
"581 997 OFFCURVE",
"534 956 CURVE SMOOTH",
"471 901 OFFCURVE",
"426 839 OFFCURVE",
"352 796 CURVE SMOOTH",
"232 727 OFFCURVE",
"126 802 OFFCURVE",
"80 882 CURVE SMOOTH",
"44 944 OFFCURVE",
"49 1053 OFFCURVE",
"139 1105 CURVE SMOOTH",
"238 1162 OFFCURVE",
"384 1072 OFFCURVE",
"530 1080 CURVE SMOOTH",
"585 1083 OFFCURVE",
"568 1090 OFFCURVE",
"532 1103 CURVE SMOOTH",
"452 1131 OFFCURVE",
"380 1135 OFFCURVE",
"294 1184 CURVE SMOOTH",
"194 1241 OFFCURVE",
"186 1382 OFFCURVE",
"232 1462 CURVE SMOOTH",
"268 1524 OFFCURVE",
"365 1575 OFFCURVE",
"455 1523 CURVE SMOOTH",
"552 1467 OFFCURVE",
"549 1298 OFFCURVE",
"626 1176 CURVE SMOOTH",
"644 1147 OFFCURVE",
"661 1118 OFFCURVE",
"651 1178 CURVE SMOOTH",
"636 1266 OFFCURVE",
"601 1339 OFFCURVE",
"601 1428 CURVE SMOOTH",
"601 1566 OFFCURVE",
"719 1620 OFFCURVE",
"811 1620 CURVE SMOOTH",
"883 1620 OFFCURVE",
"975 1562 OFFCURVE",
"975 1458 CURVE SMOOTH",
"975 1354 OFFCURVE",
"847 1276 OFFCURVE",
"775 1163 CURVE SMOOTH",
"738 1105 OFFCURVE",
"730 1076 OFFCURVE",
"790 1129 CURVE SMOOTH",
"850 1183 OFFCURVE",
"895 1243 OFFCURVE",
"966 1284 CURVE SMOOTH",
"1086 1353 OFFCURVE",
"1191 1278 OFFCURVE",
"1237 1198 CURVE SMOOTH",
"1273 1136 OFFCURVE",
"1269 1027 OFFCURVE",
"1179 975 CURVE SMOOTH",
"1085 921 OFFCURVE",
"946 1001 OFFCURVE",
"807 1001 CURVE SMOOTH",
"742 1001 OFFCURVE",
"739 992 OFFCURVE",
"792 975 CURVE SMOOTH"
);
}
);
vertWidth = 2310;
width = 1318;
},
{
layerId = "5A070E73-1DB9-476B-9E26-8EFE8B60F44F";
paths = (
{
closed = 1;
nodes = (
"814 922 OFFCURVE",
"879 883 OFFCURVE",
"955 832 CURVE SMOOTH",
"1037 778 OFFCURVE",
"1063 702 OFFCURVE",
"1027 640 CURVE SMOOTH",
"987 570 OFFCURVE",
"910 598 OFFCURVE",
"869 643 CURVE SMOOTH",
"789 724 OFFCURVE",
"733 827 OFFCURVE",
"671 906 CURVE SMOOTH",
"644 941 OFFCURVE",
"632 971 OFFCURVE",
"627 900 CURVE SMOOTH",
"622 827 OFFCURVE",
"620 750 OFFCURVE",
"614 658 CURVE SMOOTH",
"608 560 OFFCURVE",
"556 500 OFFCURVE",
"484 500 CURVE SMOOTH",
"413 500 OFFCURVE",
"384 567 OFFCURVE",
"408 638 CURVE SMOOTH",
"438 746 OFFCURVE",
"496 844 OFFCURVE",
"534 935 CURVE SMOOTH",
"560 998 OFFCURVE",
"559 1001 OFFCURVE",
"501 972 CURVE SMOOTH",
"438 941 OFFCURVE",
"373 905 OFFCURVE",
"293 866 CURVE SMOOTH",
"205 822 OFFCURVE",
"127 838 OFFCURVE",
"91 900 CURVE SMOOTH",
"54 965 OFFCURVE",
"106 1021 OFFCURVE",
"173 1035 CURVE SMOOTH",
"282 1063 OFFCURVE",
"397 1062 OFFCURVE",
"495 1075 CURVE SMOOTH",
"570 1085 OFFCURVE",
"555 1091 OFFCURVE",
"508 1122 CURVE SMOOTH",
"450 1161 OFFCURVE",
"387 1199 OFFCURVE",
"313 1248 CURVE SMOOTH",
"231 1302 OFFCURVE",
"205 1378 OFFCURVE",
"241 1440 CURVE SMOOTH",
"281 1510 OFFCURVE",
"358 1482 OFFCURVE",
"399 1437 CURVE SMOOTH",
"482 1352 OFFCURVE",
"541 1245 OFFCURVE",
"605 1165 CURVE SMOOTH",
"625 1140 OFFCURVE",
"636 1111 OFFCURVE",
"640 1165 CURVE SMOOTH",
"646 1242 OFFCURVE",
"648 1323 OFFCURVE",
"654 1422 CURVE SMOOTH",
"660 1520 OFFCURVE",
"712 1580 OFFCURVE",
"784 1580 CURVE SMOOTH",
"855 1580 OFFCURVE",
"884 1513 OFFCURVE",
"860 1442 CURVE SMOOTH",
"828 1329 OFFCURVE",
"766 1227 OFFCURVE",
"729 1132 CURVE SMOOTH",
"711 1087 OFFCURVE",
"705 1078 OFFCURVE",
"750 1100 CURVE SMOOTH",
"818 1133 OFFCURVE",
"888 1171 OFFCURVE",
"975 1214 CURVE SMOOTH",
"1063 1258 OFFCURVE",
"1141 1242 OFFCURVE",
"1177 1180 CURVE SMOOTH",
"1214 1115 OFFCURVE",
"1162 1059 OFFCURVE",
"1095 1045 CURVE SMOOTH",
"984 1016 OFFCURVE",
"867 1019 OFFCURVE",
"768 1005 CURVE SMOOTH",
"702 996 OFFCURVE",
"710 991 OFFCURVE",
"754 962 CURVE SMOOTH"
);
}
);
vertWidth = 2310;
width = 1270;
}
);
unicode = 002A;
},
{
glyphname = plus;
layers = (
{
layerId = "C788331E-5670-44D3-9D66-EAA382172B0D";
paths = (
{
closed = 1;
nodes = (
"913 836 LINE SMOOTH",
"936 836 OFFCURVE",
"947 832 OFFCURVE",
"947 808 CURVE SMOOTH",
"947 751 LINE SMOOTH",
"947 734 OFFCURVE",
"946 726 OFFCURVE",
"929 726 CURVE SMOOTH",
"626 726 LINE SMOOTH",
"594 726 OFFCURVE",
"582 722 OFFCURVE",
"576 692 CURVE SMOOTH",
"512 389 LINE SMOOTH",
"508 373 OFFCURVE",
"505 370 OFFCURVE",
"487 370 CURVE SMOOTH",
"419 370 LINE SMOOTH",
"399 370 OFFCURVE",
"390 371 OFFCURVE",
"394 390 CURVE SMOOTH",
"458 685 LINE SMOOTH",
"465 718 OFFCURVE",
"457 726 OFFCURVE",
"422 726 CURVE SMOOTH",
"156 726 LINE SMOOTH",
"131 726 OFFCURVE",
"127 731 OFFCURVE",
"127 755 CURVE SMOOTH",
"127 809 LINE SMOOTH",
"127 831 OFFCURVE",
"136 836 OFFCURVE",
"157 836 CURVE SMOOTH",
"451 836 LINE SMOOTH",
"478 836 OFFCURVE",
"491 842 OFFCURVE",
"497 870 CURVE SMOOTH",
"558 1160 LINE SMOOTH",
"563 1182 OFFCURVE",
"571 1190 OFFCURVE",
"596 1190 CURVE SMOOTH",
"654 1190 LINE SMOOTH",
"674 1190 OFFCURVE",
"681 1183 OFFCURVE",
"676 1161 CURVE SMOOTH",
"615 874 LINE SMOOTH",
"608 843 OFFCURVE",
"614 836 OFFCURVE",
"645 836 CURVE SMOOTH"
);
}
);
vertWidth = 0;
width = 1060;
},
{
layerId = "166B8CC3-B8B2-42DF-8AC5-58EF4CD93FB2";
paths = (
{
closed = 1;
nodes = (
"913 896 LINE SMOOTH",
"936 896 OFFCURVE",
"947 892 OFFCURVE",
"947 868 CURVE SMOOTH",
"947 691 LINE SMOOTH",
"947 674 OFFCURVE",
"946 666 OFFCURVE",
"929 666 CURVE SMOOTH",
"676 666 LINE SMOOTH",
"644 666 OFFCURVE",
"632 662 OFFCURVE",
"626 632 CURVE SMOOTH",
"562 389 LINE SMOOTH",
"558 373 OFFCURVE",
"555 370 OFFCURVE",
"537 370 CURVE SMOOTH",
"349 370 LINE SMOOTH",
"329 370 OFFCURVE",
"320 371 OFFCURVE",
"324 390 CURVE SMOOTH",
"388 625 LINE SMOOTH",
"395 658 OFFCURVE",
"387 666 OFFCURVE",
"352 666 CURVE SMOOTH",
"156 666 LINE SMOOTH",
"131 666 OFFCURVE",
"127 671 OFFCURVE",
"127 695 CURVE SMOOTH",
"127 869 LINE SMOOTH",
"127 891 OFFCURVE",
"136 896 OFFCURVE",
"157 896 CURVE SMOOTH",
"411 896 LINE SMOOTH",
"438 896 OFFCURVE",
"451 902 OFFCURVE",
"457 930 CURVE SMOOTH",
"513 1160 LINE SMOOTH",
"518 1182 OFFCURVE",
"526 1190 OFFCURVE",
"551 1190 CURVE SMOOTH",
"730 1190 LINE SMOOTH",
"750 1190 OFFCURVE",
"757 1183 OFFCURVE",
"752 1161 CURVE SMOOTH",
"695 934 LINE SMOOTH",
"688 903 OFFCURVE",
"694 896 OFFCURVE",
"725 896 CURVE SMOOTH"
);
}
);
vertWidth = 0;
width = 1060;
},
{
layerId = "6A50D5EA-2B4A-4D44-BCCC-14A16F5631EA";
paths = (
{
closed = 1;
nodes = (
"913 896 LINE SMOOTH",
"936 896 OFFCURVE",
"947 892 OFFCURVE",
"947 868 CURVE SMOOTH",
"947 691 LINE SMOOTH",
"947 674 OFFCURVE",
"946 666 OFFCURVE",
"929 666 CURVE SMOOTH",
"676 666 LINE SMOOTH",
"644 666 OFFCURVE",
"632 662 OFFCURVE",
"626 632 CURVE SMOOTH",
"562 389 LINE SMOOTH",
"558 373 OFFCURVE",
"555 370 OFFCURVE",
"537 370 CURVE SMOOTH",
"349 370 LINE SMOOTH",
"329 370 OFFCURVE",
"320 371 OFFCURVE",
"324 390 CURVE SMOOTH",
"388 625 LINE SMOOTH",
"395 658 OFFCURVE",
"387 666 OFFCURVE",
"352 666 CURVE SMOOTH",
"156 666 LINE SMOOTH",
"131 666 OFFCURVE",
"127 671 OFFCURVE",
"127 695 CURVE SMOOTH",
"127 869 LINE SMOOTH",
"127 891 OFFCURVE",
"136 896 OFFCURVE",
"157 896 CURVE SMOOTH",
"411 896 LINE SMOOTH",
"438 896 OFFCURVE",
"451 902 OFFCURVE",
"457 930 CURVE SMOOTH",
"513 1160 LINE SMOOTH",
"518 1182 OFFCURVE",
"526 1190 OFFCURVE",
"551 1190 CURVE SMOOTH",
"730 1190 LINE SMOOTH",
"750 1190 OFFCURVE",
"757 1183 OFFCURVE",
"752 1161 CURVE SMOOTH",
"695 934 LINE SMOOTH",
"688 903 OFFCURVE",
"694 896 OFFCURVE",
"725 896 CURVE SMOOTH"
);
}
);
vertWidth = 0;
width = 1060;
},
{
layerId = "5A070E73-1DB9-476B-9E26-8EFE8B60F44F";
paths = (
{
closed = 1;
nodes = (
"913 836 LINE SMOOTH",
"936 836 OFFCURVE",
"947 832 OFFCURVE",
"947 808 CURVE SMOOTH",
"947 751 LINE SMOOTH",
"947 734 OFFCURVE",
"946 726 OFFCURVE",
"929 726 CURVE SMOOTH",
"626 726 LINE SMOOTH",
"594 726 OFFCURVE",
"582 722 OFFCURVE",
"576 692 CURVE SMOOTH",
"512 389 LINE SMOOTH",
"508 373 OFFCURVE",
"505 370 OFFCURVE",
"487 370 CURVE SMOOTH",
"419 370 LINE SMOOTH",
"399 370 OFFCURVE",
"390 371 OFFCURVE",
"394 390 CURVE SMOOTH",
"458 685 LINE SMOOTH",
"465 718 OFFCURVE",
"457 726 OFFCURVE",
"422 726 CURVE SMOOTH",
"156 726 LINE SMOOTH",
"131 726 OFFCURVE",
"127 731 OFFCURVE",
"127 755 CURVE SMOOTH",
"127 809 LINE SMOOTH",
"127 831 OFFCURVE",
"136 836 OFFCURVE",
"157 836 CURVE SMOOTH",
"451 836 LINE SMOOTH",
"478 836 OFFCURVE",
"491 842 OFFCURVE",
"497 870 CURVE SMOOTH",
"558 1160 LINE SMOOTH",
"563 1182 OFFCURVE",
"571 1190 OFFCURVE",
"596 1190 CURVE SMOOTH",
"654 1190 LINE SMOOTH",
"674 1190 OFFCURVE",
"681 1183 OFFCURVE",
"676 1161 CURVE SMOOTH",
"615 874 LINE SMOOTH",
"608 843 OFFCURVE",
"614 836 OFFCURVE",
"645 836 CURVE SMOOTH"
);
}
);
vertWidth = 0;
width = 1060;
}
);
unicode = 002B;
},
{
glyphname = comma;
layers = (
{
layerId = "C788331E-5670-44D3-9D66-EAA382172B0D";
paths = (
{
closed = 1;
nodes = (
"77 164 OFFCURVE",
"135 216 OFFCURVE",
"211 216 CURVE SMOOTH",
"289 216 OFFCURVE",
"351 154 OFFCURVE",
"351 28 CURVE SMOOTH",
"351 -146 OFFCURVE",
"181 -296 OFFCURVE",
"16 -311 CURVE SMOOTH",
"1 -312 OFFCURVE",
"-7 -313 OFFCURVE",
"-7 -296 CURVE SMOOTH",
"-7 -253 LINE SMOOTH",
"-7 -235 OFFCURVE",
"3 -232 OFFCURVE",
"18 -230 CURVE SMOOTH",
"109 -216 OFFCURVE",
"257 -124 OFFCURVE",
"246 -9 CURVE SMOOTH",
"244 7 OFFCURVE",
"235 -1 OFFCURVE",
"224 -8 CURVE SMOOTH",
"211 -16 OFFCURVE",
"194 -20 OFFCURVE",
"173 -20 CURVE SMOOTH",
"107 -20 OFFCURVE",
"77 32 OFFCURVE",
"77 98 CURVE SMOOTH"
);
}
);
vertWidth = 0;
width = 658;
},
{
layerId = "166B8CC3-B8B2-42DF-8AC5-58EF4CD93FB2";
paths = (
{
closed = 1;
nodes = (
"-32 316 OFFCURVE",
"86 406 OFFCURVE",
"222 406 CURVE SMOOTH",
"360 406 OFFCURVE",
"500 324 OFFCURVE",
"500 98 CURVE SMOOTH",
"500 -163 OFFCURVE",
"190 -299 OFFCURVE",
"-47 -311 CURVE SMOOTH",
"-82 -313 OFFCURVE",
"-86 -311 OFFCURVE",
"-86 -276 CURVE SMOOTH",
"-86 -170 LINE SMOOTH",
"-86 -146 OFFCURVE",
"-77 -153 OFFCURVE",
"-56 -151 CURVE SMOOTH",
"60 -142 OFFCURVE",
"235 -101 OFFCURVE",
"302 -24 CURVE SMOOTH",
"335 13 OFFCURVE",
"308 19 OFFCURVE",
"278 1 CURVE SMOOTH",
"247 -17 OFFCURVE",
"208 -30 OFFCURVE",
"156 -30 CURVE SMOOTH",
"40 -30 OFFCURVE",
"-32 46 OFFCURVE",
"-32 172 CURVE SMOOTH"
);
}
);
vertWidth = 0;
width = 590;
},
{
layerId = "6A50D5EA-2B4A-4D44-BCCC-14A16F5631EA";
paths = (
{
closed = 1;
nodes = (
"-32 316 OFFCURVE",
"86 406 OFFCURVE",
"222 406 CURVE SMOOTH",
"360 406 OFFCURVE",
"500 324 OFFCURVE",
"500 98 CURVE SMOOTH",
"500 -163 OFFCURVE",
"190 -299 OFFCURVE",
"-47 -311 CURVE SMOOTH",
"-82 -313 OFFCURVE",
"-86 -311 OFFCURVE",
"-86 -276 CURVE SMOOTH",
"-86 -170 LINE SMOOTH",
"-86 -146 OFFCURVE",
"-77 -153 OFFCURVE",
"-56 -151 CURVE SMOOTH",
"60 -142 OFFCURVE",
"235 -101 OFFCURVE",
"302 -24 CURVE SMOOTH",
"335 13 OFFCURVE",
"308 19 OFFCURVE",
"278 1 CURVE SMOOTH",
"247 -17 OFFCURVE",
"208 -30 OFFCURVE",
"156 -30 CURVE SMOOTH",
"40 -30 OFFCURVE",
"-32 46 OFFCURVE",
"-32 172 CURVE SMOOTH"
);
}
);
vertWidth = 0;
width = 590;
},
{
layerId = "5A070E73-1DB9-476B-9E26-8EFE8B60F44F";
paths = (
{
closed = 1;
nodes = (
"77 164 OFFCURVE",
"135 216 OFFCURVE",
"211 216 CURVE SMOOTH",
"289 216 OFFCURVE",
"351 154 OFFCURVE",
"351 28 CURVE SMOOTH",
"351 -146 OFFCURVE",
"181 -296 OFFCURVE",
"16 -311 CURVE SMOOTH",
"1 -312 OFFCURVE",
"-7 -313 OFFCURVE",
"-7 -296 CURVE SMOOTH",
"-7 -253 LINE SMOOTH",
"-7 -235 OFFCURVE",
"3 -232 OFFCURVE",
"18 -230 CURVE SMOOTH",
"109 -216 OFFCURVE",
"257 -124 OFFCURVE",
"246 -9 CURVE SMOOTH",
"244 7 OFFCURVE",
"235 -1 OFFCURVE",
"224 -8 CURVE SMOOTH",
"211 -16 OFFCURVE",
"194 -20 OFFCURVE",
"173 -20 CURVE SMOOTH",
"107 -20 OFFCURVE",
"77 32 OFFCURVE",
"77 98 CURVE SMOOTH"
);
}
);
vertWidth = 0;
width = 658;
}
);
leftKerningGroup = kc0_8;
rightKerningGroup = kc0_13;
unicode = 002C;
},
{
glyphname = hyphen;
layers = (
{
layerId = "C788331E-5670-44D3-9D66-EAA382172B0D";
paths = (
{
closed = 1;
nodes = (
"474 710 LINE SMOOTH",
"497 710 OFFCURVE",
"500 706 OFFCURVE",
"500 682 CURVE SMOOTH",
"500 603 LINE SMOOTH",
"500 579 OFFCURVE",
"498 570 OFFCURVE",
"472 570 CURVE SMOOTH",
"46 570 LINE SMOOTH",
"21 570 OFFCURVE",
"20 574 OFFCURVE",
"20 600 CURVE SMOOTH",
"20 682 LINE SMOOTH",
"20 705 OFFCURVE",
"27 710 OFFCURVE",
"48 710 CURVE SMOOTH"
);
}
);
vertWidth = 0;
width = 640;
},
{
layerId = "166B8CC3-B8B2-42DF-8AC5-58EF4CD93FB2";
paths = (
{
closed = 1;
nodes = (
"616 770 LINE SMOOTH",
"647 770 OFFCURVE",
"650 763 OFFCURVE",
"650 731 CURVE SMOOTH",
"650 581 LINE SMOOTH",
"650 546 OFFCURVE",
"649 540 OFFCURVE",
"614 540 CURVE SMOOTH",
"112 540 LINE SMOOTH",
"76 540 OFFCURVE",
"70 545 OFFCURVE",
"70 580 CURVE SMOOTH",
"70 729 LINE SMOOTH",
"70 761 OFFCURVE",
"72 770 OFFCURVE",
"104 770 CURVE SMOOTH"
);
}
);
vertWidth = 0;
width = 820;
},
{
layerId = "6A50D5EA-2B4A-4D44-BCCC-14A16F5631EA";
paths = (
{
closed = 1;
nodes = (
"616 770 LINE SMOOTH",
"647 770 OFFCURVE",
"650 763 OFFCURVE",
"650 731 CURVE SMOOTH",
"650 581 LINE SMOOTH",
"650 546 OFFCURVE",
"649 540 OFFCURVE",
"614 540 CURVE SMOOTH",
"112 540 LINE SMOOTH",
"76 540 OFFCURVE",
"70 545 OFFCURVE",
"70 580 CURVE SMOOTH",
"70 729 LINE SMOOTH",
"70 761 OFFCURVE",
"72 770 OFFCURVE",
"104 770 CURVE SMOOTH"
);
}
);
vertWidth = 0;
width = 820;
},
{
layerId = "5A070E73-1DB9-476B-9E26-8EFE8B60F44F";
paths = (
{
closed = 1;
nodes = (
"474 710 LINE SMOOTH",
"497 710 OFFCURVE",
"500 706 OFFCURVE",
"500 682 CURVE SMOOTH",
"500 603 LINE SMOOTH",
"500 579 OFFCURVE",
"498 570 OFFCURVE",
"472 570 CURVE SMOOTH",
"46 570 LINE SMOOTH",
"21 570 OFFCURVE",
"20 574 OFFCURVE",
"20 600 CURVE SMOOTH",
"20 682 LINE SMOOTH",
"20 705 OFFCURVE",
"27 710 OFFCURVE",
"48 710 CURVE SMOOTH"
);
}
);
vertWidth = 0;
width = 640;
}
);
unicode = 002D;
},
{
glyphname = period;
layers = (
{
layerId = "C788331E-5670-44D3-9D66-EAA382172B0D";
paths = (
{
closed = 1;
nodes = (
"-7 173 OFFCURVE",
"52 232 OFFCURVE",
"125 232 CURVE SMOOTH",
"198 232 OFFCURVE",
"257 173 OFFCURVE",
"257 100 CURVE SMOOTH",
"257 27 OFFCURVE",
"198 -32 OFFCURVE",
"125 -32 CURVE SMOOTH",
"52 -32 OFFCURVE",
"-7 27 OFFCURVE",
"-7 100 CURVE SMOOTH"
);
}
);
vertWidth = 2190;
width = 564;
},
{
layerId = "166B8CC3-B8B2-42DF-8AC5-58EF4CD93FB2";
paths = (
{
closed = 1;
nodes = (
"-60 332 OFFCURVE",
"48 440 OFFCURVE",
"180 440 CURVE SMOOTH",
"312 440 OFFCURVE",
"420 332 OFFCURVE",
"420 200 CURVE SMOOTH",
"420 68 OFFCURVE",
"312 -40 OFFCURVE",
"180 -40 CURVE SMOOTH",
"48 -40 OFFCURVE",
"-60 68 OFFCURVE",
"-60 200 CURVE SMOOTH"
);
}
);
vertWidth = 0;
width = 620;
},
{
layerId = "6A50D5EA-2B4A-4D44-BCCC-14A16F5631EA";
paths = (
{
closed = 1;
nodes = (
"-30 332 OFFCURVE",
"78 440 OFFCURVE",
"210 440 CURVE SMOOTH",
"342 440 OFFCURVE",
"450 332 OFFCURVE",
"450 200 CURVE SMOOTH",
"450 68 OFFCURVE",
"342 -40 OFFCURVE",
"210 -40 CURVE SMOOTH",
"78 -40 OFFCURVE",
"-30 68 OFFCURVE",
"-30 200 CURVE SMOOTH"
);
}
);
vertWidth = 0;
width = 620;
},
{
layerId = "5A070E73-1DB9-476B-9E26-8EFE8B60F44F";
paths = (
{
closed = 1;
nodes = (
"-7 173 OFFCURVE",
"52 232 OFFCURVE",
"125 232 CURVE SMOOTH",
"198 232 OFFCURVE",
"257 173 OFFCURVE",
"257 100 CURVE SMOOTH",
"257 27 OFFCURVE",
"198 -32 OFFCURVE",
"125 -32 CURVE SMOOTH",
"52 -32 OFFCURVE",
"-7 27 OFFCURVE",
"-7 100 CURVE SMOOTH"
);
}
);
vertWidth = 2190;
width = 564;
}
);
leftKerningGroup = kc0_8;
rightKerningGroup = kc0_13;
unicode = 002E;
},
{
glyphname = slash;
layers = (
{
layerId = "C788331E-5670-44D3-9D66-EAA382172B0D";
paths = (
{
closed = 1;
nodes = (
"1079 1560 LINE SMOOTH",
"1117 1560 OFFCURVE",
"1122 1553 OFFCURVE",
"1108 1530 CURVE SMOOTH",
"21 -268 LINE SMOOTH",
"5 -294 OFFCURVE",
"0 -300 OFFCURVE",
"-41 -300 CURVE SMOOTH",
"-73 -300 LINE SMOOTH",
"-122 -300 OFFCURVE",
"-130 -286 OFFCURVE",
"-113 -258 CURVE SMOOTH",
"978 1526 LINE SMOOTH",
"993 1551 OFFCURVE",
"994 1560 OFFCURVE",
"1034 1560 CURVE SMOOTH"
);
}
);
vertWidth = 0;
width = 1040;
},
{
layerId = "166B8CC3-B8B2-42DF-8AC5-58EF4CD93FB2";
paths = (
{
closed = 1;
nodes = (
"1046 1560 LINE SMOOTH",
"1104 1560 OFFCURVE",
"1088 1537 OFFCURVE",
"1072 1506 CURVE SMOOTH",
"148 -262 LINE SMOOTH",
"132 -292 OFFCURVE",
"123 -300 OFFCURVE",
"75 -300 CURVE SMOOTH",
"-15 -300 LINE SMOOTH",
"-85 -300 OFFCURVE",
"-94 -289 OFFCURVE",
"-73 -248 CURVE SMOOTH",
"860 1518 LINE SMOOTH",
"876 1548 OFFCURVE",
"884 1560 OFFCURVE",
"933 1560 CURVE SMOOTH"
);
}
);
vertWidth = 0;
width = 1040;
},
{
layerId = "6A50D5EA-2B4A-4D44-BCCC-14A16F5631EA";
paths = (
{
closed = 1;
nodes = (
"1046 1560 LINE SMOOTH",
"1104 1560 OFFCURVE",
"1088 1537 OFFCURVE",
"1072 1506 CURVE SMOOTH",
"148 -262 LINE SMOOTH",
"132 -292 OFFCURVE",
"123 -300 OFFCURVE",
"75 -300 CURVE SMOOTH",
"-15 -300 LINE SMOOTH",
"-85 -300 OFFCURVE",
"-94 -289 OFFCURVE",
"-73 -248 CURVE SMOOTH",
"860 1518 LINE SMOOTH",
"876 1548 OFFCURVE",
"884 1560 OFFCURVE",
"933 1560 CURVE SMOOTH"
);
}
);
vertWidth = 0;
width = 1040;
},
{
layerId = "5A070E73-1DB9-476B-9E26-8EFE8B60F44F";
paths = (
{
closed = 1;
nodes = (
"1079 1560 LINE SMOOTH",
"1117 1560 OFFCURVE",
"1122 1553 OFFCURVE",
"1108 1530 CURVE SMOOTH",
"21 -268 LINE SMOOTH",
"5 -294 OFFCURVE",
"0 -300 OFFCURVE",
"-41 -300 CURVE SMOOTH",
"-73 -300 LINE SMOOTH",
"-122 -300 OFFCURVE",
"-130 -286 OFFCURVE",
"-113 -258 CURVE SMOOTH",
"978 1526 LINE SMOOTH",
"993 1551 OFFCURVE",
"994 1560 OFFCURVE",
"1034 1560 CURVE SMOOTH"
);
}
);
vertWidth = 0;
width = 1040;
}
);
leftKerningGroup = kc0_3;
rightKerningGroup = kc0_7;
unicode = 002F;
},
{
glyphname = zero;
layers = (
{
layerId = "C788331E-5670-44D3-9D66-EAA382172B0D";
paths = (
{
closed = 1;
nodes = (
"199 1316 OFFCURVE",
"502 1520 OFFCURVE",
"748 1520 CURVE SMOOTH",
"1034 1520 OFFCURVE",
"1219 1316 OFFCURVE",
"1099 750 CURVE SMOOTH",
"979 184 OFFCURVE",
"697 -20 OFFCURVE",
"441 -20 CURVE SMOOTH",
"195 -20 OFFCURVE",
"-41 184 OFFCURVE",
"79 750 CURVE SMOOTH"
);
},
{
closed = 1;
nodes = (
"196 266 OFFCURVE",
"269 80 OFFCURVE",
"437 80 CURVE SMOOTH",
"615 80 OFFCURVE",
"776 266 OFFCURVE",
"879 750 CURVE SMOOTH",
"982 1234 OFFCURVE",
"920 1420 OFFCURVE",
"742 1420 CURVE SMOOTH",
"574 1420 OFFCURVE",
"402 1234 OFFCURVE",
"299 750 CURVE SMOOTH"
);
}
);
vertWidth = 0;
width = 1180;
},
{
layerId = "166B8CC3-B8B2-42DF-8AC5-58EF4CD93FB2";
paths = (
{
closed = 1;
nodes = (
"236 1316 OFFCURVE",
"497 1520 OFFCURVE",
"863 1520 CURVE SMOOTH",
"1229 1520 OFFCURVE",
"1456 1316 OFFCURVE",
"1325 750 CURVE SMOOTH",
"1194 184 OFFCURVE",
"923 -20 OFFCURVE",
"577 -20 CURVE SMOOTH",
"231 -20 OFFCURVE",
"-26 184 OFFCURVE",
"105 750 CURVE SMOOTH"
);
},
{
closed = 1;
nodes = (
"422 306 OFFCURVE",
"458 190 OFFCURVE",
"586 190 CURVE SMOOTH",
"724 190 OFFCURVE",
"802 306 OFFCURVE",
"905 750 CURVE SMOOTH",
"1008 1194 OFFCURVE",
"982 1310 OFFCURVE",
"844 1310 CURVE SMOOTH",
"716 1310 OFFCURVE",
"628 1194 OFFCURVE",
"525 750 CURVE SMOOTH"
);
}
);
vertWidth = 0;
width = 1364;
},
{
layerId = "6A50D5EA-2B4A-4D44-BCCC-14A16F5631EA";
paths = (
{
closed = 1;
nodes = (
"211 1316 OFFCURVE",
"421 1520 OFFCURVE",
"767 1520 CURVE SMOOTH",
"1133 1520 OFFCURVE",
"1231 1316 OFFCURVE",
"1106 750 CURVE SMOOTH",
"981 184 OFFCURVE",
"752 -20 OFFCURVE",
"426 -20 CURVE SMOOTH",
"80 -20 OFFCURVE",
"-39 184 OFFCURVE",
"86 750 CURVE SMOOTH"
);
},
{
closed = 1;
nodes = (
"399 266 OFFCURVE",
"404 190 OFFCURVE",
"472 190 CURVE SMOOTH",
"550 190 OFFCURVE",
"579 266 OFFCURVE",
"686 750 CURVE SMOOTH",
"793 1234 OFFCURVE",
"798 1310 OFFCURVE",
"720 1310 CURVE SMOOTH",
"652 1310 OFFCURVE",
"613 1234 OFFCURVE",
"506 750 CURVE SMOOTH"
);
}
);
vertWidth = 0;
width = 1120;
},
{
layerId = "5A070E73-1DB9-476B-9E26-8EFE8B60F44F";
paths = (
{
closed = 1;
nodes = (
"241 1316 OFFCURVE",
"401 1520 OFFCURVE",
"647 1520 CURVE SMOOTH",
"913 1520 OFFCURVE",
"961 1316 OFFCURVE",
"836 750 CURVE SMOOTH",
"711 184 OFFCURVE",
"532 -20 OFFCURVE",
"306 -20 CURVE SMOOTH",
"60 -20 OFFCURVE",
"-9 184 OFFCURVE",
"116 750 CURVE SMOOTH"
);
},
{
closed = 1;
nodes = (
"218 216 OFFCURVE",
"220 80 OFFCURVE",
"328 80 CURVE SMOOTH",
"456 80 OFFCURVE",
"498 216 OFFCURVE",
"616 750 CURVE SMOOTH",
"734 1284 OFFCURVE",
"753 1420 OFFCURVE",
"625 1420 CURVE SMOOTH",
"517 1420 OFFCURVE",
"454 1284 OFFCURVE",
"336 750 CURVE SMOOTH"
);
}
);
vertWidth = 0;
width = 880;
}
);
unicode = 0030;
},
{
glyphname = one;
layers = (
{
layerId = "C788331E-5670-44D3-9D66-EAA382172B0D";
paths = (
{
closed = 1;
nodes = (
"-40 80 LINE SMOOTH",
"-40 109 OFFCURVE",
"-29 110 OFFCURVE",
"0 110 CURVE SMOOTH",
"258 110 LINE SMOOTH",
"294 110 OFFCURVE",
"303 120 OFFCURVE",
"310 152 CURVE SMOOTH",
"530 1173 LINE SMOOTH",
"530 1209 OFFCURVE",
"527 1220 OFFCURVE",
"492 1220 CURVE SMOOTH",
"288 1220 LINE SMOOTH",
"259 1220 OFFCURVE",
"244 1222 OFFCURVE",
"244 1254 CURVE SMOOTH",
"244 1284 LINE SMOOTH",
"244 1320 OFFCURVE",
"248 1330 OFFCURVE",
"286 1330 CURVE SMOOTH",
"480 1331 OFFCURVE",
"580 1345 OFFCURVE",
"687 1538 CURVE SMOOTH",
"698 1558 OFFCURVE",
"705 1580 OFFCURVE",
"738 1580 CURVE SMOOTH",
"766 1580 LINE SMOOTH",
"791 1580 OFFCURVE",
"805 1578 OFFCURVE",
"800 1554 CURVE SMOOTH",
"500 162 LINE SMOOTH",
"490 117 OFFCURVE",
"506 110 OFFCURVE",
"554 110 CURVE SMOOTH",
"766 110 LINE SMOOTH",
"792 110 OFFCURVE",
"810 109 OFFCURVE",
"810 80 CURVE SMOOTH",
"810 40 LINE SMOOTH",
"810 8 OFFCURVE",
"807 0 OFFCURVE",
"776 0 CURVE SMOOTH",
"-6 0 LINE SMOOTH",
"-36 0 OFFCURVE",
"-40 7 OFFCURVE",
"-40 38 CURVE SMOOTH"
);
}
);
vertWidth = 2310;
width = 1050;
},
{
layerId = "166B8CC3-B8B2-42DF-8AC5-58EF4CD93FB2";
paths = (
{
closed = 1;
nodes = (
"-10 166 LINE SMOOTH",
"-10 208 OFFCURVE",
"0 210 OFFCURVE",
"43 210 CURVE SMOOTH",
"295 210 LINE SMOOTH",
"344 210 OFFCURVE",
"350 219 OFFCURVE",
"360 264 CURVE SMOOTH",
"550 1073 LINE SMOOTH",
"550 1113 OFFCURVE",
"541 1120 OFFCURVE",
"503 1120 CURVE SMOOTH",
"299 1120 LINE SMOOTH",
"266 1120 OFFCURVE",
"254 1123 OFFCURVE",
"254 1159 CURVE SMOOTH",
"254 1279 LINE SMOOTH",
"254 1333 OFFCURVE",
"286 1330 OFFCURVE",
"333 1331 CURVE SMOOTH",
"517 1335 OFFCURVE",
"716 1360 OFFCURVE",
"829 1535 CURVE SMOOTH",
"849 1565 OFFCURVE",
"871 1580 OFFCURVE",
"923 1580 CURVE SMOOTH",
"989 1580 LINE SMOOTH",
"1032 1580 OFFCURVE",
"1049 1573 OFFCURVE",
"1040 1534 CURVE SMOOTH",
"750 266 LINE SMOOTH",
"738 215 OFFCURVE",
"760 210 OFFCURVE",
"815 210 CURVE SMOOTH",
"1037 210 LINE SMOOTH",
"1070 210 OFFCURVE",
"1090 206 OFFCURVE",
"1090 170 CURVE SMOOTH",
"1090 59 LINE SMOOTH",
"1090 10 OFFCURVE",
"1088 0 OFFCURVE",
"1039 0 CURVE SMOOTH",
"55 0 LINE SMOOTH",
"-3 0 OFFCURVE",
"-10 5 OFFCURVE",
"-10 65 CURVE SMOOTH"
);
}
);
vertWidth = 2310;
width = 1200;
},
{
layerId = "6A50D5EA-2B4A-4D44-BCCC-14A16F5631EA";
paths = (
{
closed = 1;
nodes = (
"-23 166 LINE SMOOTH",
"-14 208 OFFCURVE",
"-3 210 OFFCURVE",
"40 210 CURVE SMOOTH",
"132 210 LINE SMOOTH",
"181 210 OFFCURVE",
"189 217 OFFCURVE",
"199 264 CURVE SMOOTH",
"367 1023 LINE SMOOTH",
"376 1063 OFFCURVE",
"368 1070 OFFCURVE",
"330 1070 CURVE SMOOTH",
"256 1070 LINE SMOOTH",
"223 1070 OFFCURVE",
"212 1073 OFFCURVE",
"220 1109 CURVE SMOOTH",
"246 1229 LINE SMOOTH",
"258 1283 OFFCURVE",
"290 1279 OFFCURVE",
"337 1281 CURVE SMOOTH",
"422 1285 OFFCURVE",
"516 1310 OFFCURVE",
"648 1485 CURVE SMOOTH",
"672 1517 OFFCURVE",
"680 1530 OFFCURVE",
"732 1530 CURVE SMOOTH",
"818 1530 LINE SMOOTH",
"861 1530 OFFCURVE",
"868 1525 OFFCURVE",
"859 1484 CURVE SMOOTH",
"589 266 LINE SMOOTH",
"577 212 OFFCURVE",
"587 210 OFFCURVE",
"642 210 CURVE SMOOTH",
"714 210 LINE SMOOTH",
"747 210 OFFCURVE",
"766 206 OFFCURVE",
"758 170 CURVE SMOOTH",
"733 59 LINE SMOOTH",
"722 10 OFFCURVE",
"718 0 OFFCURVE",
"669 0 CURVE SMOOTH",
"5 0 LINE SMOOTH",
"-53 0 OFFCURVE",
"-59 5 OFFCURVE",
"-46 65 CURVE SMOOTH"
);
}
);
vertWidth = 2310;
width = 920;
},
{
layerId = "5A070E73-1DB9-476B-9E26-8EFE8B60F44F";
paths = (
{
closed = 1;
nodes = (
"-32 80 LINE SMOOTH",
"-32 109 OFFCURVE",
"-25 110 OFFCURVE",
"4 110 CURVE SMOOTH",
"122 110 LINE SMOOTH",
"158 110 OFFCURVE",
"166 118 OFFCURVE",
"174 152 CURVE SMOOTH",
"400 1173 LINE SMOOTH",
"408 1209 OFFCURVE",
"407 1220 OFFCURVE",
"372 1220 CURVE SMOOTH",
"275 1220 LINE SMOOTH",
"246 1220 OFFCURVE",
"239 1222 OFFCURVE",
"239 1254 CURVE SMOOTH",
"239 1284 LINE SMOOTH",
"239 1320 OFFCURVE",
"253 1329 OFFCURVE",
"291 1330 CURVE SMOOTH",
"365 1331 OFFCURVE",
"473 1345 OFFCURVE",
"563 1538 CURVE SMOOTH",
"574 1561 OFFCURVE",
"580 1580 OFFCURVE",
"614 1580 CURVE SMOOTH",
"642 1580 LINE SMOOTH",
"667 1580 OFFCURVE",
"681 1579 OFFCURVE",
"675 1554 CURVE SMOOTH",
"366 162 LINE SMOOTH",
"356 115 OFFCURVE",
"360 110 OFFCURVE",
"408 110 CURVE SMOOTH",
"470 110 LINE SMOOTH",
"496 110 OFFCURVE",
"518 108.832 OFFCURVE",
"518 80 CURVE SMOOTH",
"518 40 LINE SMOOTH",
"518 8.17 OFFCURVE",
"506 0 OFFCURVE",
"475 0 CURVE SMOOTH",
"4 0 LINE SMOOTH",
"-26 0 OFFCURVE",
"-32 7 OFFCURVE",
"-32 38 CURVE SMOOTH"
);
}
);
vertWidth = 2310;
width = 700;
}
);
unicode = 0031;
},
{
glyphname = two;
layers = (
{
layerId = "C788331E-5670-44D3-9D66-EAA382172B0D";
paths = (
{
closed = 1;
nodes = (
"985 63 OFFCURVE",
"813 -20 OFFCURVE",
"640 -20 CURVE SMOOTH",
"426 -20 OFFCURVE",
"306 100 OFFCURVE",
"160 100 CURVE SMOOTH",
"101 100 OFFCURVE",
"70 73 OFFCURVE",
"50 30 CURVE SMOOTH",
"43 13 OFFCURVE",
"38 0 OFFCURVE",
"11 0 CURVE SMOOTH",
"-37 0 LINE SMOOTH",
"-58 0 OFFCURVE",
"-60 10 OFFCURVE",
"-60 29 CURVE SMOOTH",
"-51 307 OFFCURVE",
"226 517 OFFCURVE",
"514 698 CURVE SMOOTH",
"662 791 OFFCURVE",
"934 992 OFFCURVE",
"934 1220 CURVE SMOOTH",
"934 1378 OFFCURVE",
"832 1436 OFFCURVE",
"674 1436 CURVE SMOOTH",
"516 1436 OFFCURVE",
"370 1348 OFFCURVE",
"370 1294 CURVE SMOOTH",
"370 1248 OFFCURVE",
"464 1238 OFFCURVE",
"464 1146 CURVE SMOOTH",
"464 1072 OFFCURVE",
"399 1030 OFFCURVE",
"345 1030 CURVE SMOOTH",
"277 1030 OFFCURVE",
"212 1076 OFFCURVE",
"212 1162 CURVE SMOOTH",
"212 1346 OFFCURVE",
"410 1520 OFFCURVE",
"704 1520 CURVE SMOOTH",
"966 1520 OFFCURVE",
"1156 1430 OFFCURVE",
"1156 1200 CURVE SMOOTH",
"1156 960 OFFCURVE",
"847 740 OFFCURVE",
"564 600 CURVE SMOOTH",
"367 502 OFFCURVE",
"150 319 OFFCURVE",
"67 204 CURVE SMOOTH",
"43 170 OFFCURVE",
"30 134 OFFCURVE",
"46 134 CURVE SMOOTH",
"65 134 OFFCURVE",
"63 163 OFFCURVE",
"90 191 CURVE SMOOTH",
"136 238 OFFCURVE",
"240 269 OFFCURVE",
"320 269 CURVE SMOOTH",
"470 269 OFFCURVE",
"550 181 OFFCURVE",
"702 181 CURVE SMOOTH",
"819 181 OFFCURVE",
"868 235 OFFCURVE",
"875 327 CURVE SMOOTH",
"878 350 OFFCURVE",
"877 354 OFFCURVE",
"903 354 CURVE SMOOTH",
"944 354 LINE SMOOTH",
"967 354 OFFCURVE",
"969 349 OFFCURVE",
"970 325 CURVE SMOOTH"
);
}
);
vertWidth = 2310;
width = 1140;
},
{
layerId = "166B8CC3-B8B2-42DF-8AC5-58EF4CD93FB2";
paths = (
{
closed = 1;
nodes = (
"1273 191 OFFCURVE",
"1043 -20 OFFCURVE",
"775 -20 CURVE SMOOTH",
"541 -20 OFFCURVE",
"431 100 OFFCURVE",
"285 100 CURVE SMOOTH",
"228 100 OFFCURVE",
"191 74 OFFCURVE",
"168 34 CURVE SMOOTH",
"152 7 OFFCURVE",
"158 0 OFFCURVE",
"113 0 CURVE SMOOTH",
"-29 0 LINE SMOOTH",
"-68 0 OFFCURVE",
"-74 4 OFFCURVE",
"-74 42 CURVE SMOOTH",
"-73 270 OFFCURVE",
"174 589 OFFCURVE",
"469 748 CURVE SMOOTH",
"697 871 OFFCURVE",
"999 1022 OFFCURVE",
"999 1200 CURVE SMOOTH",
"999 1298 OFFCURVE",
"937 1346 OFFCURVE",
"789 1346 CURVE SMOOTH",
"661 1346 OFFCURVE",
"497 1298 OFFCURVE",
"497 1254 CURVE SMOOTH",
"497 1218 OFFCURVE",
"659 1228 OFFCURVE",
"659 1056 CURVE SMOOTH",
"659 922 OFFCURVE",
"554 850 OFFCURVE",
"440 850 CURVE SMOOTH",
"322 850 OFFCURVE",
"207 926 OFFCURVE",
"207 1082 CURVE SMOOTH",
"207 1356 OFFCURVE",
"565 1520 OFFCURVE",
"919 1520 CURVE SMOOTH",
"1221 1520 OFFCURVE",
"1421 1450 OFFCURVE",
"1421 1190 CURVE SMOOTH",
"1421 910 OFFCURVE",
"1010 792 OFFCURVE",
"709 660 CURVE SMOOTH",
"541 586 OFFCURVE",
"403 501 OFFCURVE",
"340 441 CURVE SMOOTH",
"288 392 OFFCURVE",
"221 307 OFFCURVE",
"242 301 CURVE SMOOTH",
"275 291 OFFCURVE",
"284 356 OFFCURVE",
"366 414 CURVE SMOOTH",
"419 451 OFFCURVE",
"519 469 OFFCURVE",
"585 469 CURVE SMOOTH",
"755 469 OFFCURVE",
"785 381 OFFCURVE",
"937 381 CURVE SMOOTH",
"1044 381 OFFCURVE",
"1125 431 OFFCURVE",
"1138 510 CURVE SMOOTH",
"1144 552 OFFCURVE",
"1139 554 OFFCURVE",
"1187 554 CURVE SMOOTH",
"1293 554 LINE SMOOTH",
"1337 554 OFFCURVE",
"1342 551 OFFCURVE",
"1334 510 CURVE SMOOTH"
);
}
);
vertWidth = 2310;
width = 1425;
},
{
layerId = "6A50D5EA-2B4A-4D44-BCCC-14A16F5631EA";
paths = (
{
closed = 1;
nodes = (
"944 141 OFFCURVE",
"839 -20 OFFCURVE",
"591 -20 CURVE SMOOTH",
"407 -20 OFFCURVE",
"393 100 OFFCURVE",
"307 100 CURVE SMOOTH",
"250 100 OFFCURVE",
"207 74 OFFCURVE",
"175 34 CURVE SMOOTH",
"153 7 OFFCURVE",
"158 0 OFFCURVE",
"113 0 CURVE SMOOTH",
"-29 0 LINE SMOOTH",
"-68 0 OFFCURVE",
"-73 4 OFFCURVE",
"-65 42 CURVE SMOOTH",
"-2 320 OFFCURVE",
"156 626 OFFCURVE",
"478 808 CURVE SMOOTH",
"624 891 OFFCURVE",
"675 972 OFFCURVE",
"714 1150 CURVE SMOOTH",
"745 1288 OFFCURVE",
"733 1336 OFFCURVE",
"665 1336 CURVE SMOOTH",
"617 1336 OFFCURVE",
"565 1302 OFFCURVE",
"559 1274 CURVE SMOOTH",
"551 1238 OFFCURVE",
"681 1228 OFFCURVE",
"643 1056 CURVE SMOOTH",
"613 922 OFFCURVE",
"492 850 OFFCURVE",
"378 850 CURVE SMOOTH",
"260 850 OFFCURVE",
"166 946 OFFCURVE",
"201 1102 CURVE SMOOTH",
"262 1376 OFFCURVE",
"472 1520 OFFCURVE",
"766 1520 CURVE SMOOTH",
"1038 1520 OFFCURVE",
"1183 1360 OFFCURVE",
"1134 1140 CURVE SMOOTH",
"1081 900 OFFCURVE",
"801 768 OFFCURVE",
"617 670 CURVE SMOOTH",
"429 571 OFFCURVE",
"372 516 OFFCURVE",
"322 441 CURVE SMOOTH",
"279 375 OFFCURVE",
"227 301 OFFCURVE",
"249 301 CURVE SMOOTH",
"272 301 OFFCURVE",
"273 356 OFFCURVE",
"348 414 CURVE SMOOTH",
"405 458 OFFCURVE",
"453 469 OFFCURVE",
"489 469 CURVE SMOOTH",
"599 469 OFFCURVE",
"609 381 OFFCURVE",
"701 381 CURVE SMOOTH",
"778 381 OFFCURVE",
"810 431 OFFCURVE",
"841 510 CURVE SMOOTH",
"856 552 OFFCURVE",
"852 554 OFFCURVE",
"900 554 CURVE SMOOTH",
"1006 554 LINE SMOOTH",
"1050 554 OFFCURVE",
"1046 552 OFFCURVE",
"1037 510 CURVE SMOOTH"
);
}
);
vertWidth = 2310;
width = 1094;
},
{
layerId = "5A070E73-1DB9-476B-9E26-8EFE8B60F44F";
paths = (
{
closed = 1;
nodes = (
"669 63 OFFCURVE",
"589 -20 OFFCURVE",
"466 -20 CURVE SMOOTH",
"302 -20 OFFCURVE",
"288 100 OFFCURVE",
"192 100 CURVE SMOOTH",
"133 100 OFFCURVE",
"97 73 OFFCURVE",
"67 30 CURVE SMOOTH",
"56 13 OFFCURVE",
"48 0 OFFCURVE",
"21 0 CURVE SMOOTH",
"-27 0 LINE SMOOTH",
"-48 0 OFFCURVE",
"-48 10 OFFCURVE",
"-44 29 CURVE SMOOTH",
"27 307 OFFCURVE",
"166 501 OFFCURVE",
"389 698 CURVE SMOOTH",
"516 810 OFFCURVE",
"632 942 OFFCURVE",
"683 1170 CURVE SMOOTH",
"722 1348 OFFCURVE",
"698 1426 OFFCURVE",
"570 1426 CURVE SMOOTH",
"463 1426 OFFCURVE",
"412 1358 OFFCURVE",
"404 1324 CURVE SMOOTH",
"394 1278 OFFCURVE",
"513 1258 OFFCURVE",
"488 1146 CURVE SMOOTH",
"472 1072 OFFCURVE",
"397 1030 OFFCURVE",
"343 1030 CURVE SMOOTH",
"285 1030 OFFCURVE",
"213 1086 OFFCURVE",
"241 1212 CURVE SMOOTH",
"271 1346 OFFCURVE",
"397 1520 OFFCURVE",
"661 1520 CURVE SMOOTH",
"893 1520 OFFCURVE",
"954 1390 OFFCURVE",
"905 1170 CURVE SMOOTH",
"852 930 OFFCURVE",
"686 755 OFFCURVE",
"413 580 CURVE SMOOTH",
"278 493 OFFCURVE",
"168 339 OFFCURVE",
"115 204 CURVE SMOOTH",
"99 163 OFFCURVE",
"70 134 OFFCURVE",
"86 134 CURVE SMOOTH",
"105 134 OFFCURVE",
"115 157 OFFCURVE",
"142 191 CURVE SMOOTH",
"178 238 OFFCURVE",
"230 269 OFFCURVE",
"310 269 CURVE SMOOTH",
"410 269 OFFCURVE",
"420 181 OFFCURVE",
"512 181 CURVE SMOOTH",
"569 181 OFFCURVE",
"590 235 OFFCURVE",
"617 327 CURVE SMOOTH",
"625 350 OFFCURVE",
"625 354 OFFCURVE",
"651 354 CURVE SMOOTH",
"692 354 LINE SMOOTH",
"715 354 OFFCURVE",
"716 349 OFFCURVE",
"712 325 CURVE SMOOTH"
);
}
);
vertWidth = 2310;
width = 840;
}
);
unicode = 0032;
},
{
glyphname = three;
layers = (
{
layerId = "C788331E-5670-44D3-9D66-EAA382172B0D";
paths = (
{
closed = 1;
nodes = (
"-70 394 OFFCURVE",
"0 430 OFFCURVE",
"58 430 CURVE SMOOTH",
"112 430 OFFCURVE",
"172 388 OFFCURVE",
"172 314 CURVE SMOOTH",
"172 242 OFFCURVE",
"108 232 OFFCURVE",
"108 186 CURVE SMOOTH",
"108 132 OFFCURVE",
"194 64 OFFCURVE",
"362 64 CURVE SMOOTH",
"580 64 OFFCURVE",
"718 272 OFFCURVE",
"718 450 CURVE SMOOTH",
"718 584 OFFCURVE",
"672 685 OFFCURVE",
"474 717 CURVE SMOOTH",
"428 724 OFFCURVE",
"384 703 OFFCURVE",
"384 762 CURVE SMOOTH",
"384 780 LINE SMOOTH",
"384 839 OFFCURVE",
"429 819 OFFCURVE",
"474 826 CURVE SMOOTH",
"725 864 OFFCURVE",
"838 1056 OFFCURVE",
"838 1242 CURVE SMOOTH",
"838 1360 OFFCURVE",
"730 1436 OFFCURVE",
"582 1436 CURVE SMOOTH",
"454 1436 OFFCURVE",
"388 1370 OFFCURVE",
"388 1316 CURVE SMOOTH",
"388 1270 OFFCURVE",
"452 1260 OFFCURVE",
"452 1188 CURVE SMOOTH",
"452 1114 OFFCURVE",
"392 1072 OFFCURVE",
"338 1072 CURVE SMOOTH",
"280 1072 OFFCURVE",
"210 1108 OFFCURVE",
"210 1204 CURVE SMOOTH",
"210 1368 OFFCURVE",
"338 1520 OFFCURVE",
"622 1520 CURVE SMOOTH",
"854 1520 OFFCURVE",
"1040 1422 OFFCURVE",
"1040 1212 CURVE SMOOTH",
"1040 986 OFFCURVE",
"906 896 OFFCURVE",
"732 814 CURVE SMOOTH",
"657 779 OFFCURVE",
"646 792 OFFCURVE",
"646 770 CURVE SMOOTH",
"646 754 OFFCURVE",
"684 759 OFFCURVE",
"726 743 CURVE SMOOTH",
"854 693 OFFCURVE",
"920 604 OFFCURVE",
"920 450 CURVE SMOOTH",
"920 180 OFFCURVE",
"704 -20 OFFCURVE",
"382 -20 CURVE SMOOTH",
"78 -20 OFFCURVE",
"-70 134 OFFCURVE",
"-70 298 CURVE SMOOTH"
);
}
);
vertWidth = 2310;
width = 1060;
},
{
layerId = "166B8CC3-B8B2-42DF-8AC5-58EF4CD93FB2";
paths = (
{
closed = 1;
nodes = (
"-20 484 OFFCURVE",
"70 590 OFFCURVE",
"218 590 CURVE SMOOTH",
"352 590 OFFCURVE",
"422 518 OFFCURVE",
"422 424 CURVE SMOOTH",
"422 292 OFFCURVE",
"297 292 OFFCURVE",
"297 246 CURVE SMOOTH",
"297 192 OFFCURVE",
"394 164 OFFCURVE",
"472 164 CURVE SMOOTH",
"620 164 OFFCURVE",
"758 262 OFFCURVE",
"758 470 CURVE SMOOTH",
"758 606 OFFCURVE",
"689 655 OFFCURVE",
"556 670 CURVE SMOOTH",
"518 674 OFFCURVE",
"504 663 OFFCURVE",
"504 707 CURVE SMOOTH",
"504 838 LINE SMOOTH",
"504 877 OFFCURVE",
"513 869 OFFCURVE",
"547 872 CURVE SMOOTH",
"731 886 OFFCURVE",
"878 1055 OFFCURVE",
"878 1202 CURVE SMOOTH",
"878 1310 OFFCURVE",
"780 1346 OFFCURVE",
"652 1346 CURVE SMOOTH",
"594 1346 OFFCURVE",
"528 1330 OFFCURVE",
"528 1296 CURVE SMOOTH",
"528 1250 OFFCURVE",
"662 1260 OFFCURVE",
"662 1118 CURVE SMOOTH",
"662 1034 OFFCURVE",
"582 952 OFFCURVE",
"458 952 CURVE SMOOTH",
"340 952 OFFCURVE",
"220 1028 OFFCURVE",
"220 1174 CURVE SMOOTH",
"220 1368 OFFCURVE",
"468 1520 OFFCURVE",
"782 1520 CURVE SMOOTH",
"1114 1520 OFFCURVE",
"1280 1402 OFFCURVE",
"1280 1212 CURVE SMOOTH",
"1280 988 OFFCURVE",
"1065 868 OFFCURVE",
"844 798 CURVE SMOOTH",
"800 784 OFFCURVE",
"770 789 OFFCURVE",
"770 775 CURVE SMOOTH",
"770 758 OFFCURVE",
"789 766 OFFCURVE",
"844 752 CURVE SMOOTH",
"1082 689 OFFCURVE",
"1150 621 OFFCURVE",
"1150 460 CURVE SMOOTH",
"1150 160 OFFCURVE",
"784 -20 OFFCURVE",
"482 -20 CURVE SMOOTH",
"158 -20 OFFCURVE",
"-20 154 OFFCURVE",
"-20 348 CURVE SMOOTH"
);
}
);
vertWidth = 2310;
width = 1235;
},
{
layerId = "6A50D5EA-2B4A-4D44-BCCC-14A16F5631EA";
paths = (
{
closed = 1;
nodes = (
"27 484 OFFCURVE",
"141 590 OFFCURVE",
"289 590 CURVE SMOOTH",
"423 590 OFFCURVE",
"477 518 OFFCURVE",
"456 424 CURVE SMOOTH",
"422 272 OFFCURVE",
"285 262 OFFCURVE",
"275 216 CURVE SMOOTH",
"267 182 OFFCURVE",
"300 164 OFFCURVE",
"328 164 CURVE SMOOTH",
"406 164 OFFCURVE",
"445 212 OFFCURVE",
"491 420 CURVE SMOOTH",
"521 556 OFFCURVE",
"495 655 OFFCURVE",
"425 670 CURVE SMOOTH",
"389 678 OFFCURVE",
"371 663 OFFCURVE",
"381 707 CURVE SMOOTH",
"410 838 LINE SMOOTH",
"419 877 OFFCURVE",
"425 866 OFFCURVE",
"460 872 CURVE SMOOTH",
"547 886 OFFCURVE",
"598 995 OFFCURVE",
"631 1142 CURVE SMOOTH",
"664 1290 OFFCURVE",
"638 1346 OFFCURVE",
"570 1346 CURVE SMOOTH",
"542 1346 OFFCURVE",
"503 1330 OFFCURVE",
"495 1296 CURVE SMOOTH",
"485 1250 OFFCURVE",
"621 1260 OFFCURVE",
"590 1118 CURVE SMOOTH",
"571 1034 OFFCURVE",
"473 952 OFFCURVE",
"349 952 CURVE SMOOTH",
"231 952 OFFCURVE",
"128 1028 OFFCURVE",
"160 1174 CURVE SMOOTH",
"203 1368 OFFCURVE",
"395 1520 OFFCURVE",
"699 1520 CURVE SMOOTH",
"971 1520 OFFCURVE",
"1084 1372 OFFCURVE",
"1033 1142 CURVE SMOOTH",
"1001 998 OFFCURVE",
"902 888 OFFCURVE",
"785 818 CURVE SMOOTH",
"741 792 OFFCURVE",
"705 789 OFFCURVE",
"702 775 CURVE SMOOTH",
"698 758 OFFCURVE",
"722 759 OFFCURVE",
"766 732 CURVE SMOOTH",
"870 669 OFFCURVE",
"925 561 OFFCURVE",
"889 400 CURVE SMOOTH",
"822 100 OFFCURVE",
"600 -20 OFFCURVE",
"298 -20 CURVE SMOOTH",
"14 -20 OFFCURVE",
"-46 154 OFFCURVE",
"-3 348 CURVE SMOOTH"
);
}
);
vertWidth = 2310;
width = 960;
},
{
layerId = "5A070E73-1DB9-476B-9E26-8EFE8B60F44F";
paths = (
{
closed = 1;
nodes = (
"-4 344 OFFCURVE",
"65 430 OFFCURVE",
"143 430 CURVE SMOOTH",
"217 430 OFFCURVE",
"248 388 OFFCURVE",
"232 314 CURVE SMOOTH",
"207 202 OFFCURVE",
"103 202 OFFCURVE",
"93 156 CURVE SMOOTH",
"81 102 OFFCURVE",
"138 63 OFFCURVE",
"206 63 CURVE SMOOTH",
"374 63 OFFCURVE",
"449 232 OFFCURVE",
"482 380 CURVE SMOOTH",
"523 564 OFFCURVE",
"498 705 OFFCURVE",
"353 717 CURVE SMOOTH",
"308 721 OFFCURVE",
"277 703 OFFCURVE",
"277 762 CURVE SMOOTH",
"277 780 LINE SMOOTH",
"277 839 OFFCURVE",
"331 823 OFFCURVE",
"377 826 CURVE SMOOTH",
"520 834 OFFCURVE",
"593 1026 OFFCURVE",
"619 1142 CURVE SMOOTH",
"652 1290 OFFCURVE",
"658 1436 OFFCURVE",
"520 1436 CURVE SMOOTH",
"422 1436 OFFCURVE",
"376 1390 OFFCURVE",
"364 1336 CURVE SMOOTH",
"354 1290 OFFCURVE",
"480 1300 OFFCURVE",
"455 1188 CURVE SMOOTH",
"439 1114 OFFCURVE",
"390 1072 OFFCURVE",
"316 1072 CURVE SMOOTH",
"238 1072 OFFCURVE",
"207 1158 OFFCURVE",
"228 1254 CURVE SMOOTH",
"255 1378 OFFCURVE",
"365 1520 OFFCURVE",
"589 1520 CURVE SMOOTH",
"811 1520 OFFCURVE",
"866 1382 OFFCURVE",
"822 1182 CURVE SMOOTH",
"759 896 OFFCURVE",
"666 881 OFFCURVE",
"587 834 CURVE SMOOTH",
"538 805 OFFCURVE",
"492 792 OFFCURVE",
"487 770 CURVE SMOOTH",
"483 754 OFFCURVE",
"519 746 OFFCURVE",
"559 733 CURVE SMOOTH",
"706 683 OFFCURVE",
"718 534 OFFCURVE",
"684 380 CURVE SMOOTH",
"635 160 OFFCURVE",
"470 -20 OFFCURVE",
"188 -20 CURVE SMOOTH",
"14 -20 OFFCURVE",
"-59 94 OFFCURVE",
"-25 248 CURVE SMOOTH"
);
}
);
vertWidth = 2310;
width = 780;
}
);
unicode = 0033;
},
{
glyphname = four;
layers = (
{
layerId = "C788331E-5670-44D3-9D66-EAA382172B0D";
paths = (
{
closed = 1;
nodes = (
"880 26 LINE SMOOTH",
"880 3 OFFCURVE",
"873 0 OFFCURVE",
"849 0 CURVE SMOOTH",
"382 0 LINE SMOOTH",
"357 0 OFFCURVE",
"350 5 OFFCURVE",
"350 32 CURVE SMOOTH",
"350 77 LINE SMOOTH",
"350 103 OFFCURVE",
"355 110 OFFCURVE",
"380 110 CURVE SMOOTH",
"522 110 LINE SMOOTH",
"543 110 OFFCURVE",
"556 116 OFFCURVE",
"560 135 CURVE SMOOTH",
"620 422 LINE SMOOTH",
"626 452 OFFCURVE",
"617 460 OFFCURVE",
"587 460 CURVE SMOOTH",
"114 460 LINE SMOOTH",
"84 460 OFFCURVE",
"77 463 OFFCURVE",
"63 477 CURVE SMOOTH",
"37 503 LINE SMOOTH",
"18 522 OFFCURVE",
"23 528 OFFCURVE",
"34 555 CURVE SMOOTH",
"174 886 OFFCURVE",
"756 1050 OFFCURVE",
"858 1447 CURVE SMOOTH",
"866 1477 OFFCURVE",
"858 1500 OFFCURVE",
"899 1500 CURVE SMOOTH",
"1008 1500 LINE SMOOTH",
"1049 1500 OFFCURVE",
"1057 1496 OFFCURVE",
"1052 1459 CURVE SMOOTH",
"997 1047 OFFCURVE",
"332 844 OFFCURVE",
"194 618 CURVE SMOOTH",
"175 587 OFFCURVE",
"183 570 OFFCURVE",
"240 570 CURVE SMOOTH",
"631 570 LINE SMOOTH",
"652 570 OFFCURVE",
"655 576 OFFCURVE",
"659 595 CURVE SMOOTH",
"684 720 LINE SMOOTH",
"690 752 OFFCURVE",
"697 752 OFFCURVE",
"714 765 CURVE SMOOTH",
"761 801 OFFCURVE",
"830 848 OFFCURVE",
"860 938 CURVE SMOOTH",
"866 955 OFFCURVE",
"868 970 OFFCURVE",
"893 970 CURVE SMOOTH",
"899 970 LINE SMOOTH",
"925 970 OFFCURVE",
"925 962 OFFCURVE",
"920 939 CURVE SMOOTH",
"849 614 LINE SMOOTH",
"841 578 OFFCURVE",
"854 570 OFFCURVE",
"891 570 CURVE SMOOTH",
"979 570 LINE SMOOTH",
"1006 570 OFFCURVE",
"1010 563 OFFCURVE",
"1010 535 CURVE SMOOTH",
"1010 490 LINE SMOOTH",
"1010 463 OFFCURVE",
"1002 460 OFFCURVE",
"974 460 CURVE SMOOTH",
"855 460 LINE SMOOTH",
"824 460 OFFCURVE",
"816 449 OFFCURVE",
"810 421 CURVE SMOOTH",
"750 146 LINE SMOOTH",
"744 116 OFFCURVE",
"746 110 OFFCURVE",
"778 110 CURVE SMOOTH",
"845 110 LINE SMOOTH",
"870 110 OFFCURVE",
"880 109 OFFCURVE",
"880 84 CURVE SMOOTH"
);
}
);
vertWidth = 2310;
width = 1080;
},
{
layerId = "166B8CC3-B8B2-42DF-8AC5-58EF4CD93FB2";
paths = (
{
closed = 1;
nodes = (
"1140 36 LINE SMOOTH",
"1140 3 OFFCURVE",
"1132 0 OFFCURVE",
"1098 0 CURVE SMOOTH",
"366 0 LINE SMOOTH",
"319 0 OFFCURVE",
"310 1 OFFCURVE",
"310 48 CURVE SMOOTH",
"310 165 LINE SMOOTH",
"310 201 OFFCURVE",
"317 210 OFFCURVE",
"354 210 CURVE SMOOTH",
"533 210 LINE SMOOTH",
"577 210 OFFCURVE",
"579 220 OFFCURVE",
"590 262 CURVE SMOOTH",
"615 356 LINE SMOOTH",
"628 407 OFFCURVE",
"600 410 OFFCURVE",
"546 410 CURVE SMOOTH",
"88 410 LINE SMOOTH",
"45 410 OFFCURVE",
"45 418 OFFCURVE",
"31 444 CURVE SMOOTH",
"0 502 LINE SMOOTH",
"-12 523 OFFCURVE",
"-5 532 OFFCURVE",
"6 554 CURVE SMOOTH",
"163 868 OFFCURVE",
"795 1048 OFFCURVE",
"898 1444 CURVE SMOOTH",
"909 1486 OFFCURVE",
"910 1500 OFFCURVE",
"966 1500 CURVE SMOOTH",
"1236 1500 LINE SMOOTH",
"1289 1500 OFFCURVE",
"1298 1495 OFFCURVE",
"1290 1448 CURVE SMOOTH",
"1226 1062 OFFCURVE",
"577 911 OFFCURVE",
"381 692 CURVE SMOOTH",
"354 662 OFFCURVE",
"329 620 OFFCURVE",
"407 620 CURVE SMOOTH",
"632 620 LINE SMOOTH",
"667 620 OFFCURVE",
"667 634 OFFCURVE",
"680 664 CURVE SMOOTH",
"695 710 LINE SMOOTH",
"712 749 OFFCURVE",
"711 754 OFFCURVE",
"742 771 CURVE SMOOTH",
"808 806 OFFCURVE",
"947 854 OFFCURVE",
"988 940 CURVE SMOOTH",
"997 960 OFFCURVE",
"1003 970 OFFCURVE",
"1034 970 CURVE SMOOTH",
"1100 970 LINE SMOOTH",
"1131 970 OFFCURVE",
"1147 968 OFFCURVE",
"1140 938 CURVE SMOOTH",
"1078 678 LINE SMOOTH",
"1071 647 OFFCURVE",
"1087 620 OFFCURVE",
"1124 620 CURVE SMOOTH",
"1254 620 LINE SMOOTH",
"1286 620 OFFCURVE",
"1290 612 OFFCURVE",
"1290 582 CURVE SMOOTH",
"1290 466 LINE SMOOTH",
"1290 420 OFFCURVE",
"1290 410 OFFCURVE",
"1244 410 CURVE SMOOTH",
"1059 410 LINE SMOOTH",
"1018 410 OFFCURVE",
"1016 403 OFFCURVE",
"1005 362 CURVE SMOOTH",
"979 262 LINE SMOOTH",
"968 220 OFFCURVE",
"984 210 OFFCURVE",
"1031 210 CURVE SMOOTH",
"1096 210 LINE SMOOTH",
"1135 210 OFFCURVE",
"1140 204 OFFCURVE",
"1140 164 CURVE SMOOTH"
);
}
);
vertWidth = 2310;
width = 1310;
},
{
layerId = "6A50D5EA-2B4A-4D44-BCCC-14A16F5631EA";
paths = (
{
closed = 1;
nodes = (
"814 36 LINE SMOOTH",
"807 3 OFFCURVE",
"798 0 OFFCURVE",
"764 0 CURVE SMOOTH",
"232 0 LINE SMOOTH",
"185 0 OFFCURVE",
"177 1 OFFCURVE",
"187 48 CURVE SMOOTH",
"213 165 LINE SMOOTH",
"221 201 OFFCURVE",
"230 210 OFFCURVE",
"267 210 CURVE SMOOTH",
"316 210 LINE SMOOTH",
"360 210 OFFCURVE",
"364 217 OFFCURVE",
"374 262 CURVE SMOOTH",
"395 356 LINE SMOOTH",
"407 410 OFFCURVE",
"407 410 OFFCURVE",
"353 410 CURVE SMOOTH",
"55 410 LINE SMOOTH",
"12 410 OFFCURVE",
"13 418 OFFCURVE",
"5 444 CURVE SMOOTH",
"-13 502 LINE SMOOTH",
"-20 523 OFFCURVE",
"-11 532 OFFCURVE",
"5 554 CURVE SMOOTH",
"232 868 OFFCURVE",
"483 1048 OFFCURVE",
"674 1444 CURVE SMOOTH",
"694 1486 OFFCURVE",
"699 1500 OFFCURVE",
"755 1500 CURVE SMOOTH",
"1025 1500 LINE SMOOTH",
"1078 1500 OFFCURVE",
"1085 1495 OFFCURVE",
"1067 1448 CURVE SMOOTH",
"917 1062 OFFCURVE",
"605 911 OFFCURVE",
"360 692 CURVE SMOOTH",
"326 662 OFFCURVE",
"292 620 OFFCURVE",
"370 620 CURVE SMOOTH",
"415 620 LINE SMOOTH",
"450 620 OFFCURVE",
"455 628 OFFCURVE",
"463 664 CURVE SMOOTH",
"473 710 LINE SMOOTH",
"483 757 OFFCURVE",
"494 754 OFFCURVE",
"529 771 CURVE SMOOTH",
"603 806 OFFCURVE",
"702 854 OFFCURVE",
"762 940 CURVE SMOOTH",
"775 960 OFFCURVE",
"784 970 OFFCURVE",
"815 970 CURVE SMOOTH",
"881 970 LINE SMOOTH",
"912 970 OFFCURVE",
"921 969 OFFCURVE",
"914 938 CURVE SMOOTH",
"856 678 LINE SMOOTH",
"849 645 OFFCURVE",
"852 620 OFFCURVE",
"889 620 CURVE SMOOTH",
"937 620 LINE SMOOTH",
"969 620 OFFCURVE",
"972 612 OFFCURVE",
"965 582 CURVE SMOOTH",
"939 466 LINE SMOOTH",
"929 420 OFFCURVE",
"927 410 OFFCURVE",
"881 410 CURVE SMOOTH",
"851 410 LINE SMOOTH",
"810 410 OFFCURVE",
"796 406 OFFCURVE",
"786 362 CURVE SMOOTH",
"764 262 LINE SMOOTH",
"754 217 OFFCURVE",
"758 210 OFFCURVE",
"805 210 CURVE SMOOTH",
"809 210 LINE SMOOTH",
"848 210 OFFCURVE",
"851 204 OFFCURVE",
"842 164 CURVE SMOOTH"
);
}
);
vertWidth = 2310;
width = 984;
},
{
layerId = "5A070E73-1DB9-476B-9E26-8EFE8B60F44F";
paths = (
{
closed = 1;
nodes = (
"689 36 LINE SMOOTH",
"689 13 OFFCURVE",
"676 0 OFFCURVE",
"652 0 CURVE SMOOTH",
"322 0 LINE SMOOTH",
"297 0 OFFCURVE",
"287 5 OFFCURVE",
"287 32 CURVE SMOOTH",
"287 77 LINE SMOOTH",
"287 103 OFFCURVE",
"299 110 OFFCURVE",
"324 110 CURVE SMOOTH",
"356 110 LINE SMOOTH",
"377 110 OFFCURVE",
"386 115 OFFCURVE",
"390 135 CURVE SMOOTH",
"454 422 LINE SMOOTH",
"461 453 OFFCURVE",
"459 460 OFFCURVE",
"429 460 CURVE SMOOTH",
"126 460 LINE SMOOTH",
"96 460 OFFCURVE",
"90 463 OFFCURVE",
"79 477 CURVE SMOOTH",
"59 503 LINE SMOOTH",
"44 522 OFFCURVE",
"50 528 OFFCURVE",
"67 555 CURVE SMOOTH",
"280 886 OFFCURVE",
"529 1050 OFFCURVE",
"719 1447 CURVE SMOOTH",
"734 1477 OFFCURVE",
"731 1500 OFFCURVE",
"772 1500 CURVE SMOOTH",
"881 1500 LINE SMOOTH",
"922 1500 OFFCURVE",
"928 1496 OFFCURVE",
"915 1459 CURVE SMOOTH",
"769 1047 OFFCURVE",
"456 874 OFFCURVE",
"241 618 CURVE SMOOTH",
"215 587 OFFCURVE",
"219 570 OFFCURVE",
"276 570 CURVE SMOOTH",
"468 570 LINE SMOOTH",
"489 570 OFFCURVE",
"488 575 OFFCURVE",
"492 595 CURVE SMOOTH",
"520 720 LINE SMOOTH",
"527 753 OFFCURVE",
"535 752 OFFCURVE",
"555 765 CURVE SMOOTH",
"610 801 OFFCURVE",
"648 848 OFFCURVE",
"698 938 CURVE SMOOTH",
"708 955 OFFCURVE",
"708 970 OFFCURVE",
"733 970 CURVE SMOOTH",
"739 970 LINE SMOOTH",
"765 970 OFFCURVE",
"763 963 OFFCURVE",
"758 939 CURVE SMOOTH",
"686 614 LINE SMOOTH",
"678 576 OFFCURVE",
"681 570 OFFCURVE",
"718 570 CURVE SMOOTH",
"775 570 LINE SMOOTH",
"802 570 OFFCURVE",
"809 563 OFFCURVE",
"809 535 CURVE SMOOTH",
"809 490 LINE SMOOTH",
"809 463 OFFCURVE",
"794 460 OFFCURVE",
"766 460 CURVE SMOOTH",
"687 460 LINE SMOOTH",
"656 460 OFFCURVE",
"649 450 OFFCURVE",
"643 421 CURVE SMOOTH",
"582 146 LINE SMOOTH",
"575 115 OFFCURVE",
"580 110 OFFCURVE",
"612 110 CURVE SMOOTH",
"649 110 LINE SMOOTH",
"674 110 OFFCURVE",
"689 109 OFFCURVE",
"689 84 CURVE SMOOTH"
);
}
);
vertWidth = 2310;
width = 870;
}
);
unicode = 0034;
},
{
glyphname = five;
layers = (
{
layerId = "C788331E-5670-44D3-9D66-EAA382172B0D";
paths = (
{
closed = 1;
nodes = (
"-50 374 OFFCURVE",
"20 410 OFFCURVE",
"78 410 CURVE SMOOTH",
"132 410 OFFCURVE",
"192 368 OFFCURVE",
"192 294 CURVE SMOOTH",
"192 222 OFFCURVE",
"128 212 OFFCURVE",
"128 166 CURVE SMOOTH",
"128 112 OFFCURVE",
"214 64 OFFCURVE",
"322 64 CURVE SMOOTH",
"520 64 OFFCURVE",
"728 322 OFFCURVE",
"728 630 CURVE SMOOTH",
"728 838 OFFCURVE",
"620 902 OFFCURVE",
"472 902 CURVE SMOOTH",
"379 902 OFFCURVE",
"306 869 OFFCURVE",
"244 803 CURVE SMOOTH",
"227 785 OFFCURVE",
"221 774 OFFCURVE",
"183 774 CURVE SMOOTH",
"141 774 LINE SMOOTH",
"103 774 OFFCURVE",
"100 790 OFFCURVE",
"110 818 CURVE SMOOTH",
"333 1462 LINE SMOOTH",
"343 1491 OFFCURVE",
"354 1500 OFFCURVE",
"388 1500 CURVE SMOOTH",
"624 1500 LINE SMOOTH",
"846 1500 OFFCURVE",
"888 1469 OFFCURVE",
"948 1536 CURVE SMOOTH",
"958 1547 OFFCURVE",
"962 1564 OFFCURVE",
"987 1564 CURVE SMOOTH",
"1044 1564 LINE SMOOTH",
"1058 1564 OFFCURVE",
"1061 1562 OFFCURVE",
"1058 1550 CURVE SMOOTH",
"1046 1500 LINE SMOOTH",
"1010 1336 OFFCURVE",
"943 1320 OFFCURVE",
"469 1320 CURVE SMOOTH",
"425 1320 LINE SMOOTH",
"395 1320 OFFCURVE",
"390 1314 OFFCURVE",
"380 1288 CURVE SMOOTH",
"262 966 LINE SMOOTH",
"246 922 OFFCURVE",
"233 894 OFFCURVE",
"241 890 CURVE SMOOTH",
"254 884 OFFCURVE",
"275 907 OFFCURVE",
"312 934 CURVE SMOOTH",
"368 974 OFFCURVE",
"458 1000 OFFCURVE",
"566 1000 CURVE SMOOTH",
"768 1000 OFFCURVE",
"935 880 OFFCURVE",
"935 640 CURVE SMOOTH",
"935 240 OFFCURVE",
"624 -20 OFFCURVE",
"342 -20 CURVE SMOOTH",
"98 -20 OFFCURVE",
"-50 114 OFFCURVE",
"-50 278 CURVE SMOOTH"
);
}
);
vertWidth = 2310;
width = 1030;
},
{
layerId = "166B8CC3-B8B2-42DF-8AC5-58EF4CD93FB2";
paths = (
{
closed = 1;
nodes = (
"-5 464 OFFCURVE",
"95 550 OFFCURVE",
"223 550 CURVE SMOOTH",
"347 550 OFFCURVE",
"427 468 OFFCURVE",
"427 384 CURVE SMOOTH",
"427 292 OFFCURVE",
"353 252 OFFCURVE",
"353 206 CURVE SMOOTH",
"353 162 OFFCURVE",
"409 144 OFFCURVE",
"487 144 CURVE SMOOTH",
"645 144 OFFCURVE",
"833 392 OFFCURVE",
"833 600 CURVE SMOOTH",
"833 768 OFFCURVE",
"755 812 OFFCURVE",
"637 812 CURVE SMOOTH",
"558 812 OFFCURVE",
"446 763 OFFCURVE",
"360 655 CURVE SMOOTH",
"344 634 OFFCURVE",
"333 624 OFFCURVE",
"294 624 CURVE SMOOTH",
"230 624 LINE SMOOTH",
"176 624 OFFCURVE",
"181 642 OFFCURVE",
"186 686 CURVE SMOOTH",
"458 1460 LINE SMOOTH",
"470 1495 OFFCURVE",
"472 1500 OFFCURVE",
"514 1500 CURVE SMOOTH",
"789 1500 LINE SMOOTH",
"990 1500 OFFCURVE",
"1152 1468 OFFCURVE",
"1218 1543 CURVE SMOOTH",
"1231 1558 OFFCURVE",
"1241 1564 OFFCURVE",
"1272 1564 CURVE SMOOTH",
"1377 1564 LINE SMOOTH",
"1403 1564 OFFCURVE",
"1414 1557 OFFCURVE",
"1409 1534 CURVE SMOOTH",
"1401 1500 LINE SMOOTH",
"1365 1336 OFFCURVE",
"1229 1120 OFFCURVE",
"755 1120 CURVE SMOOTH",
"530 1120 LINE SMOOTH",
"492 1120 OFFCURVE",
"495 1109 OFFCURVE",
"483 1078 CURVE SMOOTH",
"428 930 LINE SMOOTH",
"414 895 OFFCURVE",
"388 850 OFFCURVE",
"396 846 CURVE SMOOTH",
"411 837 OFFCURVE",
"432 872 OFFCURVE",
"464 896 CURVE SMOOTH",
"540 952 OFFCURVE",
"670 1000 OFFCURVE",
"811 1000 CURVE SMOOTH",
"1113 1000 OFFCURVE",
"1245 830 OFFCURVE",
"1245 600 CURVE SMOOTH",
"1245 260 OFFCURVE",
"909 -20 OFFCURVE",
"527 -20 CURVE SMOOTH",
"223 -20 OFFCURVE",
"-5 114 OFFCURVE",
"-5 318 CURVE SMOOTH"
);
}
);
vertWidth = 2310;
width = 1300;
},
{
layerId = "6A50D5EA-2B4A-4D44-BCCC-14A16F5631EA";
paths = (
{
closed = 1;
nodes = (
"2 464 OFFCURVE",
"122 550 OFFCURVE",
"250 550 CURVE SMOOTH",
"374 550 OFFCURVE",
"436 468 OFFCURVE",
"413 364 CURVE SMOOTH",
"384 232 OFFCURVE",
"301 242 OFFCURVE",
"291 196 CURVE SMOOTH",
"283 162 OFFCURVE",
"306 144 OFFCURVE",
"324 144 CURVE SMOOTH",
"372 144 OFFCURVE",
"435 302 OFFCURVE",
"481 510 CURVE SMOOTH",
"529 728 OFFCURVE",
"523 782 OFFCURVE",
"485 782 CURVE SMOOTH",
"456 782 OFFCURVE",
"430 763 OFFCURVE",
"320 655 CURVE SMOOTH",
"299 634 OFFCURVE",
"286 624 OFFCURVE",
"247 624 CURVE SMOOTH",
"183 624 LINE SMOOTH",
"129 624 OFFCURVE",
"138 642 OFFCURVE",
"153 686 CURVE SMOOTH",
"377 1460 LINE SMOOTH",
"389 1498 OFFCURVE",
"400 1500 OFFCURVE",
"442 1500 CURVE SMOOTH",
"497 1500 LINE SMOOTH",
"698 1500 OFFCURVE",
"792 1468 OFFCURVE",
"875 1543 CURVE SMOOTH",
"891 1558 OFFCURVE",
"903 1564 OFFCURVE",
"934 1564 CURVE SMOOTH",
"1039 1564 LINE SMOOTH",
"1065 1564 OFFCURVE",
"1074 1557 OFFCURVE",
"1064 1534 CURVE SMOOTH",
"1054 1500 LINE SMOOTH",
"1003 1334 OFFCURVE",
"962 1120 OFFCURVE",
"628 1120 CURVE SMOOTH",
"473 1120 LINE SMOOTH",
"435 1120 OFFCURVE",
"422 1111 OFFCURVE",
"417 1078 CURVE SMOOTH",
"379 930 LINE SMOOTH",
"373 893 OFFCURVE",
"355 850 OFFCURVE",
"362 846 CURVE SMOOTH",
"375 837 OFFCURVE",
"398 863 OFFCURVE",
"428 896 CURVE SMOOTH",
"489 962 OFFCURVE",
"567 1000 OFFCURVE",
"678 1000 CURVE SMOOTH",
"970 1000 OFFCURVE",
"943 780 OFFCURVE",
"881 500 CURVE SMOOTH",
"806 160 OFFCURVE",
"670 -20 OFFCURVE",
"328 -20 CURVE SMOOTH",
"24 -20 OFFCURVE",
"-75 114 OFFCURVE",
"-30 318 CURVE SMOOTH"
);
}
);
vertWidth = 2310;
width = 930;
},
{
layerId = "5A070E73-1DB9-476B-9E26-8EFE8B60F44F";
paths = (
{
closed = 1;
nodes = (
"11 364 OFFCURVE",
"91 410 OFFCURVE",
"149 410 CURVE SMOOTH",
"203 410 OFFCURVE",
"253 368 OFFCURVE",
"237 294 CURVE SMOOTH",
"221 222 OFFCURVE",
"118 182 OFFCURVE",
"108 136 CURVE SMOOTH",
"100 102 OFFCURVE",
"138 64 OFFCURVE",
"216 64 CURVE SMOOTH",
"394 64 OFFCURVE",
"494 252 OFFCURVE",
"540 460 CURVE SMOOTH",
"599 728 OFFCURVE",
"630 902 OFFCURVE",
"492 902 CURVE SMOOTH",
"409 902 OFFCURVE",
"349 869 OFFCURVE",
"282 803 CURVE SMOOTH",
"263 783 OFFCURVE",
"253 774 OFFCURVE",
"215 774 CURVE SMOOTH",
"173 774 LINE SMOOTH",
"135 774 OFFCURVE",
"140 788 OFFCURVE",
"151 818 CURVE SMOOTH",
"377 1462 LINE SMOOTH",
"388 1493 OFFCURVE",
"397 1500 OFFCURVE",
"431 1500 CURVE SMOOTH",
"577 1500 LINE SMOOTH",
"649 1500 OFFCURVE",
"734 1469 OFFCURVE",
"809 1536 CURVE SMOOTH",
"821 1547 OFFCURVE",
"829 1564 OFFCURVE",
"854 1564 CURVE SMOOTH",
"911 1564 LINE SMOOTH",
"925 1564 OFFCURVE",
"928 1562 OFFCURVE",
"922 1550 CURVE SMOOTH",
"899 1500 LINE SMOOTH",
"827 1336 OFFCURVE",
"787 1320 OFFCURVE",
"513 1320 CURVE SMOOTH",
"469 1320 LINE SMOOTH",
"439 1320 OFFCURVE",
"427 1316 OFFCURVE",
"417 1288 CURVE SMOOTH",
"303 966 LINE SMOOTH",
"286 918 OFFCURVE",
"271 894 OFFCURVE",
"278 890 CURVE SMOOTH",
"290 884 OFFCURVE",
"303 902 OFFCURVE",
"343 934 CURVE SMOOTH",
"381 964 OFFCURVE",
"460 1000 OFFCURVE",
"538 1000 CURVE SMOOTH",
"810 1000 OFFCURVE",
"813 780 OFFCURVE",
"751 500 CURVE SMOOTH",
"684 200 OFFCURVE",
"500 -20 OFFCURVE",
"218 -20 CURVE SMOOTH",
"-6 -20 OFFCURVE",
"-43 124 OFFCURVE",
"-13 258 CURVE SMOOTH"
);
}
);
vertWidth = 2310;
width = 840;
}
);
unicode = 0035;
},
{
glyphname = six;
layers = (
{
layerId = "C788331E-5670-44D3-9D66-EAA382172B0D";
paths = (
{
closed = 1;
nodes = (
"880 1408 OFFCURVE",
"861 1436 OFFCURVE",
"783 1436 CURVE SMOOTH",
"551 1436 OFFCURVE",
"415 1203 OFFCURVE",
"326 860 CURVE SMOOTH",
"317 827 OFFCURVE",
"310 814 OFFCURVE",
"316 810 CURVE SMOOTH",
"323 806 OFFCURVE",
"330 820 OFFCURVE",
"351 839 CURVE SMOOTH",
"434 913 OFFCURVE",
"544 960 OFFCURVE",
"676 960 CURVE SMOOTH",
"898 960 OFFCURVE",
"1050 800 OFFCURVE",
"980 470 CURVE SMOOTH",
"912 150 OFFCURVE",
"696 -20 OFFCURVE",
"454 -20 CURVE SMOOTH",
"132 -20 OFFCURVE",
"-24 170 OFFCURVE",
"97 740 CURVE SMOOTH",
"199 1220 OFFCURVE",
"469 1520 OFFCURVE",
"791 1520 CURVE SMOOTH",
"955 1520 OFFCURVE",
"1052 1416 OFFCURVE",
"1052 1302 CURVE SMOOTH",
"1052 1194 OFFCURVE",
"984 1150 OFFCURVE",
"926 1150 CURVE SMOOTH",
"862 1150 OFFCURVE",
"807 1190 OFFCURVE",
"807 1266 CURVE SMOOTH",
"807 1338 OFFCURVE",
"880 1355 OFFCURVE",
"880 1382 CURVE SMOOTH"
);
},
{
closed = 1;
nodes = (
"828 698 OFFCURVE",
"769 862 OFFCURVE",
"611 862 CURVE SMOOTH",
"445 862 OFFCURVE",
"293 720 OFFCURVE",
"259 560 CURVE SMOOTH",
"196 262 OFFCURVE",
"245 70 OFFCURVE",
"443 70 CURVE SMOOTH",
"621 70 OFFCURVE",
"734 252 OFFCURVE",
"780 470 CURVE SMOOTH"
);
}
);
vertWidth = 2310;
width = 1100;
},
{
layerId = "166B8CC3-B8B2-42DF-8AC5-58EF4CD93FB2";
paths = (
{
closed = 1;
nodes = (
"989 1349 OFFCURVE",
"961 1366 OFFCURVE",
"913 1366 CURVE SMOOTH",
"795 1366 OFFCURVE",
"640 1197 OFFCURVE",
"543 864 CURVE SMOOTH",
"533 829 OFFCURVE",
"525 815 OFFCURVE",
"531 811 CURVE SMOOTH",
"539 806 OFFCURVE",
"546 822 OFFCURVE",
"571 842 CURVE SMOOTH",
"659 914 OFFCURVE",
"784 960 OFFCURVE",
"914 960 CURVE SMOOTH",
"1136 960 OFFCURVE",
"1317 810 OFFCURVE",
"1245 500 CURVE SMOOTH",
"1160 130 OFFCURVE",
"875 -20 OFFCURVE",
"573 -20 CURVE SMOOTH",
"251 -20 OFFCURVE",
"-21 170 OFFCURVE",
"111 740 CURVE SMOOTH",
"222 1220 OFFCURVE",
"577 1520 OFFCURVE",
"949 1520 CURVE SMOOTH",
"1233 1520 OFFCURVE",
"1362 1386 OFFCURVE",
"1362 1222 CURVE SMOOTH",
"1362 1082 OFFCURVE",
"1260 990 OFFCURVE",
"1131 990 CURVE SMOOTH",
"997 990 OFFCURVE",
"910 1052 OFFCURVE",
"910 1146 CURVE SMOOTH",
"910 1250 OFFCURVE",
"989 1276 OFFCURVE",
"989 1322 CURVE SMOOTH"
);
},
{
closed = 1;
nodes = (
"882 658 OFFCURVE",
"813 722 OFFCURVE",
"705 722 CURVE SMOOTH",
"599 722 OFFCURVE",
"483 620 OFFCURVE",
"446 460 CURVE SMOOTH",
"410 302 OFFCURVE",
"448 210 OFFCURVE",
"576 210 CURVE SMOOTH",
"694 210 OFFCURVE",
"798 292 OFFCURVE",
"839 470 CURVE SMOOTH"
);
}
);
vertWidth = 2310;
width = 1330;
},
{
layerId = "6A50D5EA-2B4A-4D44-BCCC-14A16F5631EA";
paths = (
{
closed = 1;
nodes = (
"758 1358 OFFCURVE",
"749 1366 OFFCURVE",
"731 1366 CURVE SMOOTH",
"633 1366 OFFCURVE",
"590 1197 OFFCURVE",
"496 864 CURVE SMOOTH",
"486 829 OFFCURVE",
"478 815 OFFCURVE",
"484 811 CURVE SMOOTH",
"492 806 OFFCURVE",
"505 817 OFFCURVE",
"524 842 CURVE SMOOTH",
"581 914 OFFCURVE",
"655 960 OFFCURVE",
"745 960 CURVE SMOOTH",
"967 960 OFFCURVE",
"1030 810 OFFCURVE",
"961 500 CURVE SMOOTH",
"879 130 OFFCURVE",
"676 -20 OFFCURVE",
"374 -20 CURVE SMOOTH",
"52 -20 OFFCURVE",
"-62 170 OFFCURVE",
"64 740 CURVE SMOOTH",
"170 1220 OFFCURVE",
"393 1520 OFFCURVE",
"765 1520 CURVE SMOOTH",
"1039 1520 OFFCURVE",
"1105 1376 OFFCURVE",
"1071 1222 CURVE SMOOTH",
"1041 1086 OFFCURVE",
"940 990 OFFCURVE",
"801 990 CURVE SMOOTH",
"667 990 OFFCURVE",
"594 1062 OFFCURVE",
"619 1176 CURVE SMOOTH",
"644 1288 OFFCURVE",
"748 1316 OFFCURVE",
"754 1342 CURVE SMOOTH"
);
},
{
closed = 1;
nodes = (
"596 658 OFFCURVE",
"576 722 OFFCURVE",
"538 722 CURVE SMOOTH",
"502 722 OFFCURVE",
"437 620 OFFCURVE",
"402 460 CURVE SMOOTH",
"367 302 OFFCURVE",
"367 210 OFFCURVE",
"425 210 CURVE SMOOTH",
"473 210 OFFCURVE",
"515 292 OFFCURVE",
"554 470 CURVE SMOOTH"
);
}
);
vertWidth = 2310;
width = 1010;
},
{
layerId = "5A070E73-1DB9-476B-9E26-8EFE8B60F44F";
paths = (
{
closed = 1;
nodes = (
"741 1418 OFFCURVE",
"704 1436 OFFCURVE",
"656 1436 CURVE SMOOTH",
"494 1436 OFFCURVE",
"414 1193 OFFCURVE",
"333 900 CURVE SMOOTH",
"324 867 OFFCURVE",
"316 854 OFFCURVE",
"322 850 CURVE SMOOTH",
"329 846 OFFCURVE",
"338 859 OFFCURVE",
"358 879 CURVE SMOOTH",
"405 923 OFFCURVE",
"473 960 OFFCURVE",
"575 960 CURVE SMOOTH",
"777 960 OFFCURVE",
"847 800 OFFCURVE",
"774 470 CURVE SMOOTH",
"705 160 OFFCURVE",
"516 -20 OFFCURVE",
"304 -20 CURVE SMOOTH",
"52 -20 OFFCURVE",
"-30 180 OFFCURVE",
"94 740 CURVE SMOOTH",
"200 1220 OFFCURVE",
"393 1520 OFFCURVE",
"695 1520 CURVE SMOOTH",
"829 1520 OFFCURVE",
"906 1426 OFFCURVE",
"881 1312 CURVE SMOOTH",
"855 1196 OFFCURVE",
"775 1150 OFFCURVE",
"717 1150 CURVE SMOOTH",
"663 1150 OFFCURVE",
"613 1192 OFFCURVE",
"629 1266 CURVE SMOOTH",
"645 1338 OFFCURVE",
"729 1366 OFFCURVE",
"735 1392 CURVE SMOOTH"
);
},
{
closed = 1;
nodes = (
"625 698 OFFCURVE",
"597 862 OFFCURVE",
"489 862 CURVE SMOOTH",
"363 862 OFFCURVE",
"289 720 OFFCURVE",
"254 560 CURVE SMOOTH",
"188 262 OFFCURVE",
"166 70 OFFCURVE",
"324 70 CURVE SMOOTH",
"452 70 OFFCURVE",
"526 252 OFFCURVE",
"574 470 CURVE SMOOTH"
);
}
);
vertWidth = 2310;
width = 840;
}
);
unicode = 0036;
},
{
glyphname = seven;
layers = (
{
layerId = "C788331E-5670-44D3-9D66-EAA382172B0D";
paths = (
{
closed = 1;
nodes = (
"214 1439 OFFCURVE",
"345 1520 OFFCURVE",
"520 1520 CURVE SMOOTH",
"714 1520 OFFCURVE",
"774 1400 OFFCURVE",
"940 1400 CURVE SMOOTH",
"1014 1400 OFFCURVE",
"1046 1433 OFFCURVE",
"1066 1483 CURVE SMOOTH",
"1071 1496 OFFCURVE",
"1072 1500 OFFCURVE",
"1091 1500 CURVE SMOOTH",
"1160 1500 LINE SMOOTH",
"1183 1500 OFFCURVE",
"1179 1492 OFFCURVE",
"1176 1471 CURVE SMOOTH",
"1152 1321 OFFCURVE",
"841 956 OFFCURVE",
"666 744 CURVE SMOOTH",
"516 562 OFFCURVE",
"448 472 OFFCURVE",
"448 384 CURVE SMOOTH",
"448 268 OFFCURVE",
"534 258 OFFCURVE",
"534 116 CURVE SMOOTH",
"534 42 OFFCURVE",
"484 -20 OFFCURVE",
"396 -20 CURVE SMOOTH",
"318 -20 OFFCURVE",
"244 54 OFFCURVE",
"244 192 CURVE SMOOTH",
"244 370 OFFCURVE",
"396 564 OFFCURVE",
"558 772 CURVE SMOOTH",
"663 906 OFFCURVE",
"870 1127 OFFCURVE",
"943 1254 CURVE SMOOTH",
"955 1274 OFFCURVE",
"965 1291 OFFCURVE",
"960 1296 CURVE SMOOTH",
"955 1301 OFFCURVE",
"943 1283 OFFCURVE",
"922 1277 CURVE SMOOTH",
"896 1269 OFFCURVE",
"866 1266 OFFCURVE",
"830 1266 CURVE SMOOTH",
"630 1266 OFFCURVE",
"610 1334 OFFCURVE",
"458 1334 CURVE SMOOTH",
"337 1334 OFFCURVE",
"298 1281 OFFCURVE",
"264 1166 CURVE SMOOTH",
"260 1152 OFFCURVE",
"263 1146 OFFCURVE",
"248 1146 CURVE SMOOTH",
"192 1146 LINE SMOOTH",
"177 1146 OFFCURVE",
"168 1147 OFFCURVE",
"170 1162 CURVE SMOOTH"
);
}
);
vertWidth = 2310;
width = 1048;
},
{
layerId = "166B8CC3-B8B2-42DF-8AC5-58EF4CD93FB2";
paths = (
{
closed = 1;
nodes = (
"215 1317 OFFCURVE",
"434 1520 OFFCURVE",
"635 1520 CURVE SMOOTH",
"829 1520 OFFCURVE",
"889 1400 OFFCURVE",
"1055 1400 CURVE SMOOTH",
"1123 1400 OFFCURVE",
"1156 1427 OFFCURVE",
"1176 1471 CURVE SMOOTH",
"1184 1489 OFFCURVE",
"1187 1500 OFFCURVE",
"1215 1500 CURVE SMOOTH",
"1344 1500 LINE SMOOTH",
"1379 1500 OFFCURVE",
"1385 1493 OFFCURVE",
"1380 1460 CURVE SMOOTH",
"1357 1305 OFFCURVE",
"1056 933 OFFCURVE",
"841 726 CURVE SMOOTH",
"698 588 OFFCURVE",
"593 512 OFFCURVE",
"593 444 CURVE SMOOTH",
"593 358 OFFCURVE",
"749 378 OFFCURVE",
"749 216 CURVE SMOOTH",
"749 102 OFFCURVE",
"659 -20 OFFCURVE",
"511 -20 CURVE SMOOTH",
"363 -20 OFFCURVE",
"259 54 OFFCURVE",
"259 222 CURVE SMOOTH",
"259 400 OFFCURVE",
"425 579 OFFCURVE",
"613 752 CURVE SMOOTH",
"713 844 OFFCURVE",
"861 975 OFFCURVE",
"967 1100 CURVE SMOOTH",
"1000 1139 OFFCURVE",
"1021 1176 OFFCURVE",
"1011 1186 CURVE SMOOTH",
"996 1201 OFFCURVE",
"972 1159 OFFCURVE",
"943 1136 CURVE SMOOTH",
"896 1098 OFFCURVE",
"839 1066 OFFCURVE",
"755 1066 CURVE SMOOTH",
"635 1066 OFFCURVE",
"585 1134 OFFCURVE",
"483 1134 CURVE SMOOTH",
"396 1134 OFFCURVE",
"341 1082 OFFCURVE",
"331 980 CURVE SMOOTH",
"329 957 OFFCURVE",
"336 946 OFFCURVE",
"308 946 CURVE SMOOTH",
"192 946 LINE SMOOTH",
"162 946 OFFCURVE",
"150 954 OFFCURVE",
"155 982 CURVE SMOOTH"
);
}
);
vertWidth = 2310;
width = 1203;
},
{
layerId = "6A50D5EA-2B4A-4D44-BCCC-14A16F5631EA";
paths = (
{
closed = 1;
nodes = (
"179 1347 OFFCURVE",
"326 1520 OFFCURVE",
"527 1520 CURVE SMOOTH",
"721 1520 OFFCURVE",
"715 1400 OFFCURVE",
"881 1400 CURVE SMOOTH",
"949 1400 OFFCURVE",
"988 1427 OFFCURVE",
"1018 1471 CURVE SMOOTH",
"1030 1489 OFFCURVE",
"1035 1500 OFFCURVE",
"1063 1500 CURVE SMOOTH",
"1192 1500 LINE SMOOTH",
"1227 1500 OFFCURVE",
"1231 1493 OFFCURVE",
"1219 1460 CURVE SMOOTH",
"1162 1305 OFFCURVE",
"932 993 OFFCURVE",
"734 756 CURVE SMOOTH",
"593 586 OFFCURVE",
"536 532 OFFCURVE",
"521 464 CURVE SMOOTH",
"500 368 OFFCURVE",
"676 368 OFFCURVE",
"642 216 CURVE SMOOTH",
"617 102 OFFCURVE",
"520 -20 OFFCURVE",
"362 -20 CURVE SMOOTH",
"214 -20 OFFCURVE",
"121 74 OFFCURVE",
"160 252 CURVE SMOOTH",
"199 430 OFFCURVE",
"320 540 OFFCURVE",
"497 762 CURVE SMOOTH",
"594 884 OFFCURVE",
"652 965 OFFCURVE",
"778 1100 CURVE SMOOTH",
"816 1141 OFFCURVE",
"849 1176 OFFCURVE",
"841 1186 CURVE SMOOTH",
"829 1201 OFFCURVE",
"791 1165 OFFCURVE",
"762 1136 CURVE SMOOTH",
"714 1088 OFFCURVE",
"673 1076 OFFCURVE",
"619 1076 CURVE SMOOTH",
"529 1076 OFFCURVE",
"542 1134 OFFCURVE",
"460 1134 CURVE SMOOTH",
"393 1134 OFFCURVE",
"297 1082 OFFCURVE",
"264 980 CURVE SMOOTH",
"257 957 OFFCURVE",
"261 946 OFFCURVE",
"233 946 CURVE SMOOTH",
"117 946 LINE SMOOTH",
"87 946 OFFCURVE",
"81 954 OFFCURVE",
"88 982 CURVE SMOOTH"
);
}
);
vertWidth = 2310;
width = 1027;
},
{
layerId = "5A070E73-1DB9-476B-9E26-8EFE8B60F44F";
paths = (
{
closed = 1;
nodes = (
"243 1439 OFFCURVE",
"352 1520 OFFCURVE",
"507 1520 CURVE SMOOTH",
"621 1520 OFFCURVE",
"644 1400 OFFCURVE",
"740 1400 CURVE SMOOTH",
"814 1400 OFFCURVE",
"854 1433 OFFCURVE",
"885 1483 CURVE SMOOTH",
"893 1496 OFFCURVE",
"895 1500 OFFCURVE",
"914 1500 CURVE SMOOTH",
"983 1500 LINE SMOOTH",
"1006 1500 OFFCURVE",
"1001 1494 OFFCURVE",
"993 1473 CURVE SMOOTH",
"936 1323 OFFCURVE",
"743 1008 OFFCURVE",
"579 736 CURVE SMOOTH",
"465 548 OFFCURVE",
"413 472 OFFCURVE",
"393 384 CURVE SMOOTH",
"361 238 OFFCURVE",
"420 208 OFFCURVE",
"400 116 CURVE SMOOTH",
"384 42 OFFCURVE",
"330 -20 OFFCURVE",
"242 -20 CURVE SMOOTH",
"164 -20 OFFCURVE",
"126 54 OFFCURVE",
"157 192 CURVE SMOOTH",
"196 370 OFFCURVE",
"329 554 OFFCURVE",
"467 762 CURVE SMOOTH",
"571 918 OFFCURVE",
"671 1097 OFFCURVE",
"759 1254 CURVE SMOOTH",
"771 1276 OFFCURVE",
"781 1291 OFFCURVE",
"777 1296 CURVE SMOOTH",
"773 1301 OFFCURVE",
"757 1283 OFFCURVE",
"735 1277 CURVE SMOOTH",
"707 1269 OFFCURVE",
"677 1266 OFFCURVE",
"641 1266 CURVE SMOOTH",
"541 1266 OFFCURVE",
"516 1334 OFFCURVE",
"434 1334 CURVE SMOOTH",
"333 1334 OFFCURVE",
"301 1281 OFFCURVE",
"272 1166 CURVE SMOOTH",
"269 1151 OFFCURVE",
"267 1146 OFFCURVE",
"252 1146 CURVE SMOOTH",
"196 1146 LINE SMOOTH",
"181 1146 OFFCURVE",
"175 1147 OFFCURVE",
"178 1162 CURVE SMOOTH"
);
}
);
vertWidth = 2310;
width = 818;
}
);
unicode = 0037;
},
{
glyphname = eight;
layers = (
{
layerId = "C788331E-5670-44D3-9D66-EAA382172B0D";
paths = (
{
closed = 1;
nodes = (
"163 252 OFFCURVE",
"207 70 OFFCURVE",
"385 70 CURVE SMOOTH",
"563 70 OFFCURVE",
"683 252 OFFCURVE",
"719 420 CURVE SMOOTH",
"755 588 OFFCURVE",
"712 770 OFFCURVE",
"534 770 CURVE SMOOTH",
"356 770 OFFCURVE",
"235 588 OFFCURVE",
"199 420 CURVE SMOOTH"
);
},
{
closed = 1;
nodes = (
"249 1360 OFFCURVE",
"451 1520 OFFCURVE",
"673 1520 CURVE SMOOTH",
"915 1520 OFFCURVE",
"1069 1360 OFFCURVE",
"1022 1140 CURVE SMOOTH",
"989 987 OFFCURVE",
"886 880 OFFCURVE",
"744 827 CURVE SMOOTH",
"722 819 OFFCURVE",
"708 818 OFFCURVE",
"707 811 CURVE SMOOTH",
"706 805 OFFCURVE",
"714 802 OFFCURVE",
"735 794 CURVE SMOOTH",
"885 734 OFFCURVE",
"957 598 OFFCURVE",
"919 420 CURVE SMOOTH",
"868 180 OFFCURVE",
"668 -20 OFFCURVE",
"386 -20 CURVE SMOOTH",
"124 -20 OFFCURVE",
"-52 180 OFFCURVE",
"-1 420 CURVE SMOOTH",
"36 595 OFFCURVE",
"161 722 OFFCURVE",
"333 784 CURVE SMOOTH",
"354 792 OFFCURVE",
"382 799 OFFCURVE",
"384 808 CURVE SMOOTH",
"386 817 OFFCURVE",
"369 820 OFFCURVE",
"341 833 CURVE SMOOTH",
"226 887 OFFCURVE",
"170 990 OFFCURVE",
"202 1140 CURVE SMOOTH"
);
},
{
closed = 1;
nodes = (
"371 992 OFFCURVE",
"413 850 OFFCURVE",
"551 850 CURVE SMOOTH",
"689 850 OFFCURVE",
"791 992 OFFCURVE",
"822 1140 CURVE SMOOTH",
"853 1288 OFFCURVE",
"812 1430 OFFCURVE",
"674 1430 CURVE SMOOTH",
"536 1430 OFFCURVE",
"433 1288 OFFCURVE",
"402 1140 CURVE SMOOTH"
);
}
);
vertWidth = 2310;
width = 1060;
},
{
layerId = "166B8CC3-B8B2-42DF-8AC5-58EF4CD93FB2";
paths = (
{
closed = 1;
nodes = (
"395 236 OFFCURVE",
"441 170 OFFCURVE",
"539 170 CURVE SMOOTH",
"627 170 OFFCURVE",
"705 236 OFFCURVE",
"753 444 CURVE SMOOTH",
"792 612 OFFCURVE",
"754 720 OFFCURVE",
"666 720 CURVE SMOOTH",
"568 720 OFFCURVE",
"482 612 OFFCURVE",
"443 444 CURVE SMOOTH"
);
},
{
closed = 1;
nodes = (
"304 1360 OFFCURVE",
"489 1520 OFFCURVE",
"811 1520 CURVE SMOOTH",
"1143 1520 OFFCURVE",
"1334 1360 OFFCURVE",
"1283 1140 CURVE SMOOTH",
"1249 994 OFFCURVE",
"1145 897 OFFCURVE",
"1009 842 CURVE SMOOTH",
"975 828 OFFCURVE",
"949 824 OFFCURVE",
"946 810 CURVE SMOOTH",
"943 798 OFFCURVE",
"968 792 OFFCURVE",
"994 780 CURVE SMOOTH",
"1133 716 OFFCURVE",
"1206 591 OFFCURVE",
"1167 420 CURVE SMOOTH",
"1107 160 OFFCURVE",
"897 -20 OFFCURVE",
"535 -20 CURVE SMOOTH",
"173 -20 OFFCURVE",
"-23 160 OFFCURVE",
"37 420 CURVE SMOOTH",
"79 600 OFFCURVE",
"212 731 OFFCURVE",
"394 790 CURVE SMOOTH",
"417 797 OFFCURVE",
"430 797 OFFCURVE",
"433 812 CURVE SMOOTH",
"436 826 OFFCURVE",
"414 827 OFFCURVE",
"401 832 CURVE SMOOTH",
"278 884 OFFCURVE",
"217 984 OFFCURVE",
"253 1140 CURVE SMOOTH"
);
},
{
closed = 1;
nodes = (
"611 957 OFFCURVE",
"650 900 OFFCURVE",
"708 900 CURVE SMOOTH",
"786 900 OFFCURVE",
"831 957 OFFCURVE",
"865 1105 CURVE SMOOTH",
"899 1253 OFFCURVE",
"885 1330 OFFCURVE",
"817 1330 CURVE SMOOTH",
"749 1330 OFFCURVE",
"679 1253 OFFCURVE",
"645 1105 CURVE SMOOTH"
);
}
);
vertWidth = 2310;
width = 1290;
},
{
layerId = "6A50D5EA-2B4A-4D44-BCCC-14A16F5631EA";
paths = (
{
closed = 1;
nodes = (
"347 216 OFFCURVE",
"380 170 OFFCURVE",
"428 170 CURVE SMOOTH",
"476 170 OFFCURVE",
"517 216 OFFCURVE",
"568 444 CURVE SMOOTH",
"616 662 OFFCURVE",
"598 720 OFFCURVE",
"550 720 CURVE SMOOTH",
"502 720 OFFCURVE",
"446 662 OFFCURVE",
"398 444 CURVE SMOOTH"
);
},
{
closed = 1;
nodes = (
"234 1370 OFFCURVE",
"405 1520 OFFCURVE",
"727 1520 CURVE SMOOTH",
"1059 1520 OFFCURVE",
"1164 1370 OFFCURVE",
"1115 1150 CURVE SMOOTH",
"1083 1004 OFFCURVE",
"957 897 OFFCURVE",
"822 842 CURVE SMOOTH",
"788 828 OFFCURVE",
"762 824 OFFCURVE",
"759 810 CURVE SMOOTH",
"756 798 OFFCURVE",
"781 792 OFFCURVE",
"807 780 CURVE SMOOTH",
"947 716 OFFCURVE",
"1021 591 OFFCURVE",
"983 420 CURVE SMOOTH",
"925 160 OFFCURVE",
"748 -20 OFFCURVE",
"386 -20 CURVE SMOOTH",
"24 -20 OFFCURVE",
"-65 160 OFFCURVE",
"-7 420 CURVE SMOOTH",
"33 600 OFFCURVE",
"166 731 OFFCURVE",
"347 790 CURVE SMOOTH",
"370 797 OFFCURVE",
"383 797 OFFCURVE",
"386 812 CURVE SMOOTH",
"389 826 OFFCURVE",
"366 827 OFFCURVE",
"353 832 CURVE SMOOTH",
"230 884 OFFCURVE",
"150 994 OFFCURVE",
"185 1150 CURVE SMOOTH"
);
},
{
closed = 1;
nodes = (
"532 957 OFFCURVE",
"552 900 OFFCURVE",
"590 900 CURVE SMOOTH",
"648 900 OFFCURVE",
"672 957 OFFCURVE",
"705 1105 CURVE SMOOTH",
"738 1253 OFFCURVE",
"739 1330 OFFCURVE",
"691 1330 CURVE SMOOTH",
"643 1330 OFFCURVE",
"598 1253 OFFCURVE",
"565 1105 CURVE SMOOTH"
);
}
);
vertWidth = 2310;
width = 1050;
},
{
layerId = "5A070E73-1DB9-476B-9E26-8EFE8B60F44F";
paths = (
{
closed = 1;
nodes = (
"150 182 OFFCURVE",
"178 70 OFFCURVE",
"256 70 CURVE SMOOTH",
"334 70 OFFCURVE",
"410 182 OFFCURVE",
"463 420 CURVE SMOOTH",
"518 668 OFFCURVE",
"486 760 OFFCURVE",
"408 760 CURVE SMOOTH",
"330 760 OFFCURVE",
"258 668 OFFCURVE",
"203 420 CURVE SMOOTH"
);
},
{
closed = 1;
nodes = (
"273 1410 OFFCURVE",
"385 1520 OFFCURVE",
"577 1520 CURVE SMOOTH",
"769 1520 OFFCURVE",
"833 1410 OFFCURVE",
"773 1140 CURVE SMOOTH",
"728 937 OFFCURVE",
"639 860 OFFCURVE",
"551 827 CURVE SMOOTH",
"529 819 OFFCURVE",
"517 818 OFFCURVE",
"515 811 CURVE SMOOTH",
"514 805 OFFCURVE",
"521 801 OFFCURVE",
"542 794 CURVE SMOOTH",
"676 754 OFFCURVE",
"711 638 OFFCURVE",
"663 420 CURVE SMOOTH",
"610 180 OFFCURVE",
"518 -20 OFFCURVE",
"236 -20 CURVE SMOOTH",
"-46 -20 OFFCURVE",
"-50 180 OFFCURVE",
"3 420 CURVE SMOOTH",
"51 635 OFFCURVE",
"139 732 OFFCURVE",
"280 784 CURVE SMOOTH",
"301 792 OFFCURVE",
"329 799 OFFCURVE",
"331 808 CURVE SMOOTH",
"333 817 OFFCURVE",
"317 819 OFFCURVE",
"289 833 CURVE SMOOTH",
"221 867 OFFCURVE",
"169 940 OFFCURVE",
"213 1140 CURVE SMOOTH"
);
},
{
closed = 1;
nodes = (
"342 912 OFFCURVE",
"383 860 OFFCURVE",
"431 860 CURVE SMOOTH",
"479 860 OFFCURVE",
"542 912 OFFCURVE",
"593 1140 CURVE SMOOTH",
"644 1368 OFFCURVE",
"605 1430 OFFCURVE",
"557 1430 CURVE SMOOTH",
"509 1430 OFFCURVE",
"444 1368 OFFCURVE",
"393 1140 CURVE SMOOTH"
);
}
);
vertWidth = 2310;
width = 740;
}
);
unicode = 0038;
},
{
glyphname = nine;
layers = (
{
layerId = "C788331E-5670-44D3-9D66-EAA382172B0D";
paths = (
{
closed = 1;
nodes = (
"220 92 OFFCURVE",
"239 64 OFFCURVE",
"317 64 CURVE SMOOTH",
"549 64 OFFCURVE",
"685 297 OFFCURVE",
"774 640 CURVE SMOOTH",
"783 673 OFFCURVE",
"790 686 OFFCURVE",
"784 690 CURVE SMOOTH",
"777 694 OFFCURVE",
"770 680 OFFCURVE",
"749 661 CURVE SMOOTH",
"666 587 OFFCURVE",
"556 540 OFFCURVE",
"424 540 CURVE SMOOTH",
"202 540 OFFCURVE",
"50 700 OFFCURVE",
"120 1030 CURVE SMOOTH",
"188 1350 OFFCURVE",
"404 1520 OFFCURVE",
"646 1520 CURVE SMOOTH",
"968 1520 OFFCURVE",
"1124 1330 OFFCURVE",
"1003 760 CURVE SMOOTH",
"901 280 OFFCURVE",
"631 -20 OFFCURVE",
"309 -20 CURVE SMOOTH",
"145 -20 OFFCURVE",
"48 84 OFFCURVE",
"48 198 CURVE SMOOTH",
"48 306 OFFCURVE",
"116 350 OFFCURVE",
"174 350 CURVE SMOOTH",
"238 350 OFFCURVE",
"293 310 OFFCURVE",
"293 234 CURVE SMOOTH",
"293 162 OFFCURVE",
"220 145 OFFCURVE",
"220 118 CURVE SMOOTH"
);
},
{
closed = 1;
nodes = (
"272 802 OFFCURVE",
"331 638 OFFCURVE",
"489 638 CURVE SMOOTH",
"655 638 OFFCURVE",
"807 780 OFFCURVE",
"841 940 CURVE SMOOTH",
"904 1238 OFFCURVE",
"855 1430 OFFCURVE",
"657 1430 CURVE SMOOTH",
"479 1430 OFFCURVE",
"366 1248 OFFCURVE",
"320 1030 CURVE SMOOTH"
);
}
);
vertWidth = 2310;
width = 1100;
},
{
layerId = "166B8CC3-B8B2-42DF-8AC5-58EF4CD93FB2";
paths = (
{
closed = 1;
nodes = (
"411 151 OFFCURVE",
"439 134 OFFCURVE",
"487 134 CURVE SMOOTH",
"605 134 OFFCURVE",
"760 303 OFFCURVE",
"857 636 CURVE SMOOTH",
"867 671 OFFCURVE",
"875 685 OFFCURVE",
"869 689 CURVE SMOOTH",
"861 694 OFFCURVE",
"854 678 OFFCURVE",
"829 658 CURVE SMOOTH",
"741 586 OFFCURVE",
"616 540 OFFCURVE",
"486 540 CURVE SMOOTH",
"264 540 OFFCURVE",
"83 690 OFFCURVE",
"155 1000 CURVE SMOOTH",
"240 1370 OFFCURVE",
"525 1520 OFFCURVE",
"827 1520 CURVE SMOOTH",
"1149 1520 OFFCURVE",
"1421 1330 OFFCURVE",
"1289 760 CURVE SMOOTH",
"1178 280 OFFCURVE",
"823 -20 OFFCURVE",
"451 -20 CURVE SMOOTH",
"167 -20 OFFCURVE",
"38 114 OFFCURVE",
"38 278 CURVE SMOOTH",
"38 418 OFFCURVE",
"140 510 OFFCURVE",
"269 510 CURVE SMOOTH",
"403 510 OFFCURVE",
"490 448 OFFCURVE",
"490 354 CURVE SMOOTH",
"490 250 OFFCURVE",
"411 224 OFFCURVE",
"411 178 CURVE SMOOTH"
);
},
{
closed = 1;
nodes = (
"518 842 OFFCURVE",
"587 778 OFFCURVE",
"695 778 CURVE SMOOTH",
"801 778 OFFCURVE",
"917 880 OFFCURVE",
"954 1040 CURVE SMOOTH",
"990 1198 OFFCURVE",
"952 1290 OFFCURVE",
"824 1290 CURVE SMOOTH",
"706 1290 OFFCURVE",
"602 1208 OFFCURVE",
"561 1030 CURVE SMOOTH"
);
}
);
vertWidth = 2310;
width = 1330;
},
{
layerId = "6A50D5EA-2B4A-4D44-BCCC-14A16F5631EA";
paths = (
{
closed = 1;
nodes = (
"325 142 OFFCURVE",
"334 134 OFFCURVE",
"352 134 CURVE SMOOTH",
"450 134 OFFCURVE",
"493 303 OFFCURVE",
"587 636 CURVE SMOOTH",
"597 671 OFFCURVE",
"605 685 OFFCURVE",
"599 689 CURVE SMOOTH",
"591 694 OFFCURVE",
"578 683 OFFCURVE",
"559 658 CURVE SMOOTH",
"502 586 OFFCURVE",
"428 540 OFFCURVE",
"338 540 CURVE SMOOTH",
"116 540 OFFCURVE",
"53 690 OFFCURVE",
"122 1000 CURVE SMOOTH",
"204 1370 OFFCURVE",
"407 1520 OFFCURVE",
"709 1520 CURVE SMOOTH",
"1031 1520 OFFCURVE",
"1144 1330 OFFCURVE",
"1018 760 CURVE SMOOTH",
"912 280 OFFCURVE",
"690 -20 OFFCURVE",
"318 -20 CURVE SMOOTH",
"44 -20 OFFCURVE",
"-22 124 OFFCURVE",
"12 278 CURVE SMOOTH",
"42 414 OFFCURVE",
"142 510 OFFCURVE",
"281 510 CURVE SMOOTH",
"415 510 OFFCURVE",
"489 438 OFFCURVE",
"464 324 CURVE SMOOTH",
"439 212 OFFCURVE",
"335 184 OFFCURVE",
"329 158 CURVE SMOOTH"
);
},
{
closed = 1;
nodes = (
"486 842 OFFCURVE",
"506 778 OFFCURVE",
"544 778 CURVE SMOOTH",
"580 778 OFFCURVE",
"646 880 OFFCURVE",
"681 1040 CURVE SMOOTH",
"716 1198 OFFCURVE",
"716 1290 OFFCURVE",
"658 1290 CURVE SMOOTH",
"610 1290 OFFCURVE",
"567 1208 OFFCURVE",
"528 1030 CURVE SMOOTH"
);
}
);
vertWidth = 2310;
width = 1010;
},
{
layerId = "5A070E73-1DB9-476B-9E26-8EFE8B60F44F";
paths = (
{
closed = 1;
nodes = (
"172 82 OFFCURVE",
"208 64 OFFCURVE",
"256 64 CURVE SMOOTH",
"418 64 OFFCURVE",
"499 307 OFFCURVE",
"580 600 CURVE SMOOTH",
"589 633 OFFCURVE",
"596 646 OFFCURVE",
"590 650 CURVE SMOOTH",
"583 654 OFFCURVE",
"575 641 OFFCURVE",
"555 621 CURVE SMOOTH",
"508 577 OFFCURVE",
"440 540 OFFCURVE",
"338 540 CURVE SMOOTH",
"136 540 OFFCURVE",
"65 700 OFFCURVE",
"138 1030 CURVE SMOOTH",
"207 1340 OFFCURVE",
"397 1520 OFFCURVE",
"609 1520 CURVE SMOOTH",
"861 1520 OFFCURVE",
"942 1320 OFFCURVE",
"818 760 CURVE SMOOTH",
"712 280 OFFCURVE",
"520 -20 OFFCURVE",
"218 -20 CURVE SMOOTH",
"84 -20 OFFCURVE",
"7 74 OFFCURVE",
"32 188 CURVE SMOOTH",
"58 304 OFFCURVE",
"138 350 OFFCURVE",
"196 350 CURVE SMOOTH",
"250 350 OFFCURVE",
"300 308 OFFCURVE",
"284 234 CURVE SMOOTH",
"268 162 OFFCURVE",
"184 134 OFFCURVE",
"178 108 CURVE SMOOTH"
);
},
{
closed = 1;
nodes = (
"287 802 OFFCURVE",
"315 638 OFFCURVE",
"423 638 CURVE SMOOTH",
"549 638 OFFCURVE",
"623 780 OFFCURVE",
"658 940 CURVE SMOOTH",
"724 1238 OFFCURVE",
"747 1430 OFFCURVE",
"589 1430 CURVE SMOOTH",
"461 1430 OFFCURVE",
"386 1248 OFFCURVE",
"338 1030 CURVE SMOOTH"
);
}
);
vertWidth = 2310;
width = 840;
}
);
unicode = 0039;
},
{
glyphname = less;
layers = (
{
layerId = "C788331E-5670-44D3-9D66-EAA382172B0D";
paths = (
{
closed = 1;
nodes = (
"892 505 LINE SMOOTH",
"919 494 OFFCURVE",
"930 487 OFFCURVE",
"930 447 CURVE SMOOTH",
"930 405 LINE SMOOTH",
"930 360 OFFCURVE",
"912 366 OFFCURVE",
"886 377 CURVE SMOOTH",
"152 678 LINE SMOOTH",
"123 690 OFFCURVE",
"120 699 OFFCURVE",
"120 740 CURVE SMOOTH",
"120 820 LINE SMOOTH",
"120 862 OFFCURVE",
"125 863 OFFCURVE",
"154 873 CURVE SMOOTH",
"1046 1187 LINE SMOOTH",
"1072 1196 OFFCURVE",
"1080 1193 OFFCURVE",
"1080 1159 CURVE SMOOTH",
"1080 1113 LINE SMOOTH",
"1080 1076 OFFCURVE",
"1070 1065 OFFCURVE",
"1044 1056 CURVE SMOOTH",
"298 799 LINE SMOOTH",
"267 788 OFFCURVE",
"250 787 OFFCURVE",
"250 776 CURVE SMOOTH",
"250 765 OFFCURVE",
"263 766 OFFCURVE",
"296 752 CURVE SMOOTH"
);
}
);
vertWidth = 0;
width = 1120;
},
{
layerId = "166B8CC3-B8B2-42DF-8AC5-58EF4CD93FB2";
paths = (
{
closed = 1;
nodes = (
"890 575 LINE SMOOTH",
"919 564 OFFCURVE",
"930 553 OFFCURVE",
"930 511 CURVE SMOOTH",
"930 393 LINE SMOOTH",
"930 335 OFFCURVE",
"923 333 OFFCURVE",
"884 348 CURVE SMOOTH",
"164 642 LINE SMOOTH",
"131 655 OFFCURVE",
"120 672 OFFCURVE",
"120 720 CURVE SMOOTH",
"120 830 LINE SMOOTH",
"120 890 OFFCURVE",
"135 896 OFFCURVE",
"176 912 CURVE SMOOTH",
"1020 1246 LINE SMOOTH",
"1060 1262 OFFCURVE",
"1080 1265 OFFCURVE",
"1080 1199 CURVE SMOOTH",
"1080 1112 LINE SMOOTH",
"1080 1055 OFFCURVE",
"1072 1037 OFFCURVE",
"1032 1022 CURVE SMOOTH",
"438 802 LINE SMOOTH",
"403 789 OFFCURVE",
"382 788 OFFCURVE",
"382 776 CURVE SMOOTH",
"382 759 OFFCURVE",
"399 763 OFFCURVE",
"438 748 CURVE SMOOTH"
);
}
);
vertWidth = 0;
width = 1120;
},
{
layerId = "6A50D5EA-2B4A-4D44-BCCC-14A16F5631EA";
paths = (
{
closed = 1;
nodes = (
"890 575 LINE SMOOTH",
"919 564 OFFCURVE",
"930 553 OFFCURVE",
"930 511 CURVE SMOOTH",
"930 393 LINE SMOOTH",
"930 335 OFFCURVE",
"923 333 OFFCURVE",
"884 348 CURVE SMOOTH",
"164 642 LINE SMOOTH",
"131 655 OFFCURVE",
"120 672 OFFCURVE",
"120 720 CURVE SMOOTH",
"120 830 LINE SMOOTH",
"120 890 OFFCURVE",
"135 896 OFFCURVE",
"176 912 CURVE SMOOTH",
"1020 1246 LINE SMOOTH",
"1060 1262 OFFCURVE",
"1080 1265 OFFCURVE",
"1080 1199 CURVE SMOOTH",
"1080 1112 LINE SMOOTH",
"1080 1055 OFFCURVE",
"1072 1037 OFFCURVE",
"1032 1022 CURVE SMOOTH",
"438 802 LINE SMOOTH",
"403 789 OFFCURVE",
"382 788 OFFCURVE",
"382 776 CURVE SMOOTH",
"382 759 OFFCURVE",
"399 763 OFFCURVE",
"438 748 CURVE SMOOTH"
);
}
);
vertWidth = 0;
width = 1120;
},
{
layerId = "5A070E73-1DB9-476B-9E26-8EFE8B60F44F";
paths = (
{
closed = 1;
nodes = (
"892 505 LINE SMOOTH",
"919 494 OFFCURVE",
"930 487 OFFCURVE",
"930 447 CURVE SMOOTH",
"930 405 LINE SMOOTH",
"930 360 OFFCURVE",
"912 366 OFFCURVE",
"886 377 CURVE SMOOTH",
"152 678 LINE SMOOTH",
"123 690 OFFCURVE",
"120 699 OFFCURVE",
"120 740 CURVE SMOOTH",
"120 820 LINE SMOOTH",
"120 862 OFFCURVE",
"125 863 OFFCURVE",
"154 873 CURVE SMOOTH",
"1046 1187 LINE SMOOTH",
"1072 1196 OFFCURVE",
"1080 1193 OFFCURVE",
"1080 1159 CURVE SMOOTH",
"1080 1113 LINE SMOOTH",
"1080 1076 OFFCURVE",
"1070 1065 OFFCURVE",
"1044 1056 CURVE SMOOTH",
"298 799 LINE SMOOTH",
"267 788 OFFCURVE",
"250 787 OFFCURVE",
"250 776 CURVE SMOOTH",
"250 765 OFFCURVE",
"263 766 OFFCURVE",
"296 752 CURVE SMOOTH"
);
}
);
vertWidth = 0;
width = 1120;
}
);
unicode = 003C;
},
{
glyphname = equal;
layers = (
{
layerId = "C788331E-5670-44D3-9D66-EAA382172B0D";
paths = (
{
closed = 1;
nodes = (
"1002 980 LINE SMOOTH",
"1032 980 OFFCURVE",
"1035 976 OFFCURVE",
"1035 952 CURVE SMOOTH",
"1035 903 LINE SMOOTH",
"1035 879 OFFCURVE",
"1033 870 OFFCURVE",
"999 870 CURVE SMOOTH",
"189 870 LINE SMOOTH",
"157 870 OFFCURVE",
"155 874 OFFCURVE",
"155 900 CURVE SMOOTH",
"155 952 LINE SMOOTH",
"155 975 OFFCURVE",
"165 980 OFFCURVE",
"192 980 CURVE SMOOTH"
);
},
{
closed = 1;
nodes = (
"939 680 LINE SMOOTH",
"969 680 OFFCURVE",
"972 676 OFFCURVE",
"972 652 CURVE SMOOTH",
"972 603 LINE SMOOTH",
"972 579 OFFCURVE",
"970 570 OFFCURVE",
"936 570 CURVE SMOOTH",
"126 570 LINE SMOOTH",
"94 570 OFFCURVE",
"92 574 OFFCURVE",
"92 600 CURVE SMOOTH",
"92 652 LINE SMOOTH",
"92 675 OFFCURVE",
"102 680 OFFCURVE",
"129 680 CURVE SMOOTH"
);
}
);
vertWidth = 0;
width = 1120;
},
{
layerId = "166B8CC3-B8B2-42DF-8AC5-58EF4CD93FB2";
paths = (
{
closed = 1;
nodes = (
"1017 1090 LINE SMOOTH",
"1047 1090 OFFCURVE",
"1050 1086 OFFCURVE",
"1050 1062 CURVE SMOOTH",
"1050 893 LINE SMOOTH",
"1050 869 OFFCURVE",
"1048 860 OFFCURVE",
"1014 860 CURVE SMOOTH",
"204 860 LINE SMOOTH",
"172 860 OFFCURVE",
"170 864 OFFCURVE",
"170 890 CURVE SMOOTH",
"170 1062 LINE SMOOTH",
"170 1085 OFFCURVE",
"180 1090 OFFCURVE",
"207 1090 CURVE SMOOTH"
);
},
{
closed = 1;
nodes = (
"937 690 LINE SMOOTH",
"967 690 OFFCURVE",
"970 686 OFFCURVE",
"970 662 CURVE SMOOTH",
"970 493 LINE SMOOTH",
"970 469 OFFCURVE",
"968 460 OFFCURVE",
"934 460 CURVE SMOOTH",
"124 460 LINE SMOOTH",
"92 460 OFFCURVE",
"90 464 OFFCURVE",
"90 490 CURVE SMOOTH",
"90 662 LINE SMOOTH",
"90 685 OFFCURVE",
"100 690 OFFCURVE",
"127 690 CURVE SMOOTH"
);
}
);
vertWidth = 0;
width = 1120;
},
{
layerId = "6A50D5EA-2B4A-4D44-BCCC-14A16F5631EA";
paths = (
{
closed = 1;
nodes = (
"1017 1090 LINE SMOOTH",
"1047 1090 OFFCURVE",
"1050 1086 OFFCURVE",
"1050 1062 CURVE SMOOTH",
"1050 893 LINE SMOOTH",
"1050 869 OFFCURVE",
"1048 860 OFFCURVE",
"1014 860 CURVE SMOOTH",
"204 860 LINE SMOOTH",
"172 860 OFFCURVE",
"170 864 OFFCURVE",
"170 890 CURVE SMOOTH",
"170 1062 LINE SMOOTH",
"170 1085 OFFCURVE",
"180 1090 OFFCURVE",
"207 1090 CURVE SMOOTH"
);
},
{
closed = 1;
nodes = (
"937 690 LINE SMOOTH",
"967 690 OFFCURVE",
"970 686 OFFCURVE",
"970 662 CURVE SMOOTH",
"970 493 LINE SMOOTH",
"970 469 OFFCURVE",
"968 460 OFFCURVE",
"934 460 CURVE SMOOTH",
"124 460 LINE SMOOTH",
"92 460 OFFCURVE",
"90 464 OFFCURVE",
"90 490 CURVE SMOOTH",
"90 662 LINE SMOOTH",
"90 685 OFFCURVE",
"100 690 OFFCURVE",
"127 690 CURVE SMOOTH"
);
}
);
vertWidth = 0;
width = 1120;
},
{
layerId = "5A070E73-1DB9-476B-9E26-8EFE8B60F44F";
paths = (
{
closed = 1;
nodes = (
"1002 980 LINE SMOOTH",
"1032 980 OFFCURVE",
"1035 976 OFFCURVE",
"1035 952 CURVE SMOOTH",
"1035 903 LINE SMOOTH",
"1035 879 OFFCURVE",
"1033 870 OFFCURVE",
"999 870 CURVE SMOOTH",
"189 870 LINE SMOOTH",
"157 870 OFFCURVE",
"155 874 OFFCURVE",
"155 900 CURVE SMOOTH",
"155 952 LINE SMOOTH",
"155 975 OFFCURVE",
"165 980 OFFCURVE",
"192 980 CURVE SMOOTH"
);
},
{
closed = 1;
nodes = (
"939 680 LINE SMOOTH",
"969 680 OFFCURVE",
"972 676 OFFCURVE",
"972 652 CURVE SMOOTH",
"972 603 LINE SMOOTH",
"972 579 OFFCURVE",
"970 570 OFFCURVE",
"936 570 CURVE SMOOTH",
"126 570 LINE SMOOTH",
"94 570 OFFCURVE",
"92 574 OFFCURVE",
"92 600 CURVE SMOOTH",
"92 652 LINE SMOOTH",
"92 675 OFFCURVE",
"102 680 OFFCURVE",
"129 680 CURVE SMOOTH"
);
}
);
vertWidth = 0;
width = 1120;
}
);
unicode = 003D;
},
{
glyphname = greater;
layers = (
{
layerId = "C788331E-5670-44D3-9D66-EAA382172B0D";
paths = (
{
closed = 1;
nodes = (
"228 1045 LINE SMOOTH",
"201 1056 OFFCURVE",
"190 1063 OFFCURVE",
"190 1103 CURVE SMOOTH",
"190 1145 LINE SMOOTH",
"190 1190 OFFCURVE",
"208 1184 OFFCURVE",
"234 1173 CURVE SMOOTH",
"968 872 LINE SMOOTH",
"997 860 OFFCURVE",
"1000 851 OFFCURVE",
"1000 810 CURVE SMOOTH",
"1000 730 LINE SMOOTH",
"1000 688 OFFCURVE",
"995 687 OFFCURVE",
"966 677 CURVE SMOOTH",
"74 363 LINE SMOOTH",
"48 354 OFFCURVE",
"40 357 OFFCURVE",
"40 391 CURVE SMOOTH",
"40 437 LINE SMOOTH",
"40 474 OFFCURVE",
"50 485 OFFCURVE",
"76 494 CURVE SMOOTH",
"822 751 LINE SMOOTH",
"853 762 OFFCURVE",
"870 763 OFFCURVE",
"870 774 CURVE SMOOTH",
"870 785 OFFCURVE",
"857 784 OFFCURVE",
"824 798 CURVE SMOOTH"
);
}
);
vertWidth = 0;
width = 1120;
},
{
layerId = "166B8CC3-B8B2-42DF-8AC5-58EF4CD93FB2";
paths = (
{
closed = 1;
nodes = (
"230 975 LINE SMOOTH",
"201 986 OFFCURVE",
"190 997 OFFCURVE",
"190 1039 CURVE SMOOTH",
"190 1157 LINE SMOOTH",
"190 1215 OFFCURVE",
"197 1217 OFFCURVE",
"236 1202 CURVE SMOOTH",
"956 908 LINE SMOOTH",
"989 895 OFFCURVE",
"1000 878 OFFCURVE",
"1000 830 CURVE SMOOTH",
"1000 720 LINE SMOOTH",
"1000 660 OFFCURVE",
"985 654 OFFCURVE",
"944 638 CURVE SMOOTH",
"100 304 LINE SMOOTH",
"60 288 OFFCURVE",
"40 285 OFFCURVE",
"40 351 CURVE SMOOTH",
"40 438 LINE SMOOTH",
"40 495 OFFCURVE",
"48 513 OFFCURVE",
"88 528 CURVE SMOOTH",
"682 748 LINE SMOOTH",
"717 761 OFFCURVE",
"738 762 OFFCURVE",
"738 774 CURVE SMOOTH",
"738 791 OFFCURVE",
"721 787 OFFCURVE",
"682 802 CURVE SMOOTH"
);
}
);
vertWidth = 0;
width = 1120;
},
{
layerId = "6A50D5EA-2B4A-4D44-BCCC-14A16F5631EA";
paths = (
{
closed = 1;
nodes = (
"230 975 LINE SMOOTH",
"201 986 OFFCURVE",
"190 997 OFFCURVE",
"190 1039 CURVE SMOOTH",
"190 1157 LINE SMOOTH",
"190 1215 OFFCURVE",
"197 1217 OFFCURVE",
"236 1202 CURVE SMOOTH",
"956 908 LINE SMOOTH",
"989 895 OFFCURVE",
"1000 878 OFFCURVE",
"1000 830 CURVE SMOOTH",
"1000 720 LINE SMOOTH",
"1000 660 OFFCURVE",
"985 654 OFFCURVE",
"944 638 CURVE SMOOTH",
"100 304 LINE SMOOTH",
"60 288 OFFCURVE",
"40 285 OFFCURVE",
"40 351 CURVE SMOOTH",
"40 438 LINE SMOOTH",
"40 495 OFFCURVE",
"48 513 OFFCURVE",
"88 528 CURVE SMOOTH",
"682 748 LINE SMOOTH",
"717 761 OFFCURVE",
"738 762 OFFCURVE",
"738 774 CURVE SMOOTH",
"738 791 OFFCURVE",
"721 787 OFFCURVE",
"682 802 CURVE SMOOTH"
);
}
);
vertWidth = 0;
width = 1120;
},
{
layerId = "5A070E73-1DB9-476B-9E26-8EFE8B60F44F";
paths = (
{
closed = 1;
nodes = (
"228 1045 LINE SMOOTH",
"201 1056 OFFCURVE",
"190 1063 OFFCURVE",
"190 1103 CURVE SMOOTH",
"190 1145 LINE SMOOTH",
"190 1190 OFFCURVE",
"208 1184 OFFCURVE",
"234 1173 CURVE SMOOTH",
"968 872 LINE SMOOTH",
"997 860 OFFCURVE",
"1000 851 OFFCURVE",
"1000 810 CURVE SMOOTH",
"1000 730 LINE SMOOTH",
"1000 688 OFFCURVE",
"995 687 OFFCURVE",
"966 677 CURVE SMOOTH",
"74 363 LINE SMOOTH",
"48 354 OFFCURVE",
"40 357 OFFCURVE",
"40 391 CURVE SMOOTH",
"40 437 LINE SMOOTH",
"40 474 OFFCURVE",
"50 485 OFFCURVE",
"76 494 CURVE SMOOTH",
"822 751 LINE SMOOTH",
"853 762 OFFCURVE",
"870 763 OFFCURVE",
"870 774 CURVE SMOOTH",
"870 785 OFFCURVE",
"857 784 OFFCURVE",
"824 798 CURVE SMOOTH"
);
}
);
vertWidth = 0;
width = 1120;
}
);
unicode = 003E;
},
{
glyphname = question;
layers = (
{
components = (
{
name = period;
transform = "{1, 0, 0, 1, 298, 0}";
}
);
layerId = "C788331E-5670-44D3-9D66-EAA382172B0D";
paths = (
{
closed = 1;
nodes = (
"498 397 OFFCURVE",
"438 392 OFFCURVE",
"402 392 CURVE SMOOTH",
"281 392 OFFCURVE",
"210 466 OFFCURVE",
"210 570 CURVE SMOOTH",
"210 826 OFFCURVE",
"858 865 OFFCURVE",
"858 1200 CURVE SMOOTH",
"858 1348 OFFCURVE",
"760 1426 OFFCURVE",
"602 1426 CURVE SMOOTH",
"474 1426 OFFCURVE",
"358 1368 OFFCURVE",
"358 1324 CURVE SMOOTH",
"358 1264 OFFCURVE",
"420 1262 OFFCURVE",
"420 1160 CURVE SMOOTH",
"420 1076 OFFCURVE",
"354 1040 OFFCURVE",
"284 1040 CURVE SMOOTH",
"214 1040 OFFCURVE",
"150 1086 OFFCURVE",
"150 1182 CURVE SMOOTH",
"150 1366 OFFCURVE",
"338 1520 OFFCURVE",
"642 1520 CURVE SMOOTH",
"904 1520 OFFCURVE",
"1040 1400 OFFCURVE",
"1040 1180 CURVE SMOOTH",
"1040 726 OFFCURVE",
"351 729 OFFCURVE",
"351 567 CURVE SMOOTH",
"351 534 OFFCURVE",
"373 506 OFFCURVE",
"420 506 CURVE SMOOTH",
"444 506 OFFCURVE",
"489 511 OFFCURVE",
"530 546 CURVE SMOOTH",
"546 560 OFFCURVE",
"548 559 OFFCURVE",
"554 527 CURVE SMOOTH",
"566 476 LINE SMOOTH",
"570 453 OFFCURVE",
"568 449 OFFCURVE",
"553 438 CURVE SMOOTH"
);
}
);
vertWidth = 0;
width = 1100;
},
{
components = (
{
name = period;
transform = "{1, 0, 0, 1, 338, 0}";
}
);
layerId = "166B8CC3-B8B2-42DF-8AC5-58EF4CD93FB2";
paths = (
{
closed = 1;
nodes = (
"654 476 OFFCURVE",
"593 472 OFFCURVE",
"562 472 CURVE SMOOTH",
"441 472 OFFCURVE",
"290 536 OFFCURVE",
"290 680 CURVE SMOOTH",
"290 996 OFFCURVE",
"858 865 OFFCURVE",
"858 1200 CURVE SMOOTH",
"858 1308 OFFCURVE",
"800 1366 OFFCURVE",
"702 1366 CURVE SMOOTH",
"634 1366 OFFCURVE",
"578 1350 OFFCURVE",
"578 1326 CURVE SMOOTH",
"578 1286 OFFCURVE",
"660 1282 OFFCURVE",
"660 1140 CURVE SMOOTH",
"660 1016 OFFCURVE",
"514 940 OFFCURVE",
"404 940 CURVE SMOOTH",
"294 940 OFFCURVE",
"150 1026 OFFCURVE",
"150 1162 CURVE SMOOTH",
"150 1366 OFFCURVE",
"398 1540 OFFCURVE",
"762 1540 CURVE SMOOTH",
"1104 1540 OFFCURVE",
"1280 1400 OFFCURVE",
"1280 1180 CURVE SMOOTH",
"1280 726 OFFCURVE",
"531 783 OFFCURVE",
"531 701 CURVE SMOOTH",
"531 678 OFFCURVE",
"553 666 OFFCURVE",
"600 666 CURVE SMOOTH",
"622 666 OFFCURVE",
"675 670 OFFCURVE",
"728 688 CURVE SMOOTH",
"766 701 OFFCURVE",
"770 714 OFFCURVE",
"775 661 CURVE SMOOTH",
"786 555 LINE SMOOTH",
"792 501 OFFCURVE",
"770 505 OFFCURVE",
"727 494 CURVE SMOOTH"
);
}
);
vertWidth = 0;
width = 1220;
},
{
components = (
{
name = period;
transform = "{1, 0, 0, 1, 338, 0}";
}
);
layerId = "6A50D5EA-2B4A-4D44-BCCC-14A16F5631EA";
paths = (
{
closed = 1;
nodes = (
"654 476 OFFCURVE",
"593 472 OFFCURVE",
"562 472 CURVE SMOOTH",
"441 472 OFFCURVE",
"290 536 OFFCURVE",
"290 680 CURVE SMOOTH",
"290 996 OFFCURVE",
"858 865 OFFCURVE",
"858 1200 CURVE SMOOTH",
"858 1308 OFFCURVE",
"800 1366 OFFCURVE",
"702 1366 CURVE SMOOTH",
"634 1366 OFFCURVE",
"578 1350 OFFCURVE",
"578 1326 CURVE SMOOTH",
"578 1286 OFFCURVE",
"660 1282 OFFCURVE",
"660 1140 CURVE SMOOTH",
"660 1016 OFFCURVE",
"514 940 OFFCURVE",
"404 940 CURVE SMOOTH",
"294 940 OFFCURVE",
"150 1026 OFFCURVE",
"150 1162 CURVE SMOOTH",
"150 1366 OFFCURVE",
"398 1540 OFFCURVE",
"762 1540 CURVE SMOOTH",
"1104 1540 OFFCURVE",
"1280 1400 OFFCURVE",
"1280 1180 CURVE SMOOTH",
"1280 726 OFFCURVE",
"531 783 OFFCURVE",
"531 701 CURVE SMOOTH",
"531 678 OFFCURVE",
"553 666 OFFCURVE",
"600 666 CURVE SMOOTH",
"622 666 OFFCURVE",
"675 670 OFFCURVE",
"728 688 CURVE SMOOTH",
"766 701 OFFCURVE",
"770 714 OFFCURVE",
"775 661 CURVE SMOOTH",
"786 555 LINE SMOOTH",
"792 501 OFFCURVE",
"770 505 OFFCURVE",
"727 494 CURVE SMOOTH"
);
}
);
vertWidth = 0;
width = 1220;
},
{
components = (
{
name = period;
transform = "{1, 0, 0, 1, 298, 0}";
}
);
layerId = "5A070E73-1DB9-476B-9E26-8EFE8B60F44F";
paths = (
{
closed = 1;
nodes = (
"498 397 OFFCURVE",
"438 392 OFFCURVE",
"402 392 CURVE SMOOTH",
"281 392 OFFCURVE",
"210 466 OFFCURVE",
"210 570 CURVE SMOOTH",
"210 826 OFFCURVE",
"858 865 OFFCURVE",
"858 1200 CURVE SMOOTH",
"858 1348 OFFCURVE",
"760 1426 OFFCURVE",
"602 1426 CURVE SMOOTH",
"474 1426 OFFCURVE",
"358 1368 OFFCURVE",
"358 1324 CURVE SMOOTH",
"358 1264 OFFCURVE",
"420 1262 OFFCURVE",
"420 1160 CURVE SMOOTH",
"420 1076 OFFCURVE",
"354 1040 OFFCURVE",
"284 1040 CURVE SMOOTH",
"214 1040 OFFCURVE",
"150 1086 OFFCURVE",
"150 1182 CURVE SMOOTH",
"150 1366 OFFCURVE",
"338 1520 OFFCURVE",
"642 1520 CURVE SMOOTH",
"904 1520 OFFCURVE",
"1040 1400 OFFCURVE",
"1040 1180 CURVE SMOOTH",
"1040 726 OFFCURVE",
"351 729 OFFCURVE",
"351 567 CURVE SMOOTH",
"351 534 OFFCURVE",
"373 506 OFFCURVE",
"420 506 CURVE SMOOTH",
"444 506 OFFCURVE",
"489 511 OFFCURVE",
"530 546 CURVE SMOOTH",
"546 560 OFFCURVE",
"548 559 OFFCURVE",
"554 527 CURVE SMOOTH",
"566 476 LINE SMOOTH",
"570 453 OFFCURVE",
"568 449 OFFCURVE",
"553 438 CURVE SMOOTH"
);
}
);
vertWidth = 0;
width = 1100;
}
);
unicode = 003F;
},
{
glyphname = at;
layers = (
{
layerId = "C788331E-5670-44D3-9D66-EAA382172B0D";
paths = (
{
closed = 1;
nodes = (
"1328 776 OFFCURVE",
"1300 956 OFFCURVE",
"1168 956 CURVE SMOOTH",
"1020 956 OFFCURVE",
"870 728 OFFCURVE",
"870 480 CURVE SMOOTH",
"870 346 OFFCURVE",
"900 244 OFFCURVE",
"1028 244 CURVE SMOOTH",
"1150 244 OFFCURVE",
"1328 436 OFFCURVE",
"1328 692 CURVE SMOOTH"
);
},
{
closed = 1;
nodes = (
"1474 -336 OFFCURVE",
"1245 -428 OFFCURVE",
"938 -428 CURVE SMOOTH",
"652 -428 OFFCURVE",
"130 -224 OFFCURVE",
"130 442 CURVE SMOOTH",
"130 1108 OFFCURVE",
"624 1580 OFFCURVE",
"1170 1580 CURVE SMOOTH",
"1716 1580 OFFCURVE",
"2010 1208 OFFCURVE",
"2010 842 CURVE SMOOTH",
"2010 522 OFFCURVE",
"1824 140 OFFCURVE",
"1482 140 CURVE SMOOTH",
"1376 140 OFFCURVE",
"1322 198 OFFCURVE",
"1289 267 CURVE SMOOTH",
"1269 309 OFFCURVE",
"1272 325 OFFCURVE",
"1223 271 CURVE SMOOTH",
"1148 188 OFFCURVE",
"1057 140 OFFCURVE",
"968 140 CURVE SMOOTH",
"810 140 OFFCURVE",
"668 251 OFFCURVE",
"668 460 CURVE SMOOTH",
"668 760 OFFCURVE",
"898 1058 OFFCURVE",
"1136 1058 CURVE SMOOTH",
"1239 1058 OFFCURVE",
"1311 1004 OFFCURVE",
"1351 912 CURVE SMOOTH",
"1379 848 OFFCURVE",
"1378 841 OFFCURVE",
"1393 905 CURVE SMOOTH",
"1417 1010 LINE SMOOTH",
"1422 1033 OFFCURVE",
"1429 1040 OFFCURVE",
"1459 1040 CURVE SMOOTH",
"1550 1040 LINE SMOOTH",
"1596 1040 OFFCURVE",
"1601 1027 OFFCURVE",
"1591 986 CURVE SMOOTH",
"1460 420 LINE SMOOTH",
"1456 394 OFFCURVE",
"1432 264 OFFCURVE",
"1526 264 CURVE SMOOTH",
"1728 264 OFFCURVE",
"1884 542 OFFCURVE",
"1884 850 CURVE SMOOTH",
"1884 1204 OFFCURVE",
"1572 1474 OFFCURVE",
"1204 1474 CURVE SMOOTH",
"716 1474 OFFCURVE",
"340 1006 OFFCURVE",
"340 462 CURVE SMOOTH",
"340 -142 OFFCURVE",
"702 -318 OFFCURVE",
"990 -318 CURVE SMOOTH",
"1185 -318 OFFCURVE",
"1385 -255 OFFCURVE",
"1557 -86 CURVE SMOOTH",
"1588 -56 OFFCURVE",
"1588 -46 OFFCURVE",
"1620 -78 CURVE SMOOTH",
"1649 -107 LINE SMOOTH",
"1674 -132 OFFCURVE",
"1664 -136 OFFCURVE",
"1640 -161 CURVE SMOOTH"
);
}
);
vertWidth = 2310;
width = 2120;
},
{
layerId = "166B8CC3-B8B2-42DF-8AC5-58EF4CD93FB2";
paths = (
{
closed = 1;
nodes = (
"1348 776 OFFCURVE",
"1344 836 OFFCURVE",
"1288 836 CURVE SMOOTH",
"1200 836 OFFCURVE",
"1130 608 OFFCURVE",
"1130 480 CURVE SMOOTH",
"1130 386 OFFCURVE",
"1140 364 OFFCURVE",
"1168 364 CURVE SMOOTH",
"1250 364 OFFCURVE",
"1348 536 OFFCURVE",
"1348 692 CURVE SMOOTH"
);
},
{
closed = 1;
nodes = (
"1600 -353 OFFCURVE",
"1350 -448 OFFCURVE",
"1038 -448 CURVE SMOOTH",
"672 -448 OFFCURVE",
"90 -224 OFFCURVE",
"90 442 CURVE SMOOTH",
"90 1108 OFFCURVE",
"644 1600 OFFCURVE",
"1270 1600 CURVE SMOOTH",
"1856 1600 OFFCURVE",
"2180 1248 OFFCURVE",
"2180 802 CURVE SMOOTH",
"2180 462 OFFCURVE",
"1944 126 OFFCURVE",
"1582 126 CURVE SMOOTH",
"1481 126 OFFCURVE",
"1405 172 OFFCURVE",
"1354 230 CURVE SMOOTH",
"1324 264 OFFCURVE",
"1314 272 OFFCURVE",
"1274 239 CURVE SMOOTH",
"1200 178 OFFCURVE",
"1119 130 OFFCURVE",
"1008 130 CURVE SMOOTH",
"850 130 OFFCURVE",
"708 211 OFFCURVE",
"708 420 CURVE SMOOTH",
"708 640 OFFCURVE",
"878 1068 OFFCURVE",
"1196 1068 CURVE SMOOTH",
"1314 1068 OFFCURVE",
"1372 1027 OFFCURVE",
"1400 958 CURVE SMOOTH",
"1415 922 OFFCURVE",
"1420 917 OFFCURVE",
"1428 961 CURVE SMOOTH",
"1438 1012 LINE SMOOTH",
"1444 1042 OFFCURVE",
"1449 1040 OFFCURVE",
"1486 1040 CURVE SMOOTH",
"1719 1040 LINE SMOOTH",
"1770 1040 OFFCURVE",
"1783 1036 OFFCURVE",
"1772 989 CURVE SMOOTH",
"1640 440 LINE SMOOTH",
"1636 414 OFFCURVE",
"1610 340 OFFCURVE",
"1676 340 CURVE SMOOTH",
"1778 340 OFFCURVE",
"1954 482 OFFCURVE",
"1954 810 CURVE SMOOTH",
"1954 1224 OFFCURVE",
"1612 1364 OFFCURVE",
"1344 1364 CURVE SMOOTH",
"956 1364 OFFCURVE",
"540 1046 OFFCURVE",
"540 482 CURVE SMOOTH",
"540 58 OFFCURVE",
"762 -218 OFFCURVE",
"1110 -218 CURVE SMOOTH",
"1284 -218 OFFCURVE",
"1446 -208 OFFCURVE",
"1612 -51 CURVE SMOOTH",
"1642 -23 OFFCURVE",
"1645 -3 OFFCURVE",
"1677 -35 CURVE SMOOTH",
"1770 -128 LINE SMOOTH",
"1791 -149 OFFCURVE",
"1788 -151 OFFCURVE",
"1768 -173 CURVE SMOOTH"
);
}
);
vertWidth = 2310;
width = 2300;
},
{
layerId = "6A50D5EA-2B4A-4D44-BCCC-14A16F5631EA";
paths = (
{
closed = 1;
nodes = (
"1348 776 OFFCURVE",
"1344 836 OFFCURVE",
"1288 836 CURVE SMOOTH",
"1200 836 OFFCURVE",
"1130 608 OFFCURVE",
"1130 480 CURVE SMOOTH",
"1130 386 OFFCURVE",
"1140 364 OFFCURVE",
"1168 364 CURVE SMOOTH",
"1250 364 OFFCURVE",
"1348 536 OFFCURVE",
"1348 692 CURVE SMOOTH"
);
},
{
closed = 1;
nodes = (
"1600 -353 OFFCURVE",
"1350 -448 OFFCURVE",
"1038 -448 CURVE SMOOTH",
"672 -448 OFFCURVE",
"90 -224 OFFCURVE",
"90 442 CURVE SMOOTH",
"90 1108 OFFCURVE",
"644 1600 OFFCURVE",
"1270 1600 CURVE SMOOTH",
"1856 1600 OFFCURVE",
"2180 1248 OFFCURVE",
"2180 802 CURVE SMOOTH",
"2180 462 OFFCURVE",
"1944 126 OFFCURVE",
"1582 126 CURVE SMOOTH",
"1481 126 OFFCURVE",
"1405 172 OFFCURVE",
"1354 230 CURVE SMOOTH",
"1324 264 OFFCURVE",
"1314 272 OFFCURVE",
"1274 239 CURVE SMOOTH",
"1200 178 OFFCURVE",
"1119 130 OFFCURVE",
"1008 130 CURVE SMOOTH",
"850 130 OFFCURVE",
"708 211 OFFCURVE",
"708 420 CURVE SMOOTH",
"708 640 OFFCURVE",
"878 1068 OFFCURVE",
"1196 1068 CURVE SMOOTH",
"1314 1068 OFFCURVE",
"1372 1027 OFFCURVE",
"1400 958 CURVE SMOOTH",
"1415 922 OFFCURVE",
"1420 917 OFFCURVE",
"1428 961 CURVE SMOOTH",
"1438 1012 LINE SMOOTH",
"1444 1042 OFFCURVE",
"1449 1040 OFFCURVE",
"1486 1040 CURVE SMOOTH",
"1719 1040 LINE SMOOTH",
"1770 1040 OFFCURVE",
"1783 1036 OFFCURVE",
"1772 989 CURVE SMOOTH",
"1640 440 LINE SMOOTH",
"1636 414 OFFCURVE",
"1610 340 OFFCURVE",
"1676 340 CURVE SMOOTH",
"1778 340 OFFCURVE",
"1954 482 OFFCURVE",
"1954 810 CURVE SMOOTH",
"1954 1224 OFFCURVE",
"1612 1364 OFFCURVE",
"1344 1364 CURVE SMOOTH",
"956 1364 OFFCURVE",
"540 1046 OFFCURVE",
"540 482 CURVE SMOOTH",
"540 58 OFFCURVE",
"762 -218 OFFCURVE",
"1110 -218 CURVE SMOOTH",
"1284 -218 OFFCURVE",
"1446 -208 OFFCURVE",
"1612 -51 CURVE SMOOTH",
"1642 -23 OFFCURVE",
"1645 -3 OFFCURVE",
"1677 -35 CURVE SMOOTH",
"1770 -128 LINE SMOOTH",
"1791 -149 OFFCURVE",
"1788 -151 OFFCURVE",
"1768 -173 CURVE SMOOTH"
);
}
);
vertWidth = 2310;
width = 2300;
},
{
layerId = "5A070E73-1DB9-476B-9E26-8EFE8B60F44F";
paths = (
{
closed = 1;
nodes = (
"1328 776 OFFCURVE",
"1300 956 OFFCURVE",
"1168 956 CURVE SMOOTH",
"1020 956 OFFCURVE",
"870 728 OFFCURVE",
"870 480 CURVE SMOOTH",
"870 346 OFFCURVE",
"900 244 OFFCURVE",
"1028 244 CURVE SMOOTH",
"1150 244 OFFCURVE",
"1328 436 OFFCURVE",
"1328 692 CURVE SMOOTH"
);
},
{
closed = 1;
nodes = (
"1474 -336 OFFCURVE",
"1245 -428 OFFCURVE",
"938 -428 CURVE SMOOTH",
"652 -428 OFFCURVE",
"130 -224 OFFCURVE",
"130 442 CURVE SMOOTH",
"130 1108 OFFCURVE",
"624 1580 OFFCURVE",
"1170 1580 CURVE SMOOTH",
"1716 1580 OFFCURVE",
"2010 1208 OFFCURVE",
"2010 842 CURVE SMOOTH",
"2010 522 OFFCURVE",
"1824 140 OFFCURVE",
"1482 140 CURVE SMOOTH",
"1376 140 OFFCURVE",
"1322 198 OFFCURVE",
"1289 267 CURVE SMOOTH",
"1269 309 OFFCURVE",
"1272 325 OFFCURVE",
"1223 271 CURVE SMOOTH",
"1148 188 OFFCURVE",
"1057 140 OFFCURVE",
"968 140 CURVE SMOOTH",
"810 140 OFFCURVE",
"668 251 OFFCURVE",
"668 460 CURVE SMOOTH",
"668 760 OFFCURVE",
"898 1058 OFFCURVE",
"1136 1058 CURVE SMOOTH",
"1239 1058 OFFCURVE",
"1311 1004 OFFCURVE",
"1351 912 CURVE SMOOTH",
"1379 848 OFFCURVE",
"1378 841 OFFCURVE",
"1393 905 CURVE SMOOTH",
"1417 1010 LINE SMOOTH",
"1422 1033 OFFCURVE",
"1429 1040 OFFCURVE",
"1459 1040 CURVE SMOOTH",
"1550 1040 LINE SMOOTH",
"1596 1040 OFFCURVE",
"1601 1027 OFFCURVE",
"1591 986 CURVE SMOOTH",
"1460 420 LINE SMOOTH",
"1456 394 OFFCURVE",
"1432 264 OFFCURVE",
"1526 264 CURVE SMOOTH",
"1728 264 OFFCURVE",
"1884 542 OFFCURVE",
"1884 850 CURVE SMOOTH",
"1884 1204 OFFCURVE",
"1572 1474 OFFCURVE",
"1204 1474 CURVE SMOOTH",
"716 1474 OFFCURVE",
"340 1006 OFFCURVE",
"340 462 CURVE SMOOTH",
"340 -142 OFFCURVE",
"702 -318 OFFCURVE",
"990 -318 CURVE SMOOTH",
"1185 -318 OFFCURVE",
"1385 -255 OFFCURVE",
"1557 -86 CURVE SMOOTH",
"1588 -56 OFFCURVE",
"1588 -46 OFFCURVE",
"1620 -78 CURVE SMOOTH",
"1649 -107 LINE SMOOTH",
"1674 -132 OFFCURVE",
"1664 -136 OFFCURVE",
"1640 -161 CURVE SMOOTH"
);
}
);
vertWidth = 2310;
width = 2120;
}
);
unicode = 0040;
},
{
glyphname = A;
layers = (
{
anchors = (
{
name = "Anchor-0";
position = "{1073, 1500}";
},
{
name = "Anchor-1";
position = "{686, 0}";
},
{
name = "Anchor-2";
position = "{686, 0}";
},
{
name = "Anchor-3";
position = "{1286, 0}";
}
);
layerId = "C788331E-5670-44D3-9D66-EAA382172B0D";
paths = (
{
closed = 1;
nodes = (
"563 598 LINE SMOOTH",
"543 566 OFFCURVE",
"515 550 OFFCURVE",
"578 550 CURVE SMOOTH",
"1076 550 LINE SMOOTH",
"1127 550 OFFCURVE",
"1123 553 OFFCURVE",
"1116 596 CURVE SMOOTH",
"1021 1212 LINE SMOOTH",
"1013 1264 OFFCURVE",
"1013 1284 OFFCURVE",
"998 1284 CURVE SMOOTH",
"987 1284 OFFCURVE",
"972 1248 OFFCURVE",
"947 1208 CURVE SMOOTH"
);
},
{
closed = 1;
nodes = (
"-100 72 LINE SMOOTH",
"-100 101 OFFCURVE",
"-99 110 OFFCURVE",
"-70 110 CURVE SMOOTH",
"78 110 LINE SMOOTH",
"115 110 OFFCURVE",
"115 122 OFFCURVE",
"129 144 CURVE SMOOTH",
"992 1502 LINE SMOOTH",
"1004 1521 OFFCURVE",
"1009 1530 OFFCURVE",
"1043 1530 CURVE SMOOTH",
"1108 1530 LINE SMOOTH",
"1144 1530 OFFCURVE",
"1151 1524 OFFCURVE",
"1156 1494 CURVE SMOOTH",
"1395 160 LINE SMOOTH",
"1404 112 OFFCURVE",
"1413 110 OFFCURVE",
"1470 110 CURVE SMOOTH",
"1586 110 LINE SMOOTH",
"1615 110 OFFCURVE",
"1620 104 OFFCURVE",
"1620 74 CURVE SMOOTH",
"1620 34 LINE SMOOTH",
"1620 4 OFFCURVE",
"1613 0 OFFCURVE",
"1582 0 CURVE SMOOTH",
"1006 0 LINE SMOOTH",
"980 0 OFFCURVE",
"980 7 OFFCURVE",
"980 33 CURVE SMOOTH",
"980 78 LINE SMOOTH",
"980 110 OFFCURVE",
"987 110 OFFCURVE",
"1019 110 CURVE SMOOTH",
"1140 110 LINE SMOOTH",
"1184 110 OFFCURVE",
"1190 113 OFFCURVE",
"1184 150 CURVE SMOOTH",
"1144 412 LINE SMOOTH",
"1139 447 OFFCURVE",
"1124 440 OFFCURVE",
"1086 440 CURVE SMOOTH",
"512 440 LINE SMOOTH",
"479 440 OFFCURVE",
"463 440 OFFCURVE",
"451 420 CURVE SMOOTH",
"278 144 LINE SMOOTH",
"265 123 OFFCURVE",
"264 110 OFFCURVE",
"306 110 CURVE SMOOTH",
"426 110 LINE SMOOTH",
"448 110 OFFCURVE",
"460 106 OFFCURVE",
"460 82 CURVE SMOOTH",
"460 38 LINE SMOOTH",
"460 5 OFFCURVE",
"454 0 OFFCURVE",
"420 0 CURVE SMOOTH",
"-72 0 LINE SMOOTH",
"-103 0 OFFCURVE",
"-100 4 OFFCURVE",
"-100 34 CURVE SMOOTH"
);
}
);
vertWidth = 0;
width = 1800;
},
{
anchors = (
{
name = "Anchor-0";
position = "{1198, 1500}";
},
{
name = "Anchor-1";
position = "{656, 0}";
},
{
name = "Anchor-2";
position = "{656, 0}";
},
{
name = "Anchor-3";
position = "{1396, 0}";
}
);
layerId = "166B8CC3-B8B2-42DF-8AC5-58EF4CD93FB2";
paths = (
{
closed = 1;
nodes = (
"755 732 LINE SMOOTH",
"728 691 OFFCURVE",
"710 670 OFFCURVE",
"794 670 CURVE SMOOTH",
"1002 670 LINE SMOOTH",
"1061 670 OFFCURVE",
"1077 665 OFFCURVE",
"1067 718 CURVE SMOOTH",
"1018 988 LINE SMOOTH",
"1007 1046 OFFCURVE",
"1016 1083 OFFCURVE",
"996 1083 CURVE SMOOTH",
"980 1083 OFFCURVE",
"962 1041 OFFCURVE",
"931 994 CURVE SMOOTH"
);
},
{
closed = 1;
nodes = (
"-120 236 LINE SMOOTH",
"-120 266 OFFCURVE",
"-111 270 OFFCURVE",
"-80 270 CURVE SMOOTH",
"104 270 LINE SMOOTH",
"145 270 OFFCURVE",
"145 279 OFFCURVE",
"161 302 CURVE SMOOTH",
"958 1482 LINE SMOOTH",
"981 1516 OFFCURVE",
"981 1530 OFFCURVE",
"1040 1530 CURVE SMOOTH",
"1308 1530 LINE SMOOTH",
"1398 1530 OFFCURVE",
"1392 1519 OFFCURVE",
"1407 1446 CURVE SMOOTH",
"1643 306 LINE SMOOTH",
"1650 272 OFFCURVE",
"1649 270 OFFCURVE",
"1690 270 CURVE SMOOTH",
"1822 270 LINE SMOOTH",
"1853 270 OFFCURVE",
"1860 265 OFFCURVE",
"1860 232 CURVE SMOOTH",
"1860 46 LINE SMOOTH",
"1860 8 OFFCURVE",
"1857 0 OFFCURVE",
"1820 0 CURVE SMOOTH",
"984 0 LINE SMOOTH",
"951 0 OFFCURVE",
"940 3 OFFCURVE",
"940 38 CURVE SMOOTH",
"940 206 LINE SMOOTH",
"940 251 OFFCURVE",
"944 270 OFFCURVE",
"993 270 CURVE SMOOTH",
"1112 270 LINE SMOOTH",
"1154 270 OFFCURVE",
"1149 274 OFFCURVE",
"1143 308 CURVE SMOOTH",
"1132 368 LINE SMOOTH",
"1122 419 OFFCURVE",
"1111 420 OFFCURVE",
"1050 420 CURVE SMOOTH",
"608 420 LINE SMOOTH",
"550 420 OFFCURVE",
"544 416 OFFCURVE",
"522 382 CURVE SMOOTH",
"474 310 LINE SMOOTH",
"449 272 OFFCURVE",
"440 270 OFFCURVE",
"506 270 CURVE SMOOTH",
"558 270 LINE SMOOTH",
"592 270 OFFCURVE",
"600 256 OFFCURVE",
"600 220 CURVE SMOOTH",
"600 56 LINE SMOOTH",
"600 8 OFFCURVE",
"598 0 OFFCURVE",
"550 0 CURVE SMOOTH",
"-72 0 LINE SMOOTH",
"-111 0 OFFCURVE",
"-120 1 OFFCURVE",
"-120 40 CURVE SMOOTH"
);
}
);
vertWidth = 0;
width = 2020;
},
{
anchors = (
{
name = "Anchor-0";
position = "{903, 1500}";
},
{
name = "Anchor-1";
position = "{486, 0}";
},
{
name = "Anchor-2";
position = "{1056, 0}";
},
{
name = "Anchor-3";
position = "{1056, 0}";
}
);
layerId = "6A50D5EA-2B4A-4D44-BCCC-14A16F5631EA";
paths = (
{
closed = 1;
nodes = (
"548 735 LINE SMOOTH",
"536 706 OFFCURVE",
"521 670 OFFCURVE",
"575 670 CURVE SMOOTH",
"636 670 LINE SMOOTH",
"682 670 OFFCURVE",
"682 703 OFFCURVE",
"684 731 CURVE SMOOTH",
"704 1003 LINE SMOOTH",
"705 1023 OFFCURVE",
"698 1030 OFFCURVE",
"690 1030 CURVE SMOOTH",
"679 1030 OFFCURVE",
"666 1016 OFFCURVE",
"659 999 CURVE SMOOTH"
);
},
{
closed = 1;
nodes = (
"-80 221 LINE SMOOTH",
"-80 255 OFFCURVE",
"-72 270 OFFCURVE",
"-34 270 CURVE SMOOTH",
"51 270 LINE SMOOTH",
"84 270 OFFCURVE",
"81 285 OFFCURVE",
"91 307 CURVE SMOOTH",
"623 1477 LINE SMOOTH",
"637 1508 OFFCURVE",
"640 1510 OFFCURVE",
"686 1510 CURVE SMOOTH",
"1086 1510 LINE SMOOTH",
"1133 1510 OFFCURVE",
"1151 1499 OFFCURVE",
"1152 1467 CURVE SMOOTH",
"1178 331 LINE SMOOTH",
"1179 293 OFFCURVE",
"1188 270 OFFCURVE",
"1245 270 CURVE SMOOTH",
"1257 270 LINE SMOOTH",
"1292 270 OFFCURVE",
"1310 270 OFFCURVE",
"1310 231 CURVE SMOOTH",
"1310 45 LINE SMOOTH",
"1310 5 OFFCURVE",
"1304 0 OFFCURVE",
"1265 0 CURVE SMOOTH",
"571 0 LINE SMOOTH",
"531 0 OFFCURVE",
"530 9 OFFCURVE",
"530 49 CURVE SMOOTH",
"530 227 LINE SMOOTH",
"530 265 OFFCURVE",
"536 270 OFFCURVE",
"573 270 CURVE SMOOTH",
"607 270 LINE SMOOTH",
"655 270 OFFCURVE",
"651 280 OFFCURVE",
"656 319 CURVE SMOOTH",
"664 387 LINE SMOOTH",
"667 414 OFFCURVE",
"656 420 OFFCURVE",
"617 420 CURVE SMOOTH",
"470 420 LINE SMOOTH",
"431 420 OFFCURVE",
"418 423 OFFCURVE",
"408 395 CURVE SMOOTH",
"378 313 LINE SMOOTH",
"367 282 OFFCURVE",
"377 270 OFFCURVE",
"403 270 CURVE SMOOTH",
"407 270 LINE SMOOTH",
"439 270 OFFCURVE",
"440 261 OFFCURVE",
"440 229 CURVE SMOOTH",
"440 37 LINE SMOOTH",
"440 4 OFFCURVE",
"430 0 OFFCURVE",
"399 0 CURVE SMOOTH",
"-14 0 LINE SMOOTH",
"-70 0 OFFCURVE",
"-80 1 OFFCURVE",
"-80 57 CURVE SMOOTH"
);
}
);
vertWidth = 0;
width = 1390;
},
{
anchors = (
{
name = "Anchor-0";
position = "{723, 1500}";
},
{
name = "Anchor-1";
position = "{436, 0}";
},
{
name = "Anchor-2";
position = "{436, 0}";
},
{
name = "Anchor-3";
position = "{826, 0}";
}
);
layerId = "5A070E73-1DB9-476B-9E26-8EFE8B60F44F";
paths = (
{
closed = 1;
nodes = (
"329 598 LINE SMOOTH",
"313.058 564.092 OFFCURVE",
"311 550 OFFCURVE",
"354 550 CURVE SMOOTH",
"666 550 LINE SMOOTH",
"717 550 OFFCURVE",
"716.957 552.866 OFFCURVE",
"716 596 CURVE SMOOTH",
"701 1272 LINE SMOOTH",
"699.843 1324.152 OFFCURVE",
"703 1346 OFFCURVE",
"688 1346 CURVE SMOOTH",
"677 1346 OFFCURVE",
"663.927 1310.385 OFFCURVE",
"644 1268 CURVE SMOOTH"
);
},
{
closed = 1;
nodes = (
"-150 72 LINE SMOOTH",
"-150 101 OFFCURVE",
"-149 110 OFFCURVE",
"-120 110 CURVE SMOOTH",
"-72 110 LINE SMOOTH",
"-35 110 OFFCURVE",
"-40 122 OFFCURVE",
"-26 144 CURVE SMOOTH",
"632 1482 LINE SMOOTH",
"644 1501 OFFCURVE",
"649 1510 OFFCURVE",
"683 1510 CURVE SMOOTH",
"818 1510 LINE SMOOTH",
"854 1510 OFFCURVE",
"861 1504 OFFCURVE",
"866 1474 CURVE SMOOTH",
"932 160 LINE SMOOTH",
"934.428 111.67 OFFCURVE",
"960 110 OFFCURVE",
"997 110 CURVE SMOOTH",
"1013 110 LINE SMOOTH",
"1042 110 OFFCURVE",
"1047 104 OFFCURVE",
"1047 74 CURVE SMOOTH",
"1047 34 LINE SMOOTH",
"1047 4 OFFCURVE",
"1040 0 OFFCURVE",
"1009 0 CURVE SMOOTH",
"639 0 LINE SMOOTH",
"613 0 OFFCURVE",
"613 7 OFFCURVE",
"613 33 CURVE SMOOTH",
"613 78 LINE SMOOTH",
"613 110 OFFCURVE",
"620 110 OFFCURVE",
"652 110 CURVE SMOOTH",
"693 110 LINE SMOOTH",
"727 110 OFFCURVE",
"738.92 112.79 OFFCURVE",
"737 150 CURVE SMOOTH",
"724 402 LINE SMOOTH",
"722.255 437.161 OFFCURVE",
"704 440 OFFCURVE",
"666 440 CURVE SMOOTH",
"302 440 LINE SMOOTH",
"269 440 OFFCURVE",
"250 440 OFFCURVE",
"238 420 CURVE SMOOTH",
"105 144 LINE SMOOTH",
"94.338 121.874 OFFCURVE",
"103 110 OFFCURVE",
"145 110 CURVE SMOOTH",
"176 110 LINE SMOOTH",
"198 110 OFFCURVE",
"210 106 OFFCURVE",
"210 82 CURVE SMOOTH",
"210 38 LINE SMOOTH",
"210 5 OFFCURVE",
"204 0 OFFCURVE",
"170 0 CURVE SMOOTH",
"-122 0 LINE SMOOTH",
"-153 0 OFFCURVE",
"-150 4 OFFCURVE",
"-150 34 CURVE SMOOTH"
);
}
);
vertWidth = 0;
width = 1210;
},
{
associatedMasterId = "5A070E73-1DB9-476B-9E26-8EFE8B60F44F";
layerId = "1A7DC7E0-46E8-4C67-9D3F-F5B2D2647261";
name = Back;
paths = (
{
closed = 1;
nodes = (
"318 578 LINE SMOOTH",
"307 554 OFFCURVE",
"304 550 OFFCURVE",
"340 550 CURVE SMOOTH",
"666 550 LINE SMOOTH",
"707 550 OFFCURVE",
"715 552 OFFCURVE",
"714 596 CURVE SMOOTH",
"700 1316 LINE SMOOTH",
"699 1357 OFFCURVE",
"686 1357 OFFCURVE",
"669 1322 CURVE SMOOTH"
);
},
{
closed = 1;
nodes = (
"-151 84 LINE SMOOTH",
"-147 104 OFFCURVE",
"-140 110 OFFCURVE",
"-118 110 CURVE SMOOTH",
"-92 110 LINE SMOOTH",
"-50 110 OFFCURVE",
"-36 121 OFFCURVE",
"-22 150 CURVE SMOOTH",
"641 1500 LINE SMOOTH",
"647 1509 OFFCURVE",
"651 1510 OFFCURVE",
"664 1510 CURVE SMOOTH",
"844 1510 LINE SMOOTH",
"860 1510 OFFCURVE",
"865 1509 OFFCURVE",
"867 1498 CURVE SMOOTH",
"932 154 LINE SMOOTH",
"934 121 OFFCURVE",
"932 110 OFFCURVE",
"978 110 CURVE SMOOTH",
"1036 110 LINE SMOOTH",
"1063 110 OFFCURVE",
"1064 106 OFFCURVE",
"1058 79 CURVE SMOOTH",
"1048 35 LINE SMOOTH",
"1041 4 OFFCURVE",
"1039 0 OFFCURVE",
"1008 0 CURVE SMOOTH",
"628 0 LINE SMOOTH",
"602 0 OFFCURVE",
"591 3 OFFCURVE",
"597 32 CURVE SMOOTH",
"607 78 LINE SMOOTH",
"613 106 OFFCURVE",
"624 110 OFFCURVE",
"650 110 CURVE SMOOTH",
"712 110 LINE SMOOTH",
"734 110 OFFCURVE",
"738 127 OFFCURVE",
"737 146 CURVE SMOOTH",
"727 386 LINE SMOOTH",
"725 431 OFFCURVE",
"724 440 OFFCURVE",
"660 440 CURVE SMOOTH",
"305 440 LINE SMOOTH",
"259 440 OFFCURVE",
"244 432 OFFCURVE",
"229 400 CURVE SMOOTH",
"111 158 LINE SMOOTH",
"95 125 OFFCURVE",
"97 110 OFFCURVE",
"131 110 CURVE SMOOTH",
"182 110 LINE SMOOTH",
"206 110 OFFCURVE",
"214 105 OFFCURVE",
"208 80 CURVE SMOOTH",
"197 32 LINE SMOOTH",
"190 0 OFFCURVE",
"190 0 OFFCURVE",
"158 0 CURVE SMOOTH",
"-120 0 LINE SMOOTH",
"-157 0 OFFCURVE",
"-170 2 OFFCURVE",
"-161 42 CURVE SMOOTH"
);
}
);
vertWidth = 0;
width = 1210;
}
);
leftKerningGroup = kc0_3;
rightKerningGroup = kc0_5;
unicode = 0041;
},
{
glyphname = B;
layers = (
{
anchors = (
{
name = "Anchor-0";
position = "{833, 1500}";
},
{
name = "Anchor-1";
position = "{546, 0}";
},
{
name = "Anchor-2";
position = "{546, 0}";
}
);
layerId = "C788331E-5670-44D3-9D66-EAA382172B0D";
paths = (
{
closed = 1;
nodes = (
"-40 0 LINE SMOOTH",
"-74 0 OFFCURVE",
"-80 5 OFFCURVE",
"-80 41 CURVE SMOOTH",
"-80 85 LINE SMOOTH",
"-80 104 OFFCURVE",
"-74 110 OFFCURVE",
"-56 110 CURVE SMOOTH",
"116 110 LINE SMOOTH",
"156 110 OFFCURVE",
"169 115 OFFCURVE",
"176 149 CURVE SMOOTH",
"433 1353 LINE SMOOTH",
"440 1386 OFFCURVE",
"436 1390 OFFCURVE",
"394 1390 CURVE SMOOTH",
"236 1390 LINE SMOOTH",
"207 1390 OFFCURVE",
"196 1393 OFFCURVE",
"196 1425 CURVE SMOOTH",
"196 1479 LINE SMOOTH",
"196 1498 OFFCURVE",
"204 1500 OFFCURVE",
"224 1500 CURVE SMOOTH",
"1024 1500 LINE SMOOTH",
"1326 1500 OFFCURVE",
"1444 1310 OFFCURVE",
"1444 1150 CURVE SMOOTH",
"1444 946 OFFCURVE",
"1328 832 OFFCURVE",
"1124 785 CURVE SMOOTH",
"1099 779 OFFCURVE",
"1089 785 OFFCURVE",
"1089 776 CURVE SMOOTH",
"1089 767 OFFCURVE",
"1101 773 OFFCURVE",
"1123 767 CURVE SMOOTH",
"1290 724 OFFCURVE",
"1364 621 OFFCURVE",
"1364 460 CURVE SMOOTH",
"1364 220 OFFCURVE",
"1226 0 OFFCURVE",
"744 0 CURVE SMOOTH"
);
},
{
closed = 1;
nodes = (
"1056 110 OFFCURVE",
"1144 322 OFFCURVE",
"1144 460 CURVE SMOOTH",
"1144 618 OFFCURVE",
"1056 720 OFFCURVE",
"884 720 CURVE SMOOTH",
"534 720 LINE SMOOTH",
"501 720 OFFCURVE",
"496 711 OFFCURVE",
"490 683 CURVE SMOOTH",
"376 151 LINE SMOOTH",
"370 124 OFFCURVE",
"367 110 OFFCURVE",
"404 110 CURVE SMOOTH",
"724 110 LINE SMOOTH"
);
},
{
closed = 1;
nodes = (
"864 830 LINE SMOOTH",
"1016 830 OFFCURVE",
"1244 932 OFFCURVE",
"1244 1150 CURVE SMOOTH",
"1244 1288 OFFCURVE",
"1176 1390 OFFCURVE",
"1024 1390 CURVE SMOOTH",
"674 1390 LINE SMOOTH",
"639 1390 OFFCURVE",
"640 1387 OFFCURVE",
"634 1359 CURVE SMOOTH",
"530 871 LINE SMOOTH",
"523 840 OFFCURVE",
"522 830 OFFCURVE",
"564 830 CURVE SMOOTH"
);
}
);
vertWidth = 0;
width = 1484;
},
{
anchors = (
{
name = "Anchor-0";
position = "{1028, 1500}";
},
{
name = "Anchor-1";
position = "{686, 0}";
},
{
name = "Anchor-2";
position = "{686, 0}";
}
);
layerId = "166B8CC3-B8B2-42DF-8AC5-58EF4CD93FB2";
paths = (
{
closed = 1;
nodes = (
"-32 0 LINE SMOOTH",
"-91 0 OFFCURVE",
"-100 1 OFFCURVE",
"-100 60 CURVE SMOOTH",
"-100 222 LINE SMOOTH",
"-100 257 OFFCURVE",
"-97 270 OFFCURVE",
"-59 270 CURVE SMOOTH",
"122 270 LINE SMOOTH",
"183 270 OFFCURVE",
"182 274 OFFCURVE",
"193 324 CURVE SMOOTH",
"373 1168 LINE SMOOTH",
"385 1226 OFFCURVE",
"381 1230 OFFCURVE",
"302 1230 CURVE SMOOTH",
"232 1230 LINE SMOOTH",
"164 1230 OFFCURVE",
"156 1238 OFFCURVE",
"156 1304 CURVE SMOOTH",
"156 1429 LINE SMOOTH",
"156 1492 OFFCURVE",
"175 1500 OFFCURVE",
"234 1500 CURVE SMOOTH",
"1144 1500 LINE SMOOTH",
"1526 1500 OFFCURVE",
"1724 1380 OFFCURVE",
"1724 1140 CURVE SMOOTH",
"1724 952 OFFCURVE",
"1607 858 OFFCURVE",
"1412 808 CURVE SMOOTH",
"1356 794 OFFCURVE",
"1322 803 OFFCURVE",
"1322 781 CURVE SMOOTH",
"1322 762 OFFCURVE",
"1346 769 OFFCURVE",
"1400 757 CURVE SMOOTH",
"1560 720 OFFCURVE",
"1644 644 OFFCURVE",
"1644 470 CURVE SMOOTH",
"1644 150 OFFCURVE",
"1386 0 OFFCURVE",
"864 0 CURVE SMOOTH"
);
},
{
closed = 1;
nodes = (
"1056 270 OFFCURVE",
"1144 352 OFFCURVE",
"1144 490 CURVE SMOOTH",
"1144 628 OFFCURVE",
"1056 650 OFFCURVE",
"964 650 CURVE SMOOTH",
"804 650 LINE SMOOTH",
"749 650 OFFCURVE",
"741 642 OFFCURVE",
"731 596 CURVE SMOOTH",
"673 322 LINE SMOOTH",
"662 272 OFFCURVE",
"668 270 OFFCURVE",
"730 270 CURVE SMOOTH",
"844 270 LINE SMOOTH"
);
},
{
closed = 1;
nodes = (
"984 900 LINE SMOOTH",
"1116 900 OFFCURVE",
"1244 972 OFFCURVE",
"1244 1110 CURVE SMOOTH",
"1244 1208 OFFCURVE",
"1176 1230 OFFCURVE",
"1104 1230 CURVE SMOOTH",
"910 1230 LINE SMOOTH",
"860 1230 OFFCURVE",
"864 1222 OFFCURVE",
"856 1182 CURVE SMOOTH",
"805 944 LINE SMOOTH",
"799 914 OFFCURVE",
"791 900 OFFCURVE",
"832 900 CURVE SMOOTH"
);
}
);
vertWidth = 0;
width = 1744;
},
{
anchors = (
{
name = "Anchor-0";
position = "{723, 1500}";
},
{
name = "Anchor-1";
position = "{426, 0}";
},
{
name = "Anchor-2";
position = "{426, 0}";
}
);
layerId = "6A50D5EA-2B4A-4D44-BCCC-14A16F5631EA";
paths = (
{
closed = 1;
nodes = (
"-18 0 LINE SMOOTH",
"-64 0 OFFCURVE",
"-65 19 OFFCURVE",
"-65 66 CURVE SMOOTH",
"-65 240 LINE SMOOTH",
"-65 266 OFFCURVE",
"-54 270 OFFCURVE",
"-30 270 CURVE SMOOTH",
"8 270 LINE SMOOTH",
"52 270 OFFCURVE",
"66 289 OFFCURVE",
"75 332 CURVE SMOOTH",
"260 1178 LINE SMOOTH",
"260 1214 OFFCURVE",
"254 1230 OFFCURVE",
"219 1230 CURVE SMOOTH",
"203 1230 LINE SMOOTH",
"166 1230 OFFCURVE",
"160 1236 OFFCURVE",
"160 1272 CURVE SMOOTH",
"160 1448 LINE SMOOTH",
"160 1488 OFFCURVE",
"169 1500 OFFCURVE",
"207 1500 CURVE SMOOTH",
"820 1500 LINE SMOOTH",
"1132 1500 OFFCURVE",
"1286 1440 OFFCURVE",
"1286 1240 CURVE SMOOTH",
"1286 965 OFFCURVE",
"1074 859 OFFCURVE",
"945 805 CURVE SMOOTH",
"927 797 OFFCURVE",
"917 789 OFFCURVE",
"917 781 CURVE SMOOTH",
"917 773 OFFCURVE",
"929 766 OFFCURVE",
"951 760 CURVE SMOOTH",
"1123 714 OFFCURVE",
"1180 613 OFFCURVE",
"1180 510 CURVE SMOOTH",
"1180 240 OFFCURVE",
"1002 0 OFFCURVE",
"670 0 CURVE SMOOTH"
);
},
{
closed = 1;
nodes = (
"642 270 OFFCURVE",
"703 422 OFFCURVE",
"703 540 CURVE SMOOTH",
"703 608 OFFCURVE",
"672 640 OFFCURVE",
"630 640 CURVE SMOOTH",
"611 640 LINE SMOOTH",
"585 640 OFFCURVE",
"566 623 OFFCURVE",
"560 596 CURVE SMOOTH",
"500 326 LINE SMOOTH",
"491 287 OFFCURVE",
"496 270 OFFCURVE",
"535 270 CURVE SMOOTH",
"560 270 LINE SMOOTH"
);
},
{
closed = 1;
nodes = (
"685 910 LINE SMOOTH",
"737 910 OFFCURVE",
"792 1072 OFFCURVE",
"792 1160 CURVE SMOOTH",
"792 1208 OFFCURVE",
"779 1230 OFFCURVE",
"747 1230 CURVE SMOOTH",
"738 1230 LINE SMOOTH",
"707 1230 OFFCURVE",
"704 1227 OFFCURVE",
"697 1198 CURVE SMOOTH",
"645 969 LINE SMOOTH",
"634 921 OFFCURVE",
"638 910 OFFCURVE",
"662 910 CURVE SMOOTH"
);
}
);
vertWidth = 0;
width = 1210;
},
{
anchors = (
{
name = "Anchor-0";
position = "{583, 1500}";
},
{
name = "Anchor-1";
position = "{296, 0}";
},
{
name = "Anchor-2";
position = "{296, 0}";
}
);
layerId = "5A070E73-1DB9-476B-9E26-8EFE8B60F44F";
paths = (
{
closed = 1;
nodes = (
"-70 0 LINE SMOOTH",
"-104 0 OFFCURVE",
"-110 5 OFFCURVE",
"-110 41 CURVE SMOOTH",
"-110 85 LINE SMOOTH",
"-110 104 OFFCURVE",
"-104 110 OFFCURVE",
"-86 110 CURVE SMOOTH",
"-34 110 LINE SMOOTH",
"6 110 OFFCURVE",
"19 115 OFFCURVE",
"26 149 CURVE SMOOTH",
"283 1353 LINE SMOOTH",
"290 1386 OFFCURVE",
"286 1390 OFFCURVE",
"244 1390 CURVE SMOOTH",
"236 1390 LINE SMOOTH",
"207 1390 OFFCURVE",
"196 1393 OFFCURVE",
"196 1425 CURVE SMOOTH",
"196 1479 LINE SMOOTH",
"196 1498 OFFCURVE",
"204 1500 OFFCURVE",
"224 1500 CURVE SMOOTH",
"674 1500 LINE SMOOTH",
"946 1500 OFFCURVE",
"1029 1380 OFFCURVE",
"1029 1220 CURVE SMOOTH",
"1029 1016 OFFCURVE",
"918 852 OFFCURVE",
"764 795 CURVE SMOOTH",
"739.889 786.076 OFFCURVE",
"729 785 OFFCURVE",
"729 776 CURVE SMOOTH",
"729 767 OFFCURVE",
"752.04 760.983 OFFCURVE",
"773 752 CURVE SMOOTH",
"850 719 OFFCURVE",
"911 651 OFFCURVE",
"911 530 CURVE SMOOTH",
"911 290 OFFCURVE",
"776 0 OFFCURVE",
"394 0 CURVE SMOOTH"
);
},
{
closed = 1;
nodes = (
"656 110 OFFCURVE",
"704 412 OFFCURVE",
"704 550 CURVE SMOOTH",
"704 658 OFFCURVE",
"646 720 OFFCURVE",
"534 720 CURVE SMOOTH",
"384 720 LINE SMOOTH",
"351 720 OFFCURVE",
"346 711 OFFCURVE",
"340 683 CURVE SMOOTH",
"226 151 LINE SMOOTH",
"220 124 OFFCURVE",
"217 110 OFFCURVE",
"254 110 CURVE SMOOTH",
"374 110 LINE SMOOTH"
);
},
{
closed = 1;
nodes = (
"534 830 LINE SMOOTH",
"736 830 OFFCURVE",
"829 1002 OFFCURVE",
"829 1220 CURVE SMOOTH",
"829 1338 OFFCURVE",
"766 1390 OFFCURVE",
"644 1390 CURVE SMOOTH",
"524 1390 LINE SMOOTH",
"489 1390 OFFCURVE",
"490 1387 OFFCURVE",
"484 1359 CURVE SMOOTH",
"380 871 LINE SMOOTH",
"373 840 OFFCURVE",
"372 830 OFFCURVE",
"414 830 CURVE SMOOTH"
);
}
);
vertWidth = 0;
width = 1018;
},
{
associatedMasterId = "5A070E73-1DB9-476B-9E26-8EFE8B60F44F";
layerId = "9294E227-4E04-4F9C-AE94-132A4803B8BB";
name = Back;
paths = (
{
closed = 1;
nodes = (
"544 110 OFFCURVE",
"645 212 OFFCURVE",
"689 410 CURVE SMOOTH",
"733 608 OFFCURVE",
"700 720 OFFCURVE",
"518 720 CURVE SMOOTH",
"377 720 LINE SMOOTH",
"334 720 OFFCURVE",
"326 711 OFFCURVE",
"316 666 CURVE SMOOTH",
"201 148 LINE SMOOTH",
"194 115 OFFCURVE",
"203 110 OFFCURVE",
"238 110 CURVE SMOOTH",
"382 110 LINE SMOOTH"
);
},
{
closed = 1;
nodes = (
"522 830 LINE SMOOTH",
"704 830 OFFCURVE",
"770 912 OFFCURVE",
"814 1110 CURVE SMOOTH",
"858 1308 OFFCURVE",
"808 1390 OFFCURVE",
"626 1390 CURVE SMOOTH",
"511 1390 LINE SMOOTH",
"479 1390 OFFCURVE",
"473 1378 OFFCURVE",
"466 1345 CURVE SMOOTH",
"361 870 LINE SMOOTH",
"352 831 OFFCURVE",
"356 830 OFFCURVE",
"371 830 CURVE SMOOTH"
);
},
{
closed = 1;
nodes = (
"-91 0 LINE SMOOTH",
"-122 0 OFFCURVE",
"-132 1 OFFCURVE",
"-125 32 CURVE SMOOTH",
"-115 76 LINE SMOOTH",
"-108 106 OFFCURVE",
"-99 110 OFFCURVE",
"-71 110 CURVE SMOOTH",
"-28 110 LINE SMOOTH",
"0 110 OFFCURVE",
"13 113 OFFCURVE",
"19 140 CURVE SMOOTH",
"288 1352 LINE SMOOTH",
"296 1388 OFFCURVE",
"288 1390 OFFCURVE",
"251 1390 CURVE SMOOTH",
"217 1390 LINE SMOOTH",
"183 1390 OFFCURVE",
"177 1393 OFFCURVE",
"184 1426 CURVE SMOOTH",
"193 1468 LINE SMOOTH",
"199 1495 OFFCURVE",
"209 1500 OFFCURVE",
"234 1500 CURVE SMOOTH",
"671 1500 LINE SMOOTH",
"923 1500 OFFCURVE",
"1077 1390 OFFCURVE",
"1019 1130 CURVE SMOOTH",
"972 917 OFFCURVE",
"855 835 OFFCURVE",
"747 793 CURVE SMOOTH",
"716 781 OFFCURVE",
"717 773 OFFCURVE",
"739 766 CURVE SMOOTH",
"864 728 OFFCURVE",
"947 630 OFFCURVE",
"894 390 CURVE SMOOTH",
"827 90 OFFCURVE",
"600 0 OFFCURVE",
"408 0 CURVE SMOOTH"
);
}
);
vertWidth = 0;
width = 1018;
}
);
leftKerningGroup = kc0_1;
rightKerningGroup = kc0_19;
unicode = 0042;
},
{
glyphname = C;
layers = (
{
anchors = (
{
name = "Anchor-0";
position = "{1025, 1500}";
},
{
name = "Anchor-1";
position = "{707, 0}";
},
{
name = "Anchor-2";
position = "{707, 0}";
}
);
layerId = "C788331E-5670-44D3-9D66-EAA382172B0D";
paths = (
{
closed = 1;
nodes = (
"1311 273 OFFCURVE",
"1085 -20 OFFCURVE",
"690 -20 CURVE SMOOTH",
"344 -20 OFFCURVE",
"90 190 OFFCURVE",
"90 610 CURVE SMOOTH",
"90 1032 OFFCURVE",
"454 1520 OFFCURVE",
"970 1520 CURVE SMOOTH",
"1195 1520 OFFCURVE",
"1336 1448 OFFCURVE",
"1422 1346 CURVE SMOOTH",
"1443 1322 OFFCURVE",
"1440 1321 OFFCURVE",
"1457 1350 CURVE SMOOTH",
"1535 1484 LINE SMOOTH",
"1542 1496 OFFCURVE",
"1552 1500 OFFCURVE",
"1572 1500 CURVE SMOOTH",
"1632 1500 LINE SMOOTH",
"1652 1500 OFFCURVE",
"1655 1497 OFFCURVE",
"1651 1479 CURVE SMOOTH",
"1552 1023 LINE SMOOTH",
"1546 995 OFFCURVE",
"1544 990 OFFCURVE",
"1510 990 CURVE SMOOTH",
"1470 990 LINE SMOOTH",
"1439 990 OFFCURVE",
"1438 997 OFFCURVE",
"1440 1022 CURVE SMOOTH",
"1457 1241 OFFCURVE",
"1259 1398 OFFCURVE",
"986 1398 CURVE SMOOTH",
"564 1398 OFFCURVE",
"320 960 OFFCURVE",
"320 610 CURVE SMOOTH",
"320 286 OFFCURVE",
"448 106 OFFCURVE",
"716 106 CURVE SMOOTH",
"984 106 OFFCURVE",
"1196 341 OFFCURVE",
"1299 522 CURVE SMOOTH",
"1308 538 OFFCURVE",
"1317 550 OFFCURVE",
"1342 550 CURVE SMOOTH",
"1394 550 LINE SMOOTH",
"1440 550 OFFCURVE",
"1446 541 OFFCURVE",
"1432 513 CURVE SMOOTH"
);
}
);
vertWidth = 0;
width = 1594;
},
{
anchors = (
{
name = "Anchor-0";
position = "{1150, 1500}";
},
{
name = "Anchor-1";
position = "{777, 0}";
},
{
name = "Anchor-2";
position = "{777, 0}";
}
);
layerId = "166B8CC3-B8B2-42DF-8AC5-58EF4CD93FB2";
paths = (
{
closed = 1;
nodes = (
"1539 232 OFFCURVE",
"1233 -40 OFFCURVE",
"770 -40 CURVE SMOOTH",
"364 -40 OFFCURVE",
"70 160 OFFCURVE",
"70 620 CURVE SMOOTH",
"70 1122 OFFCURVE",
"454 1540 OFFCURVE",
"1030 1540 CURVE SMOOTH",
"1187 1540 OFFCURVE",
"1300 1497 OFFCURVE",
"1378 1432 CURVE SMOOTH",
"1413 1403 OFFCURVE",
"1415 1377 OFFCURVE",
"1452 1412 CURVE SMOOTH",
"1502 1460 LINE SMOOTH",
"1526 1483 OFFCURVE",
"1532 1500 OFFCURVE",
"1582 1500 CURVE SMOOTH",
"1770 1500 LINE SMOOTH",
"1814 1500 OFFCURVE",
"1812 1494 OFFCURVE",
"1805 1457 CURVE SMOOTH",
"1705 920 LINE SMOOTH",
"1698 884 OFFCURVE",
"1695 870 OFFCURVE",
"1650 870 CURVE SMOOTH",
"1474 870 LINE SMOOTH",
"1432 870 OFFCURVE",
"1427 873 OFFCURVE",
"1430 908 CURVE SMOOTH",
"1449 1159 OFFCURVE",
"1282 1288 OFFCURVE",
"1086 1288 CURVE SMOOTH",
"784 1288 OFFCURVE",
"580 980 OFFCURVE",
"580 630 CURVE SMOOTH",
"580 346 OFFCURVE",
"710 256 OFFCURVE",
"878 256 CURVE SMOOTH",
"1049 256 OFFCURVE",
"1218 351 OFFCURVE",
"1320 510 CURVE SMOOTH",
"1341 543 OFFCURVE",
"1348 570 OFFCURVE",
"1406 570 CURVE SMOOTH",
"1568 570 LINE SMOOTH",
"1651 570 OFFCURVE",
"1661 559 OFFCURVE",
"1638 497 CURVE SMOOTH"
);
}
);
vertWidth = 0;
width = 1734;
},
{
anchors = (
{
name = "Anchor-0";
position = "{905, 1500}";
},
{
name = "Anchor-1";
position = "{537, 0}";
},
{
name = "Anchor-2";
position = "{537, 0}";
}
);
layerId = "6A50D5EA-2B4A-4D44-BCCC-14A16F5631EA";
paths = (
{
closed = 1;
nodes = (
"1080 202 OFFCURVE",
"887 -40 OFFCURVE",
"542 -40 CURVE SMOOTH",
"174 -40 OFFCURVE",
"27 134 OFFCURVE",
"27 429 CURVE SMOOTH",
"27 999 OFFCURVE",
"332 1540 OFFCURVE",
"792 1540 CURVE SMOOTH",
"912 1540 OFFCURVE",
"981 1487 OFFCURVE",
"1024 1431 CURVE SMOOTH",
"1053 1393 OFFCURVE",
"1054 1395 OFFCURVE",
"1090 1444 CURVE SMOOTH",
"1122 1488 LINE SMOOTH",
"1138 1509 OFFCURVE",
"1148 1510 OFFCURVE",
"1185 1510 CURVE SMOOTH",
"1325 1510 LINE SMOOTH",
"1374 1510 OFFCURVE",
"1373 1501 OFFCURVE",
"1362 1452 CURVE SMOOTH",
"1256 974 LINE SMOOTH",
"1248 936 OFFCURVE",
"1242 930 OFFCURVE",
"1202 930 CURVE SMOOTH",
"989 930 LINE SMOOTH",
"941 930 OFFCURVE",
"936 941 OFFCURVE",
"936 977 CURVE SMOOTH",
"936 1157 OFFCURVE",
"955 1284 OFFCURVE",
"855 1284 CURVE SMOOTH",
"712 1284 OFFCURVE",
"536 713 OFFCURVE",
"536 405 CURVE SMOOTH",
"536 288 OFFCURVE",
"567 228 OFFCURVE",
"641 228 CURVE SMOOTH",
"727 228 OFFCURVE",
"795 338 OFFCURVE",
"876 522 CURVE SMOOTH",
"900 577 OFFCURVE",
"910 590 OFFCURVE",
"959 590 CURVE SMOOTH",
"1155 590 LINE SMOOTH",
"1208 590 OFFCURVE",
"1210 579 OFFCURVE",
"1197 542 CURVE SMOOTH"
);
}
);
vertWidth = 0;
width = 1208;
},
{
anchors = (
{
name = "Anchor-0";
position = "{795, 1500}";
},
{
name = "Anchor-1";
position = "{447, 0}";
},
{
name = "Anchor-2";
position = "{447, 0}";
}
);
layerId = "5A070E73-1DB9-476B-9E26-8EFE8B60F44F";
paths = (
{
closed = 1;
nodes = (
"921 313 OFFCURVE",
"775 -20 OFFCURVE",
"430 -20 CURVE SMOOTH",
"124 -20 OFFCURVE",
"9 120 OFFCURVE",
"9 420 CURVE SMOOTH",
"9 842 OFFCURVE",
"244 1520 OFFCURVE",
"720 1520 CURVE SMOOTH",
"874 1520 OFFCURVE",
"945 1441 OFFCURVE",
"982 1376 CURVE SMOOTH",
"997.776 1348.285 OFFCURVE",
"1000 1351 OFFCURVE",
"1017 1380 CURVE SMOOTH",
"1075 1484 LINE SMOOTH",
"1082 1496 OFFCURVE",
"1092 1500 OFFCURVE",
"1112 1500 CURVE SMOOTH",
"1172 1500 LINE SMOOTH",
"1192 1500 OFFCURVE",
"1195 1497 OFFCURVE",
"1191 1479 CURVE SMOOTH",
"1092 1023 LINE SMOOTH",
"1086 995 OFFCURVE",
"1084 990 OFFCURVE",
"1050 990 CURVE SMOOTH",
"1010 990 LINE SMOOTH",
"979 990 OFFCURVE",
"978 997 OFFCURVE",
"980 1022 CURVE SMOOTH",
"997 1241 OFFCURVE",
"899 1398 OFFCURVE",
"736 1398 CURVE SMOOTH",
"384 1398 OFFCURVE",
"209 770 OFFCURVE",
"209 420 CURVE SMOOTH",
"209 186 OFFCURVE",
"278 106 OFFCURVE",
"456 106 CURVE SMOOTH",
"694 106 OFFCURVE",
"826 381 OFFCURVE",
"899 562 CURVE SMOOTH",
"905.866 579.025 OFFCURVE",
"914 590 OFFCURVE",
"939 590 CURVE SMOOTH",
"974 590 LINE SMOOTH",
"1020 590 OFFCURVE",
"1023.099 582.271 OFFCURVE",
"1012 553 CURVE SMOOTH"
);
}
);
vertWidth = 0;
width = 1109;
},
{
associatedMasterId = "5A070E73-1DB9-476B-9E26-8EFE8B60F44F";
layerId = "2776C5A7-0E84-46B0-B870-79CD3047B7D1";
name = Back;
paths = (
{
closed = 1;
nodes = (
"150 1196 OFFCURVE",
"406 1520 OFFCURVE",
"712 1520 CURVE SMOOTH",
"905 1520 OFFCURVE",
"970 1426 OFFCURVE",
"1005 1333 CURVE SMOOTH",
"1010 1319 OFFCURVE",
"1018 1330 OFFCURVE",
"1027 1349 CURVE SMOOTH",
"1101 1492 LINE SMOOTH",
"1108 1506 OFFCURVE",
"1107 1510 OFFCURVE",
"1126 1510 CURVE SMOOTH",
"1180 1510 LINE SMOOTH",
"1197 1510 OFFCURVE",
"1200 1507 OFFCURVE",
"1196 1491 CURVE SMOOTH",
"1090 1016 LINE SMOOTH",
"1085 994 OFFCURVE",
"1078 990 OFFCURVE",
"1055 990 CURVE SMOOTH",
"994 990 LINE SMOOTH",
"968 990 OFFCURVE",
"976 998 OFFCURVE",
"977 1019 CURVE SMOOTH",
"986 1213 OFFCURVE",
"930 1404 OFFCURVE",
"756 1404 CURVE SMOOTH",
"488 1404 OFFCURVE",
"332 1114 OFFCURVE",
"251 750 CURVE SMOOTH",
"170 386 OFFCURVE",
"179 98 OFFCURVE",
"447 98 CURVE SMOOTH",
"668 98 OFFCURVE",
"820 335 OFFCURVE",
"900 574 CURVE SMOOTH",
"904 586 OFFCURVE",
"910 590 OFFCURVE",
"924 590 CURVE SMOOTH",
"994 590 LINE SMOOTH",
"1008 590 OFFCURVE",
"1016 589 OFFCURVE",
"1012 576 CURVE SMOOTH",
"912 236 OFFCURVE",
"712 -20 OFFCURVE",
"411 -20 CURVE SMOOTH",
"5 -20 OFFCURVE",
"-48 304 OFFCURVE",
"51 750 CURVE SMOOTH"
);
}
);
vertWidth = 0;
width = 1109;
}
);
leftKerningGroup = kc0_2;
rightKerningGroup = kc0_2;
unicode = 0043;
},
{
glyphname = D;
layers = (
{
anchors = (
{
name = "Anchor-0";
position = "{843, 1500}";
},
{
name = "Anchor-1";
position = "{523, 0}";
},
{
name = "Anchor-2";
position = "{523, 0}";
}
);
layerId = "C788331E-5670-44D3-9D66-EAA382172B0D";
paths = (
{
closed = 1;
nodes = (
"-80 78 LINE SMOOTH",
"-80 110 OFFCURVE",
"-70 110 OFFCURVE",
"-38 110 CURVE SMOOTH",
"114 110 LINE SMOOTH",
"148 110 OFFCURVE",
"152 126 OFFCURVE",
"158 152 CURVE SMOOTH",
"411 1338 LINE SMOOTH",
"421 1386 OFFCURVE",
"418 1390 OFFCURVE",
"358 1390 CURVE SMOOTH",
"232 1390 LINE SMOOTH",
"195 1390 OFFCURVE",
"194 1399 OFFCURVE",
"194 1436 CURVE SMOOTH",
"194 1458 LINE SMOOTH",
"194 1492 OFFCURVE",
"197 1500 OFFCURVE",
"230 1500 CURVE SMOOTH",
"946 1500 LINE SMOOTH",
"1412 1500 OFFCURVE",
"1546 1196 OFFCURVE",
"1546 930 CURVE SMOOTH",
"1546 384 OFFCURVE",
"1092 0 OFFCURVE",
"646 0 CURVE SMOOTH",
"-48 0 LINE SMOOTH",
"-73 0 OFFCURVE",
"-80 5 OFFCURVE",
"-80 32 CURVE SMOOTH"
);
},
{
closed = 1;
nodes = (
"646 110 LINE SMOOTH",
"1014 110 OFFCURVE",
"1316 486 OFFCURVE",
"1316 970 CURVE SMOOTH",
"1316 1194 OFFCURVE",
"1274 1390 OFFCURVE",
"946 1390 CURVE SMOOTH",
"686 1390 LINE SMOOTH",
"629 1390 OFFCURVE",
"621 1384 OFFCURVE",
"611 1338 CURVE SMOOTH",
"358 152 LINE SMOOTH",
"350 117 OFFCURVE",
"352 110 OFFCURVE",
"398 110 CURVE SMOOTH"
);
}
);
vertWidth = 0;
width = 1636;
},
{
anchors = (
{
name = "Anchor-0";
position = "{1168, 1500}";
},
{
name = "Anchor-1";
position = "{793, 0}";
},
{
name = "Anchor-2";
position = "{793, 0}";
}
);
layerId = "166B8CC3-B8B2-42DF-8AC5-58EF4CD93FB2";
paths = (
{
closed = 1;
nodes = (
"-100 217 LINE SMOOTH",
"-100 267 OFFCURVE",
"-78 270 OFFCURVE",
"-32 270 CURVE SMOOTH",
"124 270 LINE SMOOTH",
"176 270 OFFCURVE",
"184 274 OFFCURVE",
"193 316 CURVE SMOOTH",
"374 1165 LINE SMOOTH",
"387 1228 OFFCURVE",
"387 1230 OFFCURVE",
"312 1230 CURVE SMOOTH",
"220 1230 LINE SMOOTH",
"163 1230 OFFCURVE",
"154 1231 OFFCURVE",
"154 1288 CURVE SMOOTH",
"154 1434 LINE SMOOTH",
"154 1492 OFFCURVE",
"174 1500 OFFCURVE",
"228 1500 CURVE SMOOTH",
"1086 1500 LINE SMOOTH",
"1672 1500 OFFCURVE",
"1846 1216 OFFCURVE",
"1846 930 CURVE SMOOTH",
"1846 284 OFFCURVE",
"1332 0 OFFCURVE",
"786 0 CURVE SMOOTH",
"-38 0 LINE SMOOTH",
"-83 0 OFFCURVE",
"-100 4 OFFCURVE",
"-100 53 CURVE SMOOTH"
);
},
{
closed = 1;
nodes = (
"786 270 LINE SMOOTH",
"1094 270 OFFCURVE",
"1336 526 OFFCURVE",
"1336 970 CURVE SMOOTH",
"1336 1174 OFFCURVE",
"1214 1230 OFFCURVE",
"1046 1230 CURVE SMOOTH",
"922 1230 LINE SMOOTH",
"870 1230 OFFCURVE",
"868 1229 OFFCURVE",
"859 1186 CURVE SMOOTH",
"675 324 LINE SMOOTH",
"665 278 OFFCURVE",
"675 270 OFFCURVE",
"734 270 CURVE SMOOTH"
);
}
);
vertWidth = 0;
width = 1916;
},
{
anchors = (
{
name = "Anchor-0";
position = "{783, 1500}";
},
{
name = "Anchor-1";
position = "{483, 0}";
},
{
name = "Anchor-2";
position = "{483, 0}";
}
);
layerId = "6A50D5EA-2B4A-4D44-BCCC-14A16F5631EA";
paths = (
{
closed = 1;
nodes = (
"-70 230 LINE SMOOTH",
"-70 263 OFFCURVE",
"-62 270 OFFCURVE",
"-31 270 CURVE SMOOTH",
"33 270 LINE SMOOTH",
"69 270 OFFCURVE",
"62 281 OFFCURVE",
"70 316 CURVE SMOOTH",
"260 1179 LINE SMOOTH",
"269 1220 OFFCURVE",
"254 1230 OFFCURVE",
"213 1230 CURVE SMOOTH",
"209 1230 LINE SMOOTH",
"165 1230 OFFCURVE",
"160 1236 OFFCURVE",
"160 1278 CURVE SMOOTH",
"160 1447 LINE SMOOTH",
"160 1492 OFFCURVE",
"170 1500 OFFCURVE",
"213 1500 CURVE SMOOTH",
"820 1500 LINE SMOOTH",
"1226 1500 OFFCURVE",
"1380 1326 OFFCURVE",
"1380 1050 CURVE SMOOTH",
"1380 645 OFFCURVE",
"1206 0 OFFCURVE",
"610 0 CURVE SMOOTH",
"-22 0 LINE SMOOTH",
"-55 0 OFFCURVE",
"-70 1 OFFCURVE",
"-70 34 CURVE SMOOTH"
);
},
{
closed = 1;
nodes = (
"600 270 LINE SMOOTH",
"758 270 OFFCURVE",
"890 816 OFFCURVE",
"890 1060 CURVE SMOOTH",
"890 1174 OFFCURVE",
"858 1230 OFFCURVE",
"780 1230 CURVE SMOOTH",
"769 1230 LINE SMOOTH",
"742 1230 OFFCURVE",
"740 1220 OFFCURVE",
"730 1174 CURVE SMOOTH",
"540 316 LINE SMOOTH",
"531 274 OFFCURVE",
"543 270 OFFCURVE",
"578 270 CURVE SMOOTH"
);
}
);
vertWidth = 0;
width = 1320;
},
{
anchors = (
{
name = "Anchor-0";
position = "{623, 1500}";
},
{
name = "Anchor-1";
position = "{303, 0}";
},
{
name = "Anchor-2";
position = "{303, 0}";
}
);
layerId = "5A070E73-1DB9-476B-9E26-8EFE8B60F44F";
paths = (
{
closed = 1;
nodes = (
"-80 78 LINE SMOOTH",
"-80 110 OFFCURVE",
"-70 110 OFFCURVE",
"-38 110 CURVE SMOOTH",
"-6 110 LINE SMOOTH",
"28 110 OFFCURVE",
"32 126 OFFCURVE",
"38 152 CURVE SMOOTH",
"291 1338 LINE SMOOTH",
"301 1386 OFFCURVE",
"298 1390 OFFCURVE",
"238 1390 CURVE SMOOTH",
"232 1390 LINE SMOOTH",
"195 1390 OFFCURVE",
"194 1399 OFFCURVE",
"194 1436 CURVE SMOOTH",
"194 1458 LINE SMOOTH",
"194 1492 OFFCURVE",
"197 1500 OFFCURVE",
"230 1500 CURVE SMOOTH",
"726 1500 LINE SMOOTH",
"1012 1500 OFFCURVE",
"1106 1306 OFFCURVE",
"1106 1040 CURVE SMOOTH",
"1106 494 OFFCURVE",
"832 0 OFFCURVE",
"406 0 CURVE SMOOTH",
"-48 0 LINE SMOOTH",
"-73 0 OFFCURVE",
"-80 5 OFFCURVE",
"-80 32 CURVE SMOOTH"
);
},
{
closed = 1;
nodes = (
"366 110 LINE SMOOTH",
"674 110 OFFCURVE",
"906 596 OFFCURVE",
"906 1080 CURVE SMOOTH",
"906 1304 OFFCURVE",
"814 1390 OFFCURVE",
"656 1390 CURVE SMOOTH",
"566 1390 LINE SMOOTH",
"509 1390 OFFCURVE",
"501 1384 OFFCURVE",
"491 1338 CURVE SMOOTH",
"238 152 LINE SMOOTH",
"230 117 OFFCURVE",
"232 110 OFFCURVE",
"278 110 CURVE SMOOTH"
);
}
);
vertWidth = 0;
width = 1124;
},
{
associatedMasterId = "5A070E73-1DB9-476B-9E26-8EFE8B60F44F";
layerId = "1783BCCE-939C-4463-BE7C-DA2FB86AF507";
name = Back;
paths = (
{
closed = 1;
nodes = (
"-115 72 LINE SMOOTH",
"-108 104 OFFCURVE",
"-103 110 OFFCURVE",
"-72 110 CURVE SMOOTH",
"-18 110 LINE SMOOTH",
"12 110 OFFCURVE",
"15 119 OFFCURVE",
"22 150 CURVE SMOOTH",
"287 1346 LINE SMOOTH",
"295 1380 OFFCURVE",
"296 1390 OFFCURVE",
"262 1390 CURVE SMOOTH",
"234 1390 LINE SMOOTH",
"192 1390 OFFCURVE",
"177 1391 OFFCURVE",
"185 1426 CURVE SMOOTH",
"195 1471 LINE SMOOTH",
"201 1496 OFFCURVE",
"226 1500 OFFCURVE",
"257 1500 CURVE SMOOTH",
"742 1500 LINE SMOOTH",
"1068 1500 OFFCURVE",
"1159 1176 OFFCURVE",
"1065 750 CURVE SMOOTH",
"971 324 OFFCURVE",
"715 0 OFFCURVE",
"409 0 CURVE SMOOTH",
"-96 0 LINE SMOOTH",
"-126 0 OFFCURVE",
"-129 6 OFFCURVE",
"-123 34 CURVE SMOOTH"
);
},
{
closed = 1;
nodes = (
"353 110 LINE SMOOTH",
"621 110 OFFCURVE",
"764 296 OFFCURVE",
"865 750 CURVE SMOOTH",
"968 1214 OFFCURVE",
"885 1390 OFFCURVE",
"637 1390 CURVE SMOOTH",
"510 1390 LINE SMOOTH",
"493 1390 OFFCURVE",
"476 1385 OFFCURVE",
"467 1346 CURVE SMOOTH",
"201 144 LINE SMOOTH",
"194 112 OFFCURVE",
"191 110 OFFCURVE",
"224 110 CURVE SMOOTH"
);
}
);
vertWidth = 0;
width = 1124;
}
);
leftKerningGroup = kc0_1;
rightKerningGroup = kc0_3;
unicode = 0044;
},
{
glyphname = E;
layers = (
{
anchors = (
{
name = "Anchor-0";
position = "{903, 1500}";
},
{
name = "Anchor-1";
position = "{606, 0}";
},
{
name = "Anchor-2";
position = "{606, 0}";
},
{
name = "Anchor-3";
position = "{1046, 0}";
}
);
layerId = "C788331E-5670-44D3-9D66-EAA382172B0D";
paths = (
{
closed = 1;
nodes = (
"371 156 LINE SMOOTH",
"361 114 OFFCURVE",
"366 110 OFFCURVE",
"420 110 CURVE SMOOTH",
"796 110 LINE SMOOTH",
"1059 110 OFFCURVE",
"1167 189 OFFCURVE",
"1246 472 CURVE SMOOTH",
"1254 500 OFFCURVE",
"1251 510 OFFCURVE",
"1290 510 CURVE SMOOTH",
"1320 510 LINE SMOOTH",
"1350 510 OFFCURVE",
"1355 507 OFFCURVE",
"1350 484 CURVE SMOOTH",
"1247 46 LINE SMOOTH",
"1238 7 OFFCURVE",
"1231 0 OFFCURVE",
"1182 0 CURVE SMOOTH",
"-44 0 LINE SMOOTH",
"-68 0 OFFCURVE",
"-80 3 OFFCURVE",
"-80 30 CURVE SMOOTH",
"-80 64 LINE SMOOTH",
"-80 102 OFFCURVE",
"-77 110 OFFCURVE",
"-40 110 CURVE SMOOTH",
"118 110 LINE SMOOTH",
"164 110 OFFCURVE",
"162 115 OFFCURVE",
"170 152 CURVE SMOOTH",
"442 1345 LINE SMOOTH",
"451 1386 OFFCURVE",
"442 1390 OFFCURVE",
"392 1390 CURVE SMOOTH",
"248 1390 LINE SMOOTH",
"211 1390 OFFCURVE",
"208 1398 OFFCURVE",
"208 1436 CURVE SMOOTH",
"208 1468 LINE SMOOTH",
"208 1497 OFFCURVE",
"230 1500 OFFCURVE",
"256 1500 CURVE SMOOTH",
"1472 1500 LINE SMOOTH",
"1530 1500 OFFCURVE",
"1538 1499 OFFCURVE",
"1527 1452 CURVE SMOOTH",
"1440 1072 LINE SMOOTH",
"1431 1035 OFFCURVE",
"1433 1030 OFFCURVE",
"1386 1030 CURVE SMOOTH",
"1357 1030 LINE SMOOTH",
"1324 1030 OFFCURVE",
"1335 1051 OFFCURVE",
"1339 1074 CURVE SMOOTH",
"1384 1313 OFFCURVE",
"1331 1390 OFFCURVE",
"1110 1390 CURVE SMOOTH",
"710 1390 LINE SMOOTH",
"645 1390 OFFCURVE",
"649 1381 OFFCURVE",
"637 1330 CURVE SMOOTH",
"531 862 LINE SMOOTH",
"522 822 OFFCURVE",
"524 816 OFFCURVE",
"576 816 CURVE SMOOTH",
"666 816 LINE SMOOTH",
"820 816 OFFCURVE",
"913 891 OFFCURVE",
"960 1002 CURVE SMOOTH",
"969 1024 OFFCURVE",
"967 1046 OFFCURVE",
"999 1046 CURVE SMOOTH",
"1030 1046 LINE SMOOTH",
"1066 1046 OFFCURVE",
"1064 1037 OFFCURVE",
"1057 1008 CURVE SMOOTH",
"945 532 LINE SMOOTH",
"939 507 OFFCURVE",
"943 496 OFFCURVE",
"910 496 CURVE SMOOTH",
"878 496 LINE SMOOTH",
"844 496 OFFCURVE",
"852 522 OFFCURVE",
"854 546 CURVE SMOOTH",
"864 655 OFFCURVE",
"818 736 OFFCURVE",
"666 736 CURVE SMOOTH",
"550 736 LINE SMOOTH",
"500 736 OFFCURVE",
"502 732 OFFCURVE",
"493 692 CURVE SMOOTH"
);
}
);
vertWidth = 0;
width = 1458;
},
{
anchors = (
{
name = "Anchor-0";
position = "{1008, 1500}";
},
{
name = "Anchor-1";
position = "{676, 0}";
},
{
name = "Anchor-2";
position = "{676, 0}";
},
{
name = "Anchor-3";
position = "{1298, 50}";
}
);
layerId = "166B8CC3-B8B2-42DF-8AC5-58EF4CD93FB2";
paths = (
{
closed = 1;
nodes = (
"671 330 LINE SMOOTH",
"661 284 OFFCURVE",
"654 270 OFFCURVE",
"716 270 CURVE SMOOTH",
"816 270 LINE SMOOTH",
"1073 270 OFFCURVE",
"1253 328 OFFCURVE",
"1340 595 CURVE SMOOTH",
"1354 637 OFFCURVE",
"1357 650 OFFCURVE",
"1416 650 CURVE SMOOTH",
"1514 650 LINE SMOOTH",
"1579 650 OFFCURVE",
"1573 635 OFFCURVE",
"1562 586 CURVE SMOOTH",
"1450 64 LINE SMOOTH",
"1438 9 OFFCURVE",
"1433 0 OFFCURVE",
"1364 0 CURVE SMOOTH",
"-54 0 LINE SMOOTH",
"-92 0 OFFCURVE",
"-100 4 OFFCURVE",
"-100 44 CURVE SMOOTH",
"-100 209 LINE SMOOTH",
"-100 266 OFFCURVE",
"-91 270 OFFCURVE",
"-36 270 CURVE SMOOTH",
"106 270 LINE SMOOTH",
"167 270 OFFCURVE",
"178 272 OFFCURVE",
"189 322 CURVE SMOOTH",
"383 1176 LINE SMOOTH",
"392 1215 OFFCURVE",
"396 1230 OFFCURVE",
"343 1230 CURVE SMOOTH",
"224 1230 LINE SMOOTH",
"184 1230 OFFCURVE",
"168 1230 OFFCURVE",
"168 1274 CURVE SMOOTH",
"168 1466 LINE SMOOTH",
"168 1496 OFFCURVE",
"175 1500 OFFCURVE",
"206 1500 CURVE SMOOTH",
"1682 1500 LINE SMOOTH",
"1745 1500 OFFCURVE",
"1734 1476 OFFCURVE",
"1724 1430 CURVE SMOOTH",
"1627 962 LINE SMOOTH",
"1616 909 OFFCURVE",
"1615 890 OFFCURVE",
"1548 890 CURVE SMOOTH",
"1442 890 LINE SMOOTH",
"1388 890 OFFCURVE",
"1397 911 OFFCURVE",
"1402 950 CURVE SMOOTH",
"1431 1165 OFFCURVE",
"1343 1230 OFFCURVE",
"1120 1230 CURVE SMOOTH",
"926 1230 LINE SMOOTH",
"891 1230 OFFCURVE",
"874 1226 OFFCURVE",
"867 1196 CURVE SMOOTH",
"800 896 LINE SMOOTH",
"796 880 OFFCURVE",
"803 877 OFFCURVE",
"814 877 CURVE SMOOTH",
"815 877 LINE SMOOTH",
"919 877 OFFCURVE",
"986 916 OFFCURVE",
"1028 995 CURVE SMOOTH",
"1050 1038 OFFCURVE",
"1049 1066 OFFCURVE",
"1120 1066 CURVE SMOOTH",
"1186 1066 LINE SMOOTH",
"1244 1066 OFFCURVE",
"1245 1059 OFFCURVE",
"1235 1014 CURVE SMOOTH",
"1128 532 LINE SMOOTH",
"1118 487 OFFCURVE",
"1114 476 OFFCURVE",
"1056 476 CURVE SMOOTH",
"974 476 LINE SMOOTH",
"926 476 OFFCURVE",
"930 488 OFFCURVE",
"933 524 CURVE SMOOTH",
"940 626 OFFCURVE",
"870 676 OFFCURVE",
"773 676 CURVE SMOOTH",
"770 676 LINE SMOOTH",
"752 676 OFFCURVE",
"747 668 OFFCURVE",
"744 654 CURVE SMOOTH"
);
}
);
vertWidth = 0;
width = 1618;
},
{
anchors = (
{
name = "Anchor-0";
position = "{753, 1500}";
},
{
name = "Anchor-1";
position = "{456, 0}";
},
{
name = "Anchor-2";
position = "{896, 0}";
},
{
name = "Anchor-3";
position = "{896, 0}";
}
);
layerId = "6A50D5EA-2B4A-4D44-BCCC-14A16F5631EA";
paths = (
{
closed = 1;
nodes = (
"540 310 LINE SMOOTH",
"530 265 OFFCURVE",
"549 270 OFFCURVE",
"594 270 CURVE SMOOTH",
"620 270 LINE SMOOTH",
"804 270 OFFCURVE",
"882 361 OFFCURVE",
"929 592 CURVE SMOOTH",
"939 642 OFFCURVE",
"945 650 OFFCURVE",
"1000 650 CURVE SMOOTH",
"1120 650 LINE SMOOTH",
"1165 650 OFFCURVE",
"1169 642 OFFCURVE",
"1160 600 CURVE SMOOTH",
"1040 40 LINE SMOOTH",
"1031 0 OFFCURVE",
"1038 0 OFFCURVE",
"996 0 CURVE SMOOTH",
"-20 0 LINE SMOOTH",
"-60 0 OFFCURVE",
"-70 13 OFFCURVE",
"-70 56 CURVE SMOOTH",
"-70 218 LINE SMOOTH",
"-70 252 OFFCURVE",
"-67 270 OFFCURVE",
"-34 270 CURVE SMOOTH",
"16 270 LINE SMOOTH",
"59 270 OFFCURVE",
"61 271 OFFCURVE",
"70 312 CURVE SMOOTH",
"265 1192 LINE SMOOTH",
"272 1225 OFFCURVE",
"257 1230 OFFCURVE",
"221 1230 CURVE SMOOTH",
"211 1230 LINE SMOOTH",
"169 1230 OFFCURVE",
"165 1238 OFFCURVE",
"165 1278 CURVE SMOOTH",
"165 1454 LINE SMOOTH",
"165 1499 OFFCURVE",
"179 1500 OFFCURVE",
"221 1500 CURVE SMOOTH",
"1290 1500 LINE SMOOTH",
"1329 1500 OFFCURVE",
"1332 1489 OFFCURVE",
"1332 1452 CURVE SMOOTH",
"1220 948 LINE SMOOTH",
"1212 912 OFFCURVE",
"1210 910 OFFCURVE",
"1172 910 CURVE SMOOTH",
"1022 910 LINE SMOOTH",
"992 910 OFFCURVE",
"984 925 OFFCURVE",
"989 950 CURVE SMOOTH",
"1033 1154 OFFCURVE",
"1005 1230 OFFCURVE",
"835 1230 CURVE SMOOTH",
"793 1230 LINE SMOOTH",
"754 1230 OFFCURVE",
"745 1224 OFFCURVE",
"735 1183 CURVE SMOOTH",
"670 918 LINE SMOOTH",
"659 873 OFFCURVE",
"666 860 OFFCURVE",
"678 860 CURVE SMOOTH",
"679 860 LINE SMOOTH",
"702 860 OFFCURVE",
"740 945 OFFCURVE",
"766 1038 CURVE SMOOTH",
"774 1068 OFFCURVE",
"793 1086 OFFCURVE",
"821 1086 CURVE SMOOTH",
"912 1086 LINE SMOOTH",
"955 1086 OFFCURVE",
"969 1078 OFFCURVE",
"960 1038 CURVE SMOOTH",
"830 458 LINE SMOOTH",
"823 425 OFFCURVE",
"815 416 OFFCURVE",
"778 416 CURVE SMOOTH",
"690 416 LINE SMOOTH",
"649 416 OFFCURVE",
"626 436 OFFCURVE",
"635 468 CURVE SMOOTH",
"659 559 OFFCURVE",
"659 650 OFFCURVE",
"632 650 CURVE SMOOTH",
"631 650 LINE SMOOTH",
"614 650 OFFCURVE",
"608 631 OFFCURVE",
"600 592 CURVE SMOOTH"
);
}
);
vertWidth = 0;
width = 1170;
},
{
anchors = (
{
name = "Anchor-0";
position = "{603, 1500}";
},
{
name = "Anchor-1";
position = "{306, 0}";
},
{
name = "Anchor-2";
position = "{306, 0}";
},
{
name = "Anchor-3";
position = "{586, 0}";
}
);
layerId = "5A070E73-1DB9-476B-9E26-8EFE8B60F44F";
paths = (
{
closed = 1;
nodes = (
"221 156 LINE SMOOTH",
"211 114 OFFCURVE",
"216 110 OFFCURVE",
"270 110 CURVE SMOOTH",
"336 110 LINE SMOOTH",
"599 110 OFFCURVE",
"707 189 OFFCURVE",
"786 472 CURVE SMOOTH",
"794 500 OFFCURVE",
"791 510 OFFCURVE",
"830 510 CURVE SMOOTH",
"860 510 LINE SMOOTH",
"890 510 OFFCURVE",
"895 507 OFFCURVE",
"890 484 CURVE SMOOTH",
"787 46 LINE SMOOTH",
"778 7 OFFCURVE",
"771 0 OFFCURVE",
"722 0 CURVE SMOOTH",
"-44 0 LINE SMOOTH",
"-68 0 OFFCURVE",
"-80 3 OFFCURVE",
"-80 30 CURVE SMOOTH",
"-80 64 LINE SMOOTH",
"-80 102 OFFCURVE",
"-77 110 OFFCURVE",
"-40 110 CURVE SMOOTH",
"-32 110 LINE SMOOTH",
"14 110 OFFCURVE",
"12 115 OFFCURVE",
"20 152 CURVE SMOOTH",
"292 1345 LINE SMOOTH",
"301 1386 OFFCURVE",
"292 1390 OFFCURVE",
"252 1390 CURVE SMOOTH",
"248 1390 LINE SMOOTH",
"211 1390 OFFCURVE",
"208 1398 OFFCURVE",
"208 1436 CURVE SMOOTH",
"208 1468 LINE SMOOTH",
"208 1497 OFFCURVE",
"230 1500 OFFCURVE",
"256 1500 CURVE SMOOTH",
"1022 1500 LINE SMOOTH",
"1080 1500 OFFCURVE",
"1088 1499 OFFCURVE",
"1077 1452 CURVE SMOOTH",
"990 1072 LINE SMOOTH",
"981 1035 OFFCURVE",
"983 1030 OFFCURVE",
"936 1030 CURVE SMOOTH",
"907 1030 LINE SMOOTH",
"874 1030 OFFCURVE",
"885 1051 OFFCURVE",
"889 1074 CURVE SMOOTH",
"934 1313 OFFCURVE",
"881 1390 OFFCURVE",
"660 1390 CURVE SMOOTH",
"560 1390 LINE SMOOTH",
"495 1390 OFFCURVE",
"499 1381 OFFCURVE",
"487 1330 CURVE SMOOTH",
"381 862 LINE SMOOTH",
"372 822 OFFCURVE",
"374 816 OFFCURVE",
"426 816 CURVE SMOOTH",
"456 816 LINE SMOOTH",
"570 816 OFFCURVE",
"603 891 OFFCURVE",
"650 1002 CURVE SMOOTH",
"659 1024 OFFCURVE",
"657 1046 OFFCURVE",
"689 1046 CURVE SMOOTH",
"720 1046 LINE SMOOTH",
"756 1046 OFFCURVE",
"754 1037 OFFCURVE",
"747 1008 CURVE SMOOTH",
"635 532 LINE SMOOTH",
"629 507 OFFCURVE",
"633 496 OFFCURVE",
"600 496 CURVE SMOOTH",
"568 496 LINE SMOOTH",
"534 496 OFFCURVE",
"542 522 OFFCURVE",
"544 546 CURVE SMOOTH",
"554 655 OFFCURVE",
"548 736 OFFCURVE",
"456 736 CURVE SMOOTH",
"400 736 LINE SMOOTH",
"350 736 OFFCURVE",
"352 732 OFFCURVE",
"343 692 CURVE SMOOTH"
);
}
);
vertWidth = 0;
width = 1013;
},
{
associatedMasterId = "5A070E73-1DB9-476B-9E26-8EFE8B60F44F";
layerId = "49087CC8-BCA6-4958-AD5E-BFCA10262A30";
name = Back;
paths = (
{
closed = 1;
nodes = (
"212 1390 LINE SMOOTH",
"179 1390 OFFCURVE",
"178 1401 OFFCURVE",
"185 1432 CURVE SMOOTH",
"192 1462 LINE SMOOTH",
"199 1493 OFFCURVE",
"205 1500 OFFCURVE",
"235 1500 CURVE SMOOTH",
"1037 1500 LINE SMOOTH",
"1083 1500 OFFCURVE",
"1090 1498 OFFCURVE",
"1080 1452 CURVE SMOOTH",
"995 1070 LINE SMOOTH",
"988 1038 OFFCURVE",
"992 1030 OFFCURVE",
"958 1030 CURVE SMOOTH",
"948 1030 LINE SMOOTH",
"919 1030 OFFCURVE",
"920 1042 OFFCURVE",
"925 1068 CURVE SMOOTH",
"973 1312 OFFCURVE",
"839 1390 OFFCURVE",
"666 1390 CURVE SMOOTH",
"530 1390 LINE SMOOTH",
"494 1390 OFFCURVE",
"484 1384 OFFCURVE",
"476 1346 CURVE SMOOTH",
"369 860 LINE SMOOTH",
"363 831 OFFCURVE",
"361 816 OFFCURVE",
"373 816 CURVE SMOOTH",
"445 816 LINE SMOOTH",
"555 816 OFFCURVE",
"626 897 OFFCURVE",
"652 1014 CURVE SMOOTH",
"657 1041 OFFCURVE",
"666 1046 OFFCURVE",
"686 1046 CURVE SMOOTH",
"719 1046 LINE SMOOTH",
"741 1046 OFFCURVE",
"748 1039 OFFCURVE",
"743 1016 CURVE SMOOTH",
"637 536 LINE SMOOTH",
"630 504 OFFCURVE",
"625 496 OFFCURVE",
"596 496 CURVE SMOOTH",
"563 496 LINE SMOOTH",
"551 496 OFFCURVE",
"535 499 OFFCURVE",
"543 530 CURVE SMOOTH",
"568 647 OFFCURVE",
"560 736 OFFCURVE",
"421 736 CURVE SMOOTH",
"374 736 LINE SMOOTH",
"349 736 OFFCURVE",
"339 728 OFFCURVE",
"331 692 CURVE SMOOTH",
"212 154 LINE SMOOTH",
"204 117 OFFCURVE",
"207 110 OFFCURVE",
"246 110 CURVE SMOOTH",
"362 110 LINE SMOOTH",
"576 110 OFFCURVE",
"745 190 OFFCURVE",
"814 478 CURVE SMOOTH",
"820 504 OFFCURVE",
"827 510 OFFCURVE",
"845 510 CURVE SMOOTH",
"853 510 LINE SMOOTH",
"878 510 OFFCURVE",
"890 507 OFFCURVE",
"884 480 CURVE SMOOTH",
"786 34 LINE SMOOTH",
"780 6 OFFCURVE",
"773 0 OFFCURVE",
"746 0 CURVE SMOOTH",
"-92 0 LINE SMOOTH",
"-122 0 OFFCURVE",
"-131 4 OFFCURVE",
"-124 36 CURVE SMOOTH",
"-114 82 LINE SMOOTH",
"-108 109 OFFCURVE",
"-99 110 OFFCURVE",
"-72 110 CURVE SMOOTH",
"-42 110 LINE SMOOTH",
"7 110 OFFCURVE",
"14 116 OFFCURVE",
"25 166 CURVE SMOOTH",
"287 1348 LINE SMOOTH",
"296 1389 OFFCURVE",
"288 1390 OFFCURVE",
"247 1390 CURVE SMOOTH"
);
}
);
vertWidth = 0;
width = 1013;
}
);
leftKerningGroup = kc0_1;
rightKerningGroup = kc0_2;
unicode = 0045;
},
